<?xml version="1.0" encoding="utf-8"?>
<!-- Generator: Adobe Illustrator 16.0.0, SVG Export Plug-In . SVG Version: 6.00 Build 0)  -->
<!DOCTYPE svg PUBLIC "-//W3C//DTD SVG 1.1//EN" "http://www.w3.org/Graphics/SVG/1.1/DTD/svg11.dtd">
<svg version="1.1" id="Layer_1" xmlns="http://www.w3.org/2000/svg" xmlns:xlink="http://www.w3.org/1999/xlink" x="0px" y="0px"
	 width="841.89px" height="184px" viewBox="0 0 841.89 184" enable-background="new 0 0 841.89 184" xml:space="preserve">
<path fill="#FFFFFF" d="M391.959,170.458h-96.795V21.765h96.795v8.105h-89.185v58.382h84.457v7.863h-84.457v66.467h89.185V170.458z"
	/>
<path fill="#FFFFFF" d="M94.017,21.765h40.458v8.303H92.982c-22.307,0-40.631,9.45-54.984,28.356
	c-8.073,11.928-12.1,24.719-12.1,38.383c0,18.384,7.601,34.986,22.821,49.791c9.162,7.383,17.348,11.761,24.553,13.142
	c4.258,2.083,11.87,3.115,22.82,3.115h38.383v7.604H90.556c-20.401,0-38.724-8.524-54.98-25.586
	c-5.874-7.497-10.029-14.294-12.446-20.406c-3.687-10.832-5.536-20.282-5.536-28.351c0-10.149,2.768-21.448,8.305-33.891
	c8.587-15.618,20.796-27.028,36.649-34.234C72.516,23.842,83.01,21.765,94.017,21.765z"/>
<path fill="#FFFFFF" d="M163.157,92.655h101.316v-70.89h7.61v148.693h-7.61v-69.851H163.157v69.851h-7.958V21.765h7.958V92.655z"/>
<path fill="#FFFFFF" d="M479.23,21.765h40.456v8.303h-41.493c-22.306,0-40.635,9.45-54.981,28.356
	c-8.071,11.928-12.108,24.719-12.108,38.383c0,18.384,7.606,34.986,22.832,49.791c9.16,7.383,17.337,11.761,24.543,13.142
	c4.264,2.083,11.878,3.115,22.828,3.115h38.38v7.604h-43.919c-20.396,0-38.731-8.524-54.98-25.586
	c-5.876-7.497-10.028-14.294-12.445-20.406c-3.688-10.832-5.537-20.282-5.537-28.351c0-10.149,2.763-21.448,8.298-33.891
	c8.583-15.618,20.801-27.028,36.662-34.234C457.734,23.842,468.214,21.765,479.23,21.765z"/>
<path fill="#FFFFFF" d="M551.818,119.969l98.207-98.204h10.37v0.353l-64.319,64.66l56.368,83.681h-9.688l-45.984-67.774l-6.915-9.68
	c-21.326,20.973-34.009,33.771-38.039,38.382v39.072h-7.952V21.765h7.952V119.969z"/>
<path fill="#FFFFFF" d="M794.551,94.035v4.15c0,18.045-7.15,34.991-21.441,50.83c-15.733,14.298-32.793,21.442-51.181,21.442
	h-44.255V21.765h40.796c22.832,0,42.079,8.419,57.759,25.246C788.436,61.648,794.551,77.327,794.551,94.035z M717.685,37.774
	h-25.082v117.414h36.433c5.777-0.607,11.042-2.041,15.824-4.283c2.284-0.613,6.767-3.377,13.44-8.282
	c14.331-12.98,21.491-28.307,21.491-45.984c0-15.84-6.071-30.25-18.212-43.23l-7.465-6.127
	C742.188,37.438,717.685,37.774,717.685,37.774z"/>
<path fill="#EF4136" d="M692.308,90.767l35.972,20.618c0,0,22.755-29.788,44.039-53.084C797.291,30.967,826,15.236,826,15.236
	s-27.76,29.238-45.626,52.579c-17.864,23.332-45.606,74.073-45.606,74.073L692.308,90.767z"/>
</svg>
