<?xml version="1.0" encoding="utf-8"?>
<!-- Generator: Adobe Illustrator 16.0.0, SVG Export Plug-In . SVG Version: 6.00 Build 0)  -->
<!DOCTYPE svg PUBLIC "-//W3C//DTD SVG 1.1//EN" "http://www.w3.org/Graphics/SVG/1.1/DTD/svg11.dtd">
<svg version="1.1" id="Layer_1" xmlns="http://www.w3.org/2000/svg" xmlns:xlink="http://www.w3.org/1999/xlink" x="0px" y="0px"
	 width="50px" height="50px" viewBox="0 0 50 50" enable-background="new 0 0 50 50" xml:space="preserve">
<g>
	<g>
		<path d="M43.527,25.002c0,10.215-8.313,18.525-18.53,18.525c-10.215,0-18.525-8.312-18.525-18.525
			c0-10.217,8.311-18.529,18.525-18.529C35.215,6.473,43.527,14.785,43.527,25.002z M24.998,1.473
			c-12.972,0-23.525,10.557-23.525,23.529c0,12.973,10.554,23.525,23.525,23.525c12.975,0,23.529-10.553,23.529-23.525
			C48.527,12.03,37.973,1.473,24.998,1.473z"/>
	</g>
	<g>
		<rect x="22.405" y="7.93" width="5" height="18.824"/>
	</g>
	<g>
		<rect x="24.264" y="24.629" transform="matrix(0.9239 0.3827 -0.3827 0.9239 12.7536 -9.8554)" width="13.769" height="5.001"/>
	</g>
</g>
</svg>
