<?xml version="1.0" encoding="utf-8"?>
<!-- Generator: Adobe Illustrator 16.0.0, SVG Export Plug-In . SVG Version: 6.00 Build 0)  -->
<!DOCTYPE svg PUBLIC "-//W3C//DTD SVG 1.1//EN" "http://www.w3.org/Graphics/SVG/1.1/DTD/svg11.dtd">
<svg version="1.1" id="Layer_1" xmlns="http://www.w3.org/2000/svg" xmlns:xlink="http://www.w3.org/1999/xlink" x="0px" y="0px"
	 width="50px" height="50px" viewBox="0 0 50 50" enable-background="new 0 0 50 50" xml:space="preserve">
<g>
	<g>
		<path d="M1373.594,1684h-14.897c-1.513,0-2.695,1.045-2.695,2.563v8.625c0,1.513,1.185,2.813,2.695,2.813h2.067l-2.846,6.896
			l8.635-6.896h7.041c1.515,0,2.406-1.301,2.406-2.813v-8.625C1376,1685.045,1375.107,1684,1373.594,1684z"/>
	</g>
	<path d="M1328.664,1724.442c0,0,4.963,7.524,15.066,7.352c6.516-0.194,15.754-3.069,18.225-12.571c0,0,2.654,0.449,4.541-1.619
		c-2.574,0.357-4.281-0.447-4.281-0.447s3.361-0.098,4.107-2.087c-1.992,0.864-4.453,0.129-4.453,0.129s-1.162-7.113-8.23-7.373
		c0,0,3.779-0.769,3.188-1.641c-0.478-0.632-3.103,0.546-3.103,0.546s1.465-0.646,1.435-1.332c-1.482,0.168-2.845,1.267-2.845,1.267
		s0.414-0.663,0.423-0.943c-3.531,1.959-5.935,9.277-5.935,9.277s-0.895-0.993-2.383-2.074c-3.6-2.115-10.236-4.626-10.236-4.626
		s-0.442,2.737,3.099,4.743c-1.451,0.115-2.179,0.304-2.179,0.304s0,2.908,4.22,3.856c-1.959,0.067-2.601,1.041-2.601,1.041
		s1.103,2.597,4.574,2.387c-2.824,1.453-0.996,3.445,1.314,3.232C1335.186,1730.507,1328.664,1724.442,1328.664,1724.442"/>
</g>
<g>
	<g>
		<g>
			<path d="M9.866,4.264c-3.221,1.425-4.448,5.375-2.869,8.581c0.187,0.304,0.36,0.447,0.391,0.762
				c-1.412,10.52,2.896,17.301,10.948,21.342c0.06,0.633-0.591,0.533,0.393,2.516c0.781,1.529,3.524,3.506,6.258,3.732
				c0.969,0.068,1.76-0.006,2.679-0.412c0.465-0.205,0.906-0.566,1.354-0.928c-0.317,0.028-0.636,0.06-0.791,0.074
				c0.155-0.016,0.474-0.046,0.791-0.074c2.068-1.789,2.734-4.89,1.361-7.635c-1.592-3.367-5.717-4.74-8.936-3.317
				c-0.464,0.204-0.911,0.565-1.193,0.911c-4.649-3.561-6.49-7.858-6.507-13.131c0.636-0.06,1.426-0.133,2.189-0.521
				c3.219-1.421,4.463-5.213,2.711-8.564C17.065,4.391,13.088,2.848,9.866,4.264z"/>
		</g>
	</g>
	<path d="M31.962,32.993l-0.557-2.721c6.828-1.396,11.486-7.691,10.834-14.642c-0.34-3.63-2.073-6.91-4.88-9.237
		c-2.807-2.326-6.355-3.416-9.982-3.08c-2.77,0.259-5.357,1.337-7.481,3.116l-1.783-2.129c2.559-2.143,5.672-3.44,9.006-3.752
		c4.359-0.411,8.634,0.906,12.013,3.706c3.379,2.799,5.465,6.747,5.874,11.116C45.789,23.736,40.182,31.312,31.962,32.993z"/>
	<path d="M8.042,48.914l-1.978-1.559c4.807-6.101,9.271-4.697,13.591-3.341c2.86,0.899,5.817,1.831,9.5,1.179
		c1.96-0.345,2.751-0.914,2.837-1.332c0.238-1.148-2.421-3.81-4.956-5.479l1.383-2.104c1.134,0.744,6.752,4.635,6.039,8.091
		c-0.348,1.685-1.984,2.796-4.865,3.304c-4.288,0.754-7.69-0.313-10.693-1.257C14.607,45.066,11.773,44.179,8.042,48.914z"/>
	<g>
		<path d="M18.9,23.114l-0.095-1.008l0.832-0.907c1.435-1.549,2.116-2.419,2.049-3.253c-0.055-0.581-0.437-1.009-1.259-0.932
			c-0.613,0.058-1.121,0.415-1.468,0.723l-0.582-1.139c0.487-0.455,1.301-0.862,2.254-0.952c1.621-0.152,2.585,0.708,2.705,1.989
			c0.113,1.205-0.651,2.238-1.607,3.256L21.125,21.5l0.002,0.022l2.694-0.252l0.129,1.369L18.9,23.114z"/>
		<path d="M27.914,22.269l-0.159-1.697l-3.154,0.296l-0.102-1.085l2.274-4.589l2.05-0.192l0.392,4.173l0.844-0.079l0.116,1.249
			l-0.843,0.079l0.159,1.697L27.914,22.269z M27.639,19.322l-0.148-1.577c-0.04-0.427-0.061-0.867-0.08-1.33l-0.033,0.003
			c-0.188,0.482-0.345,0.917-0.544,1.388l-0.795,1.644l-0.009,0.023L27.639,19.322z"/>
		<path d="M30.801,22.429l1.6-8.161l1.105-0.104l-1.599,8.161L30.801,22.429z"/>
		<path d="M39.105,14.037l0.1,1.052l-2.366,6.343l-1.764,0.166l2.397-6.004l-0.002-0.021l-3.264,0.306l-0.129-1.369L39.105,14.037z"
			/>
	</g>
</g>
</svg>
