<?xml version="1.0" encoding="utf-8"?>
<!-- Generator: Adobe Illustrator 16.0.0, SVG Export Plug-In . SVG Version: 6.00 Build 0)  -->
<!DOCTYPE svg PUBLIC "-//W3C//DTD SVG 1.1//EN" "http://www.w3.org/Graphics/SVG/1.1/DTD/svg11.dtd">
<svg version="1.1" id="Layer_1" xmlns="http://www.w3.org/2000/svg" xmlns:xlink="http://www.w3.org/1999/xlink" x="0px" y="0px"
	 width="50px" height="50px" viewBox="0 0 50 50" enable-background="new 0 0 50 50" xml:space="preserve">
<g>
	<path d="M39.87,19.896c-0.004,0.039-0.013,0.076-0.019,0.115c-0.021,0.166-0.045,0.33-0.078,0.491
		c-0.002,0.015-0.006,0.028-0.01,0.043c-0.039,0.187-0.092,0.367-0.146,0.552c-0.038,0.121-0.084,0.246-0.127,0.368
		c-0.006,0.002-0.006,0.005-0.008,0.01c-0.023,0.065-0.047,0.132-0.07,0.194c0,0.003,0,0.003,0,0.003
		c-0.036,0.08-0.072,0.159-0.107,0.239c-0.043,0.104-0.092,0.213-0.144,0.316c-0.001,0-0.001,0.003-0.003,0.003
		c-0.074,0.149-0.154,0.298-0.236,0.447c-0.002,0-0.002,0-0.004,0.003c-0.02,0.032-0.029,0.063-0.051,0.095
		c0,0-0.004,0.003-0.004,0.007c-0.098,0.159-0.193,0.322-0.303,0.488c0,0-0.002,0.004-0.004,0.004
		c-0.01,0.01-0.016,0.021-0.021,0.035c0,0,0,0-0.002,0.004c-0.002,0-0.006,0.003-0.01,0.01c-0.109,0.173-0.229,0.344-0.354,0.518
		c-0.018,0.023-0.036,0.045-0.054,0.065c-0.271,0.374-0.577,0.753-0.898,1.134c-0.059,0.066-0.112,0.132-0.173,0.197
		c-0.324,0.383-0.673,0.764-1.041,1.155c-0.063,0.065-0.128,0.135-0.193,0.201c-0.379,0.401-0.771,0.812-1.186,1.228
		c-0.459,0.476-0.938,0.959-1.422,1.464c-2.584,2.665-6.971,7.844-7.199,8.113c-0.229-0.238-4.622-4.838-8.083-7.939
		c-4.033-3.615-7.408-6.32-7.802-9.845c-0.032-0.313-0.033-0.614-0.018-0.913c0-0.002,0-0.006,0-0.01
		c0.005-0.107,0.024-0.208,0.034-0.314c0.026-0.248,0.058-0.493,0.117-0.73c0.001,0,0.001,0,0.001,0
		c0.094-0.366,0.24-0.714,0.411-1.054c0.141-0.281,0.306-0.552,0.497-0.812c0.187-0.254,0.39-0.496,0.625-0.728
		c1.45-1.406,3.704-2.268,6.042-2.293c1.144-0.012,2.258,0.187,3.21,0.566c1.903,0.76,3.049,1.623,3.768,2.38
		c0.031-0.038,0.069-0.08,0.104-0.121l0,0c0.006-0.004,0.006-0.007,0.012-0.011c0.235-0.273,0.527-0.562,0.887-0.853
		c0.012-0.011,0.021-0.019,0.035-0.024c0.168-0.14,0.357-0.277,0.563-0.416c0.017-0.012,0.022-0.018,0.038-0.028
		c0.514-0.344,1.119-0.683,1.859-1.013c0.906-0.402,1.998-0.624,3.146-0.639c2.33-0.021,4.683,0.781,6.279,2.154
		c0.332,0.284,0.625,0.59,0.883,0.908c0.197,0.247,0.371,0.507,0.525,0.771c0.002,0.003,0.002,0.008,0.006,0.011
		c0.019,0.031,0.029,0.063,0.051,0.094c0,0,0.004,0.004,0.005,0.008c0.141,0.262,0.271,0.529,0.368,0.809c0,0,0,0,0.004,0.002
		c0.117,0.333,0.199,0.68,0.255,1.03c0,0.004,0.002,0.004,0.002,0.004c0.043,0.29,0.071,0.579,0.071,0.877
		c0,0.213-0.01,0.421-0.032,0.626C39.868,19.894,39.868,19.894,39.87,19.896z"/>
</g>
</svg>
