<?xml version="1.0" encoding="utf-8"?>
<!-- Generator: Adobe Illustrator 16.0.0, SVG Export Plug-In . SVG Version: 6.00 Build 0)  -->
<!DOCTYPE svg PUBLIC "-//W3C//DTD SVG 1.1//EN" "http://www.w3.org/Graphics/SVG/1.1/DTD/svg11.dtd">
<svg version="1.1" id="Layer_1" xmlns="http://www.w3.org/2000/svg" xmlns:xlink="http://www.w3.org/1999/xlink" x="0px" y="0px"
	 width="50px" height="50px" viewBox="0 0 50 50" enable-background="new 0 0 50 50" xml:space="preserve">
<g>
	<path d="M45.67,37.252L33.648,22.126l-0.033-0.034c1.375-1.222,2.273-2.024,2.408-2.161c1.514-1.514,2.213-3.419,2.526-5.05
		l2.275,2.276l0.741-0.741L38.73,13.58c0.119-1.31,0.014-2.226,0.014-2.226s-0.906-0.094-2.201,0.035l-2.813-2.81l-0.74,0.74
		l2.262,2.264c-1.627,0.324-3.529,1.031-5.037,2.539c-0.072,0.072-0.889,0.98-2.166,2.404l-0.139-0.141L12.766,4.348
		c-0.896-0.897-2.352-0.897-3.248,0c-0.896,0.896-0.896,2.351,0,3.247l12.749,15.01l0.156,0.156
		c-3.604,4.028-7.354,8.273-10.259,11.525c-0.907-0.34-5.252-1.941-6.071-1.941c-0.917,0-2.436,1.306-2.436,1.306l5.126,5.129
		C8.589,39.491,7.8,42.396,7.8,42.396l3.438-1.166l5.094,5.096c0,0,1.306-1.33,1.306-2.436c0-0.98-1.542-5.091-1.895-6.017
		c3.273-2.883,7.552-6.604,11.606-10.188l0.172,0.176l14.9,12.64c0.896,0.897,2.352,0.897,3.248,0S46.566,38.148,45.67,37.252z"/>
</g>
</svg>
