<?xml version="1.0" encoding="utf-8"?>
<!-- Generator: Adobe Illustrator 16.0.0, SVG Export Plug-In . SVG Version: 6.00 Build 0)  -->
<!DOCTYPE svg PUBLIC "-//W3C//DTD SVG 1.1//EN" "http://www.w3.org/Graphics/SVG/1.1/DTD/svg11.dtd">
<svg version="1.1" id="Layer_1" xmlns="http://www.w3.org/2000/svg" xmlns:xlink="http://www.w3.org/1999/xlink" x="0px" y="0px"
	 width="50px" height="50px" viewBox="0 0 50 50" enable-background="new 0 0 50 50" xml:space="preserve">
<g>
	<g>
		<g>
			<path d="M25.504,44.684c-9.977,0-18.094-8.117-18.094-18.094c0-9.977,8.117-18.094,18.094-18.094
				c9.977,0,18.094,8.117,18.094,18.094C43.598,36.566,35.48,44.684,25.504,44.684z M25.504,12.496
				c-7.771,0-14.094,6.322-14.094,14.094s6.322,14.094,14.094,14.094s14.094-6.322,14.094-14.094S33.275,12.496,25.504,12.496z"/>
			<g>
				<path d="M16.787,8.905C15.5,6.022,12.613,4.01,9.254,4.01C4.695,4.01,1,7.704,1,12.262c0,3.789,2.559,6.976,6.041,7.943
					C8.652,15.262,12.199,11.206,16.787,8.905z"/>
				<path d="M49,12.262c0-4.558-3.695-8.252-8.252-8.252c-3.223,0-6.008,1.853-7.365,4.546c4.854,2.186,8.635,6.305,10.375,11.383
					C46.824,18.735,49,15.756,49,12.262z"/>
			</g>
		</g>
		<g>
			<circle cx="13.541" cy="43.094" r="2.896"/>
			<circle cx="37.23" cy="43.094" r="2.896"/>
		</g>
	</g>
	<circle cx="25.695" cy="26.696" r="3.672"/>
	<g>
		<path d="M26.314,27.059c-0.301,0.52-0.965,0.696-1.484,0.396l0,0c-0.52-0.3-0.697-0.964-0.396-1.482l6.23-10.794
			c0.301-0.519,0.965-0.697,1.484-0.396l0,0c0.52,0.3,0.697,0.964,0.396,1.482L26.314,27.059z"/>
		<path d="M26.611,25.973c0.299,0.52,0.121,1.184-0.398,1.482l0,0c-0.52,0.3-1.184,0.122-1.484-0.396l-3.672-6.361
			c-0.301-0.52-0.121-1.183,0.398-1.483l0,0c0.52-0.3,1.184-0.121,1.482,0.397L26.611,25.973z"/>
	</g>
</g>
</svg>
