<?xml version="1.0" encoding="utf-8"?>
<!-- Generator: Adobe Illustrator 16.0.0, SVG Export Plug-In . SVG Version: 6.00 Build 0)  -->
<!DOCTYPE svg PUBLIC "-//W3C//DTD SVG 1.1//EN" "http://www.w3.org/Graphics/SVG/1.1/DTD/svg11.dtd">
<svg version="1.1" id="Layer_1" xmlns="http://www.w3.org/2000/svg" xmlns:xlink="http://www.w3.org/1999/xlink" x="0px" y="0px"
	 width="50px" height="50px" viewBox="0 0 50 50" enable-background="new 0 0 50 50" xml:space="preserve">
<path d="M42.949,14.358c-1.393-1.486-2.877-2.819-4.609-3.997c0.338-0.589,0.577-1.225,0.641-1.905c0.061-1.022-0.138-2.022-0.642-3
	c-0.44-0.857-1.009-1.529-1.721-2.016c0.036-0.146,0.063-0.298,0.063-0.455c0-1.055-0.854-1.909-1.908-1.909
	c-1.053,0-1.907,0.854-1.907,1.909c0,1.055,0.854,1.909,1.909,1.909c0.59,0,1.117-0.267,1.468-0.688
	c0.761,1.146,1.144,2.281,1.144,3.403c0,0.619-0.123,1.238-0.371,1.857C33.241,7.356,29.279,6.3,25.135,6.3
	c-4.178,0-8.122,1.039-11.835,3.119c-0.247-0.619-0.371-1.255-0.371-1.904c0-1.293,0.385-2.416,1.149-3.373
	c0.349,0.455,0.896,0.751,1.515,0.751c1.055,0,1.909-0.854,1.909-1.909s-0.854-1.909-1.909-1.909c-1.055,0-1.908,0.854-1.908,1.909
	c0,0.188,0.027,0.369,0.078,0.541l-0.614,0.652c-0.833,0.867-1.328,1.501-1.482,1.906c-0.247,0.652-0.37,1.301-0.37,1.952
	c0,0.775,0.188,1.518,0.563,2.231c-1.702,1.146-3.186,2.51-4.579,4.09C11.766,19.379,17,22.79,24,23.101v1.848
	c-2,0.525-3.714,1.631-5.018,4.012c-1.241,2.225-1.547,4.639-1.547,6.555c0,2.101,0.818,3.771,2.322,5.004
	C18.958,41.846,19,42.611,19,44.503v0.724c0,0.07-0.306,0.106-0.752,0.106c-1.303,0-2.721,0.297-4.169,0.89
	C12.216,47.001,11.245,48,11.245,49h10.699c-0.037,0-0.13-1.066-0.276-1.439c-0.296-0.479-0.601-0.985-0.914-1.524
	c-0.313-0.533-0.468-1.06-0.468-1.577c0-1.666-0.212-2.195,0.59-3.182c1.269,0.682,2.69,1.021,4.269,1.021
	c1.484,0,2.846-0.308,4.082-0.928c0.806,0.993,0.558,1.53,0.558,3.167c0,0.486-0.074,0.875-0.224,1.174
	c-0.262,0.52-0.531,1.039-0.809,1.563C28.473,47.792,28.334,49,28.334,49h10.699c0-1-0.902-1.641-2.711-2.42
	C34.848,45.984,33.465,46,32.174,46H31v-1.514c0-2.002,0.121-2.713-0.686-3.887c1.593-1.296,2.449-2.994,2.449-5.094
	c0-1.943-0.736-4.553-1.943-6.775C29.521,26.416,28,25.505,26,24.948V23.1C33,22.853,38.329,19.442,42.949,14.358z M25.701,9.46
	c2.043,0,3.066,1.024,3.066,3.068c0,2.047-1.023,3.07-3.066,3.07c-2.081,0-3.123-1.023-3.123-3.07
	C22.578,10.484,23.62,9.46,25.701,9.46z M25.139,20.3c-2.013,0-3.765-0.172-5.406-0.514C17.194,19.291,16,18.513,16,17.456v-0.281
	c0,0.586,1.275,0.889,3.02,1.305c1.744,0.415,3.953-0.164,6.484-0.164c1.575,0,3.43,0.625,5.126,0.378
	c2.533-0.369,3.218-0.79,3.804-1.378l0.045,0.141c0,0.621-0.211,1.298-0.984,1.67C31.639,20.027,28.73,20.3,25.139,20.3z
	 M25.615,13.415c0.576,0,0.865-0.29,0.865-0.869c0-0.576-0.289-0.863-0.865-0.863c-0.578,0-0.867,0.287-0.867,0.863
	C24.748,13.125,25.037,13.415,25.615,13.415z"/>
</svg>
