<?xml version="1.0" encoding="utf-8"?>
<!-- Generator: Adobe Illustrator 16.0.0, SVG Export Plug-In . SVG Version: 6.00 Build 0)  -->
<!DOCTYPE svg PUBLIC "-//W3C//DTD SVG 1.1//EN" "http://www.w3.org/Graphics/SVG/1.1/DTD/svg11.dtd">
<svg version="1.1" id="Layer_1" xmlns="http://www.w3.org/2000/svg" xmlns:xlink="http://www.w3.org/1999/xlink" x="0px" y="0px"
	 width="50px" height="50px" viewBox="0 0 50 50" enable-background="new 0 0 50 50" xml:space="preserve">
<g>
	<g>
		<path d="M27.529,33.609c-14.579-1.312-17.39,8.296-17.39,8.296L2.272,27.202c-1.438,1.544-1.696,2.536-1.696,2.536l9.551,17.597
			c0,0,3.519-12.271,18.098-10.958c16.2,1.456,20.155-8.413,20.155-8.413l-1.262-2.174C44.32,29.373,38.328,34.58,27.529,33.609z"/>
	</g>
	<g>
		<path d="M26.313,31.449c16.215,1.302,23.11-12.483,23.11-12.483l-9.46-16.301c0,0-7.689,10.911-19.192,9.453
			C7.108,10.386,1.196,20.972,1.196,20.972L9.924,37.18C9.924,37.182,12.541,30.345,26.313,31.449z M21.508,14.811l1.645-1.057
			l0.951,1.477c1.146-0.689,2.063-0.923,2.806-1.024l0.718,2.222c-0.55,0.069-1.586,0.19-2.795,0.968
			c-1.091,0.701-1.129,1.414-0.827,1.885c0.345,0.537,1.169,0.527,2.93,0.13c2.469-0.59,3.853-0.173,4.834,1.352
			c0.963,1.496,0.731,3.423-1,5.013l1.112,1.728l-1.646,1.06l-1.035-1.611c-1.146,0.689-2.444,1.072-3.309,1.13l-0.759-2.289
			c0.954-0.065,2.171-0.351,3.261-1.052c0.959-0.617,1.381-1.435,0.961-2.087c-0.412-0.638-1.226-0.687-2.737-0.306
			c-2.185,0.55-3.95,0.5-4.998-1.127c-0.96-1.495-0.666-3.324,0.915-4.813L21.508,14.811z"/>
	</g>
</g>
</svg>
