<?xml version="1.0" encoding="utf-8"?>
<!-- Generator: Adobe Illustrator 16.0.0, SVG Export Plug-In . SVG Version: 6.00 Build 0)  -->
<!DOCTYPE svg PUBLIC "-//W3C//DTD SVG 1.1//EN" "http://www.w3.org/Graphics/SVG/1.1/DTD/svg11.dtd">
<svg version="1.1" id="Layer_1" xmlns="http://www.w3.org/2000/svg" xmlns:xlink="http://www.w3.org/1999/xlink" x="0px" y="0px"
	 width="50px" height="50px" viewBox="0 0 50 50" enable-background="new 0 0 50 50" xml:space="preserve">
<g>
	<g>
		<g>
			<polygon points="40.518,8.015 4.37,43.523 3.656,44.225 5.058,45.65 5.771,44.949 41.919,9.441 42.632,8.74 41.23,7.313 			"/>
		</g>
		<g>
			<path d="M18.179,29.424c-2.425,0.588-14.552,3.758-15.078,8.42c-0.195,1.725,1.078,3.281,3.784,4.633l-0.509-0.6
				c0.145,0.467,1.495,4.559,4.386,4.553c3.151-0.006,6.111-4.904,9.316-15.408l0.252-0.828l-0.783-0.368l-0.706-0.332l-0.319-0.15
				L18.179,29.424z M18.165,30.438c-3.959,12.978-6.671,13.99-7.408,13.992c-1.12,0.002-2.165-2.158-2.471-3.145L8.16,40.877
				l-0.383-0.191C5.955,39.775,5,38.848,5.088,38.068c0.272-2.418,8.096-5.373,13.563-6.701l-0.661-0.065l0.706,0.331L18.165,30.438
				z"/>
		</g>
	</g>
	<polygon points="35.001,7.396 42.055,14.469 46.919,3.57 	"/>
</g>
</svg>
