<?xml version="1.0" encoding="utf-8"?>
<!-- Generator: Adobe Illustrator 16.0.0, SVG Export Plug-In . SVG Version: 6.00 Build 0)  -->
<!DOCTYPE svg PUBLIC "-//W3C//DTD SVG 1.1//EN" "http://www.w3.org/Graphics/SVG/1.1/DTD/svg11.dtd">
<svg version="1.1" id="Layer_1" xmlns="http://www.w3.org/2000/svg" xmlns:xlink="http://www.w3.org/1999/xlink" x="0px" y="0px"
	 width="50px" height="50px" viewBox="0 0 50 50" enable-background="new 0 0 50 50" xml:space="preserve">
<g>
	<path d="M35.025,25.001c0-1.623,1.32-2.938,2.943-2.938c1.616,0,2.938,1.314,2.938,2.938c0,1.621-1.321,2.937-2.938,2.937
		C36.348,27.938,35.025,26.622,35.025,25.001z"/>
	<path d="M17.743,25.001c0-1.623,1.32-2.938,2.937-2.938c1.626,0,2.938,1.314,2.938,2.938c0,1.621-1.312,2.937-2.938,2.937
		C19.063,27.938,17.743,26.622,17.743,25.001z"/>
	<circle cx="12.036" cy="25.001" r="2.938"/>
	<circle cx="3.394" cy="25.001" r="2.937"/>
	<circle cx="46.609" cy="25.001" r="2.934"/>
	<path d="M35.025,33.452c0-1.623,1.32-2.939,2.943-2.939c1.616,0,2.938,1.316,2.938,2.939s-1.321,2.938-2.938,2.938
		C36.348,36.391,35.025,35.075,35.025,33.452z"/>
	<path d="M35.025,16.88c0-1.625,1.32-2.937,2.943-2.937c1.616,0,2.938,1.312,2.938,2.937c0,1.622-1.321,2.938-2.938,2.938
		C36.348,19.817,35.025,18.502,35.025,16.88z"/>
	<g>
		<path d="M26.387,25.001c0-1.623,1.314-2.938,2.934-2.938c1.623,0,2.941,1.314,2.941,2.938c0,1.621-1.318,2.937-2.941,2.937
			C27.701,27.938,26.387,26.622,26.387,25.001z"/>
		<path d="M26.387,41.52c0-1.621,1.314-2.937,2.934-2.937c1.623,0,2.941,1.313,2.941,2.937s-1.318,2.938-2.941,2.938
			C27.701,44.456,26.387,43.143,26.387,41.52z"/>
		<path d="M26.387,33.261c0-1.622,1.314-2.938,2.934-2.938c1.623,0,2.941,1.313,2.941,2.938c0,1.62-1.318,2.937-2.941,2.937
			C27.701,36.196,26.387,34.881,26.387,33.261z"/>
		<path d="M26.387,8.48c0-1.623,1.314-2.937,2.934-2.937c1.623,0,2.941,1.313,2.941,2.937s-1.318,2.938-2.941,2.938
			C27.701,11.418,26.387,10.104,26.387,8.48z"/>
		<path d="M26.387,16.74c0-1.622,1.314-2.938,2.934-2.938c1.623,0,2.941,1.316,2.941,2.938s-1.318,2.936-2.941,2.936
			C27.701,19.676,26.387,18.362,26.387,16.74z"/>
	</g>
</g>
</svg>
