<?xml version="1.0" encoding="utf-8"?>
<!-- Generator: Adobe Illustrator 16.0.0, SVG Export Plug-In . SVG Version: 6.00 Build 0)  -->
<!DOCTYPE svg PUBLIC "-//W3C//DTD SVG 1.1//EN" "http://www.w3.org/Graphics/SVG/1.1/DTD/svg11.dtd">
<svg version="1.1" id="Layer_1" xmlns="http://www.w3.org/2000/svg" xmlns:xlink="http://www.w3.org/1999/xlink" x="0px" y="0px"
	 width="50px" height="50px" viewBox="0 0 50 50" enable-background="new 0 0 50 50" xml:space="preserve">
<g>
	<g>
		<path d="M1373.594,1684h-14.897c-1.513,0-2.695,1.045-2.695,2.563v8.625c0,1.513,1.185,2.813,2.695,2.813h2.067l-2.846,6.896
			l8.635-6.896h7.041c1.515,0,2.406-1.301,2.406-2.813v-8.625C1376,1685.045,1375.107,1684,1373.594,1684z"/>
	</g>
	<path d="M1328.664,1724.442c0,0,4.963,7.524,15.066,7.352c6.516-0.194,15.754-3.069,18.225-12.571c0,0,2.654,0.449,4.541-1.619
		c-2.574,0.357-4.281-0.447-4.281-0.447s3.361-0.098,4.107-2.087c-1.992,0.864-4.453,0.129-4.453,0.129s-1.162-7.113-8.23-7.373
		c0,0,3.779-0.769,3.188-1.641c-0.478-0.632-3.103,0.546-3.103,0.546s1.465-0.646,1.435-1.332c-1.482,0.168-2.845,1.267-2.845,1.267
		s0.414-0.663,0.423-0.943c-3.531,1.959-5.935,9.277-5.935,9.277s-0.895-0.993-2.383-2.074c-3.6-2.115-10.236-4.626-10.236-4.626
		s-0.442,2.737,3.099,4.743c-1.451,0.115-2.179,0.304-2.179,0.304s0,2.908,4.22,3.856c-1.959,0.067-2.601,1.041-2.601,1.041
		s1.103,2.597,4.574,2.387c-2.824,1.453-0.996,3.445,1.314,3.232C1335.186,1730.507,1328.664,1724.442,1328.664,1724.442"/>
</g>
<g>
	<g>
		<polygon points="41.543,46.265 24.775,32.605 8.463,45.941 3.749,40.176 24.767,22.992 46.246,40.489 		"/>
		<rect x="21" y="8" width="7" height="21"/>
	</g>
	<g>
		<g>
			<polygon points="48.854,49 39.473,46.488 30.094,43.975 38.999,40.164 43.826,30.242 46.341,39.621 			"/>
			<polygon points="1.147,49 3.661,39.621 6.173,30.242 9.983,40.164 19.906,43.975 10.528,46.488 			"/>
		</g>
		<polygon points="25.001,1 29.857,9.409 34.712,17.818 25.001,14.76 15.291,17.818 20.146,9.409 		"/>
	</g>
</g>
</svg>
