<?xml version="1.0" encoding="utf-8"?>
<!-- Generator: Adobe Illustrator 16.0.0, SVG Export Plug-In . SVG Version: 6.00 Build 0)  -->
<!DOCTYPE svg PUBLIC "-//W3C//DTD SVG 1.1//EN" "http://www.w3.org/Graphics/SVG/1.1/DTD/svg11.dtd">
<svg version="1.1" id="Layer_1" xmlns="http://www.w3.org/2000/svg" xmlns:xlink="http://www.w3.org/1999/xlink" x="0px" y="0px"
	 width="50px" height="50px" viewBox="0 0 50 50" enable-background="new 0 0 50 50" xml:space="preserve">
<g>
	<path d="M44.191,23.202C44.191,11.108,35.6,1.304,25,1.304c-10.6,0-19.192,9.805-19.192,21.898
		c0,11.259,7.448,20.526,17.028,21.756c-0.755,1.303-1.343,2.327-1.343,2.327c-0.828,1.29,0.335,1.411,0.973,1.411h5.843
		c0.641,0,1.616-0.156,0.975-1.378c0,0-0.577-0.94-1.518-2.447C37.055,43.34,44.191,34.225,44.191,23.202z M27.855,5.151
		c-9.312,0-16.859,8.61-16.859,19.234c0,6.572,2.891,12.369,7.296,15.84c-5.632-3.112-9.518-9.697-9.518-17.318
		c0-10.622,7.549-19.235,16.859-19.235c3.551,0,6.844,1.256,9.561,3.396C32.977,5.841,30.486,5.151,27.855,5.151z"/>
</g>
</svg>
