<?xml version="1.0" encoding="utf-8"?>
<!-- Generator: Adobe Illustrator 16.0.0, SVG Export Plug-In . SVG Version: 6.00 Build 0)  -->
<!DOCTYPE svg PUBLIC "-//W3C//DTD SVG 1.1//EN" "http://www.w3.org/Graphics/SVG/1.1/DTD/svg11.dtd">
<svg version="1.1" id="Layer_1" xmlns="http://www.w3.org/2000/svg" xmlns:xlink="http://www.w3.org/1999/xlink" x="0px" y="0px"
	 width="50px" height="50px" viewBox="0 0 50 50" enable-background="new 0 0 50 50" xml:space="preserve">
<g>
	<path d="M11.376,1.446c5.454-1.391,11.252,2.029,14.302,7.969c0.145,0.283-4,4.572-4.72,9.02c-1.581,9.73,2.15,14.042,1.906,14.262
		c-0.729,0.664-1.851,1.262-3.185,1.586c-2.534,0.646-4.799,0.16-5.122-1.025c-0.107-0.379,0.053-0.809,0.323-1.188
		C9.651,31.152,4.85,26.355,3.184,19.724C1.025,11.313,4.745,3.116,11.376,1.446z"/>
	<g>
		<g>
			<path d="M18.08,35.257c1.079,0.318,1.86,0.92,2.262,1.74c0.438,0.894,0.423,2.002-0.042,3.201
				c-1.214,3.114-1.599,5.739-1.253,8.504l2.131-0.267c-0.299-2.396,0.045-4.69,1.12-7.459c0.68-1.752,0.672-3.5-0.028-4.926
				c-0.676-1.373-1.911-2.359-3.577-2.854L18.08,35.257z"/>
		</g>
		<g>
			<path d="M27.236,48.862l0.193-0.673l0.131-0.461c0.479-1.405,1.189-2.774,1.877-4.104c0.709-1.373,1.381-2.67,1.834-4.053
				l-2.043-0.666c-0.396,1.219-1.028,2.438-1.699,3.731c-0.723,1.396-1.473,2.841-2.016,4.451c-0.017,0.052-0.151,0.513-0.151,0.513
				l-0.19,0.67L27.236,48.862z"/>
		</g>
	</g>
	<path d="M38.713,6.622c6.688,1.777,10.245,9.975,8.089,18.387c-1.78,6.576-6.63,11.375-11.86,12.183
		c0.268,0.434,0.377,0.811,0.322,1.188c-0.322,1.242-2.64,1.672-5.121,1.025c-2.535-0.701-4.259-2.213-3.992-3.396
		c0.109-0.381,0.432-0.646,0.867-0.918c-4.155-3.287-6.042-9.811-4.317-16.443C24.911,10.288,32.083,4.894,38.713,6.622z"/>
</g>
</svg>
