<?xml version="1.0" encoding="utf-8"?>
<!-- Generator: Adobe Illustrator 16.0.0, SVG Export Plug-In . SVG Version: 6.00 Build 0)  -->
<!DOCTYPE svg PUBLIC "-//W3C//DTD SVG 1.1//EN" "http://www.w3.org/Graphics/SVG/1.1/DTD/svg11.dtd">
<svg version="1.1" id="Layer_1" xmlns="http://www.w3.org/2000/svg" xmlns:xlink="http://www.w3.org/1999/xlink" x="0px" y="0px"
	 width="50px" height="50px" viewBox="0 0 50 50" enable-background="new 0 0 50 50" xml:space="preserve">
<g>
	<rect x="7.596" y="4.77" width="34.808" height="3.597"/>
	<rect x="18.641" y="0.863" width="12.716" height="2.699"/>
	<g>
		<path d="M19.337,9.589v39.548h4.277V9.583C22.337,9.573,20.975,9.573,19.337,9.589z"/>
		<path d="M26.389,9.62v39.517h4.275V9.692C29.033,9.667,27.672,9.639,26.389,9.62z"/>
		<path d="M9.18,9.792l2.008,35.333c0,2.216,1.795,4.013,4.01,4.013h1.368V9.625C14.562,9.662,12.175,9.712,9.18,9.792z"/>
		<path d="M33.436,9.735v39.401h1.365c2.217,0,4.012-1.797,4.012-4.013L40.818,9.79C37.816,9.779,35.434,9.758,33.436,9.735z"/>
	</g>
</g>
</svg>
