<?xml version="1.0" encoding="utf-8"?>
<!-- Generator: Adobe Illustrator 16.0.0, SVG Export Plug-In . SVG Version: 6.00 Build 0)  -->
<!DOCTYPE svg PUBLIC "-//W3C//DTD SVG 1.1//EN" "http://www.w3.org/Graphics/SVG/1.1/DTD/svg11.dtd">
<svg version="1.1" id="Layer_1" xmlns="http://www.w3.org/2000/svg" xmlns:xlink="http://www.w3.org/1999/xlink" x="0px" y="0px"
	 width="50px" height="50px" viewBox="0 0 50 50" enable-background="new 0 0 50 50" xml:space="preserve">
<g>
	<g>
		<g>
			<path d="M35.218,36.191c0,0.767-0.618,1.388-1.385,1.388H16.168c-0.764,0-1.386-0.621-1.386-1.388v-0.174l-0.043-0.168
				l-3.697-14.507l0.043,0.342c0-0.764,0.622-1.387,1.385-1.387h25.059c0.764,0,1.387,0.623,1.387,1.387l0.044-0.342L35.262,35.85
				l-0.043,0.168L35.218,36.191L35.218,36.191z M41.689,21.686c0-2.293-1.869-4.158-4.16-4.158H12.47
				c-2.293,0-4.16,1.865-4.16,4.158v0.174l0.045,0.17l3.697,14.507l-0.045-0.344c0,2.293,1.868,4.158,4.161,4.158h17.665
				c2.292,0,4.158-1.865,4.158-4.158l-0.043,0.344l3.696-14.507l0.045-0.17V21.686z"/>
		</g>
		<g>
			<line x1="11.25" y1="28.28" x2="38.982" y2="28.28"/>
			<rect x="11.25" y="26.896" width="27.732" height="2.771"/>
		</g>
		<g>
			<line x1="12.318" y1="32.502" x2="37.699" y2="32.502"/>
			<rect x="12.318" y="31.116" width="25.381" height="2.772"/>
		</g>
	</g>
	<g>
		<path d="M18.993,21.441c-0.322,0.815-1.218,1.228-1.998,0.918l0,0c-0.778-0.308-1.152-1.221-0.829-2.035l3.817-9.653
			c0.322-0.815,1.215-1.229,1.999-0.918l0,0c0.78,0.309,1.15,1.22,0.829,2.037L18.993,21.441z"/>
		<path d="M31.008,21.441c0.32,0.815,1.215,1.228,1.999,0.918l0,0c0.78-0.308,1.15-1.221,0.826-2.035l-3.815-9.653
			c-0.322-0.815-1.217-1.229-1.998-0.918l0,0c-0.781,0.309-1.151,1.22-0.828,2.037L31.008,21.441z"/>
	</g>
</g>
</svg>
