<?xml version="1.0" encoding="utf-8"?>
<!-- Generator: Adobe Illustrator 16.0.0, SVG Export Plug-In . SVG Version: 6.00 Build 0)  -->
<!DOCTYPE svg PUBLIC "-//W3C//DTD SVG 1.1//EN" "http://www.w3.org/Graphics/SVG/1.1/DTD/svg11.dtd">
<svg version="1.1" id="Layer_1" xmlns="http://www.w3.org/2000/svg" xmlns:xlink="http://www.w3.org/1999/xlink" x="0px" y="0px"
	 width="50px" height="50px" viewBox="0 0 50 50" enable-background="new 0 0 50 50" xml:space="preserve">
<g>
	<g>
		<circle cx="683.798" cy="3613.543" r="2.722"/>
	</g>
	<g>
		<g>
			<polygon points="667.215,3621.643 667.096,3621.664 666.98,3621.719 			"/>
			<path d="M670.965,3620.113l-0.005-0.049c-0.011-0.093-0.007-0.183-0.004-0.271l-3.86,1.87l0.119-0.021l-0.232,0.075l0.113-0.055
				l-2.039,0.356l3.023,0.543l3.369-1.188l-0.468-1.217L670.965,3620.113z"/>
			<polygon points="668.366,3623.15 668.148,3623.111 667.943,3623.18 			"/>
			<path d="M671.625,3621.965l-3.477,1.146l0.218,0.039l-0.423,0.029l0.205-0.068l-6.766-1.205l-0.287-0.051l-0.26,0.135
				l-2.566,2.277l2.906-0.638l-0.095-0.018l0.548-0.082l-0.453,0.1l6.885,1.228l0.216,0.037l0.21-0.068l4.65-1.535
				c-0.305-0.07-0.593-0.199-0.846-0.396C671.98,3622.648,671.759,3622.326,671.625,3621.965z"/>
			<polygon points="661.082,3623.613 661.177,3623.631 661.63,3623.531 			"/>
			<path d="M671.732,3619.86c0,0.028-0.012,0.056-0.01,0.089l0.449,1.17l0.177-0.063L671.732,3619.86z"/>
			<path d="M672.371,3621.719c0.085,0.221,0.207,0.422,0.396,0.572c0.283,0.225,0.636,0.324,0.993,0.283
				c0,0,0.244-0.029,0.623-0.072l-0.43-1.305L672.371,3621.719z"/>
			<polygon points="683.339,3617.053 683.33,3617.053 683.332,3617.061 			"/>
			<path d="M671.5,3621.475c0.004,0.025,0.013,0.052,0.018,0.076l0.007,0.019L671.5,3621.475z"/>
			<polygon points="681.532,3616.273 681.544,3616.275 681.584,3616.265 			"/>
			<path d="M671.722,3619.979c-0.002-0.012,0.002-0.021,0.002-0.028l-0.023-0.066L671.722,3619.979z"/>
		</g>
		<g>
			<path d="M689.646,3616.198l-6.231,1.229l-2.36,0.515c0.53,0.594,1.805,1.619,3.045,2.844l5.945-3.133l18.038,0.684l0.203-1.105
				L689.646,3616.198z"/>
		</g>
	</g>
	<g>
		<polygon points="691.564,3621.357 690.936,3620.948 690.396,3621.482 		"/>
		<polygon points="693.587,3618.316 690.936,3620.948 691.564,3621.357 690.396,3621.482 690.936,3620.948 688.235,3619.206 
			686.314,3620.191 690.555,3622.928 691.186,3623.338 691.723,3622.803 695.934,3618.412 		"/>
		<g>
			<polygon points="686.488,3621.979 685.934,3621.525 685.3,3622.035 			"/>
			<polygon points="690.111,3618.184 685.934,3621.525 686.488,3621.979 685.3,3622.035 685.934,3621.525 685.078,3620.828 
				684.02,3621.371 683.688,3621.107 680.273,3617.859 679.446,3619.011 685.367,3623.475 685.985,3623.939 686.559,3623.42 
				692.289,3618.254 			"/>
			<polygon points="680.706,3617.256 680.336,3617.771 681.089,3617.568 			"/>
			<polygon points="680.216,3617.803 680.273,3617.859 680.336,3617.771 			"/>
			<g>
				<path d="M680.336,3617.771l0.753-0.203c0,0,1.638-0.379,1.838-0.432c-0.217-0.556-0.764-0.929-1.383-0.861l-8.585,2.188
					l-0.025,0.009l-0.023,0.002c-0.701,0.082-1.198,0.692-1.178,1.386l0.617,1.196l-0.177,0.063l0.067,0.175l0.018,0.044
					l0.005,0.049c0.014,0.117,0.065,0.226,0.108,0.332l1.584-0.521l0.43,1.305c1.93-0.225,7.769-0.905,7.771-0.905
					c0.2-0.021,0.386-0.109,0.557-0.224l-1.261-2.396l-1.178-1.118L680.336,3617.771z"/>
			</g>
		</g>
	</g>
</g>
<g>
	<path d="M1.318,24.998c0,13.145,10.605,23.802,23.684,23.802c1.734,0,3.423-0.194,5.053-0.55
		c-1.359-2.199-5.145-7.344-12.352-10.369c-0.362-0.166-8.93-4.207-10.777-11.746c-1.004-4.095,0.15-8.327,3.432-12.584
		l-0.081,0.113c0.157-0.238,3.899-5.851,10.116-6.433c4.114-0.387,8.207,1.497,12.159,5.598l0.123,0.128l0.097,0.149
		c2.313,3.568,9.519,12.542,15.892,12.717c0.009-0.274,0.021-0.547,0.021-0.825c0-13.143-10.6-23.798-23.681-23.798
		C11.924,1.2,1.318,11.855,1.318,24.998z"/>
	<path d="M29.809,15.275c-3.096-3.177-6.142-4.658-9.053-4.396c-4.446,0.402-7.384,4.755-7.413,4.795l-0.036,0.059l-0.044,0.056
		c-2.562,3.324-3.498,6.506-2.779,9.459c1.416,5.818,8.688,9.273,8.701,9.279c9.066,3.804,13.359,10.601,14.476,12.623
		c7.459-2.948,13.069-9.588,14.601-17.686C39.209,28.949,30.908,16.927,29.809,15.275z"/>
</g>
</svg>
