<?xml version="1.0" encoding="utf-8"?>
<!-- Generator: Adobe Illustrator 16.0.0, SVG Export Plug-In . SVG Version: 6.00 Build 0)  -->
<!DOCTYPE svg PUBLIC "-//W3C//DTD SVG 1.1//EN" "http://www.w3.org/Graphics/SVG/1.1/DTD/svg11.dtd">
<svg version="1.1" id="Layer_1" xmlns="http://www.w3.org/2000/svg" xmlns:xlink="http://www.w3.org/1999/xlink" x="0px" y="0px"
	 width="50px" height="50px" viewBox="0 0 50 50" enable-background="new 0 0 50 50" xml:space="preserve">
<g>
	<path d="M19.712,18.933l-2.382,0.362l-0.193-0.652l2.501-0.361c-0.099-0.396-0.185-0.776-0.259-1.121
		c-0.077-0.348-0.176-0.817-0.309-1.411l-2.477,0.626l-0.191-0.626l2.402-0.627c-0.145-0.453-0.286-0.858-0.403-1.222
		c-0.125-0.361-0.302-0.773-0.527-1.221l-2.375,0.793l-0.103-0.625l2.302-0.82c-0.911-2.076-1.891-4.195-2.936-6.357
		c-3.51,1.842-6.381,4.48-8.61,7.927c-2.234,3.446-3.346,7.247-3.346,11.404c0,4.027,1.071,7.803,3.21,11.334
		c2.282,3.495,5.202,6.126,8.746,7.898c0.584-1.129,1.114-2.186,1.563-3.174c0.462-1,0.853-1.986,1.178-2.986l-2.107-0.824
		l0.103-0.648l2.375,0.823c0.177-0.485,0.343-0.893,0.484-1.213c0.15-0.321,0.301-0.735,0.446-1.229l-2.402-0.563l0.191-0.725
		l2.385,0.725c0.31-1.154,0.525-2.027,0.66-2.607l-2.401-0.459l0.094-0.65l2.382,0.46c0.093-0.437,0.185-0.839,0.268-1.212
		c0.082-0.371,0.143-0.775,0.192-1.229l-2.4-0.363v-0.727l2.4,0.266c0.099-0.575,0.159-0.988,0.175-1.246
		c0.016-0.247,0.026-0.645,0.026-1.192l-2.307-0.09l-0.193-0.63h2.5c0-0.502,0-0.922,0.007-1.271c0.009-0.348-0.023-0.776-0.11-1.27
		l-2.398,0.162l-0.101-0.715l2.4-0.175C20.09,20.881,19.938,20.029,19.712,18.933L19.712,18.933z M25.049,49.459
		c-6.854,0-12.7-2.393-17.536-7.184c-4.836-4.787-7.255-10.543-7.255-17.271c0-6.744,2.419-12.509,7.255-17.289
		C12.349,2.937,18.195,0.54,25.049,0.54c6.838,0,12.666,2.396,17.475,7.176c4.813,4.78,7.221,10.545,7.221,17.289
		c0,6.728-2.408,12.481-7.221,17.271C37.715,47.066,31.887,49.459,25.049,49.459L25.049,49.459z M25.047,46.866
		c1.664,0,3.471-0.239,5.417-0.726c0.828-0.175,1.548-0.392,2.142-0.637c0.595-0.258,1.265-0.586,2-1.007
		c-1.213-2.284-2.19-4.339-2.944-6.16l-2.375,0.729l-0.19-0.631l2.399-0.727c-0.201-0.504-0.353-0.924-0.47-1.271
		c-0.112-0.348-0.233-0.771-0.366-1.293l-2.478,0.65l-0.19-0.65l2.475-0.629c-0.147-0.488-0.301-0.906-0.469-1.276
		c-0.166-0.37-0.308-0.791-0.44-1.261l-2.476,0.361l-0.092-0.627l2.565-0.453c-0.38-0.927-0.587-1.766-0.638-2.541l-2.397,0.164
		v-0.719l2.397-0.171c-0.133-0.61-0.19-1.462-0.19-2.539h-2.386l0.076-0.72h2.31c-0.117-0.759-0.082-1.607,0.092-2.539L26.52,21.91
		l0.102-0.725l2.299,0.189c0.137-1,0.344-1.873,0.639-2.632L26.99,18.28l0.166-0.625l2.4,0.46c0.135-0.404,0.258-0.801,0.363-1.196
		c0.119-0.395,0.271-0.84,0.473-1.344l-2.4-0.725l0.191-0.651l2.375,0.726c0.102-0.389,0.227-0.801,0.385-1.246
		c0.148-0.438,0.301-0.873,0.453-1.294l-2.301-0.817l0.189-0.628l2.301,0.917c0.219-0.527,0.451-1.072,0.711-1.617
		c0.27-0.551,0.521-1.097,0.764-1.642c0.217-0.537,0.453-1.069,0.727-1.624c0.268-0.545,0.545-1.104,0.82-1.666
		c-1.424-0.677-2.945-1.222-4.574-1.633c-1.621-0.402-3.285-0.609-4.984-0.609c-1.763,0-3.444,0.207-5.042,0.609
		C18.4,4.087,16.87,4.632,15.396,5.309c0.261,0.562,0.529,1.121,0.796,1.666c0.268,0.555,0.526,1.087,0.771,1.624
		c0.216,0.545,0.468,1.091,0.759,1.642c0.293,0.545,0.561,1.09,0.786,1.617l2.233-0.917l0.168,0.628l-2.208,0.817
		c0.133,0.421,0.267,0.856,0.409,1.294c0.134,0.445,0.276,0.857,0.429,1.246l2.298-0.726l0.174,0.651l-2.299,0.725
		c0.31,0.856,0.551,1.7,0.728,2.54l2.408-0.46l0.167,0.625l-2.475,0.462c0.218,0.808,0.402,1.681,0.57,2.632l2.272-0.189l0.1,0.725
		L21.177,22.2c0.167,0.932,0.201,1.78,0.1,2.539h2.3l0.101,0.72h-2.401c0,1.077-0.059,1.93-0.166,2.539l2.372,0.171v0.72
		l-2.372-0.164c-0.052,0.543-0.125,0.996-0.227,1.344c-0.099,0.347-0.208,0.744-0.343,1.197l2.475,0.452l-0.075,0.628l-2.5-0.363
		c-0.093,0.471-0.218,0.892-0.378,1.262c-0.157,0.372-0.3,0.79-0.425,1.277l2.374,0.629L21.838,35.8l-2.401-0.649
		c-0.142,0.521-0.276,0.945-0.392,1.293c-0.109,0.347-0.26,0.767-0.435,1.271l2.299,0.726l-0.168,0.631l-2.308-0.729
		c-0.467,0.997-0.936,1.971-1.395,2.919c-0.452,0.957-1.005,2.037-1.642,3.241c0.738,0.421,1.409,0.749,2.01,1.007
		c0.601,0.245,1.345,0.464,2.231,0.636C21.451,46.627,23.25,46.866,25.047,46.866L25.047,46.866z M30.391,18.933
		c-0.242,1.097-0.401,1.948-0.471,2.539l2.402,0.175l-0.09,0.715L29.83,22.2c-0.15,0.493-0.217,0.922-0.201,1.27
		c0.018,0.348,0.027,0.769,0.027,1.271h2.473l-0.1,0.63l-2.373,0.09c0,0.55,0.006,0.946,0.023,1.194
		c0.016,0.256,0.1,0.669,0.238,1.244l2.4-0.266v0.729l-2.4,0.363c0.055,0.449,0.119,0.854,0.203,1.227
		c0.072,0.373,0.168,0.777,0.27,1.212l2.299-0.46l0.076,0.652l-2.303,0.459c0.109,0.58,0.336,1.453,0.66,2.605l2.303-0.727
		l0.176,0.727l-2.311,0.563c0.15,0.492,0.293,0.906,0.438,1.229c0.133,0.32,0.301,0.728,0.504,1.213l2.297-0.823l0.076,0.648
		l-2.107,0.824c0.309,1,0.693,1.984,1.16,2.986c0.469,0.988,1.004,2.045,1.607,3.174c3.67-1.855,6.58-4.484,8.721-7.898
		c2.156-3.563,3.236-7.341,3.236-11.334c0-4.157-1.113-7.958-3.336-11.404c-2.219-3.446-5.096-6.085-8.621-7.927
		c-0.563,1.148-1.063,2.203-1.508,3.167c-0.449,0.968-0.9,2.03-1.361,3.19l2.209,0.82l-0.076,0.625l-2.4-0.793
		c-0.201,0.447-0.35,0.859-0.451,1.221c-0.107,0.363-0.232,0.769-0.385,1.222l2.309,0.627l-0.174,0.626l-2.402-0.626
		c-0.148,0.594-0.25,1.063-0.314,1.411c-0.064,0.345-0.15,0.727-0.244,1.121l2.4,0.361l-0.178,0.652L30.391,18.933z"/>
</g>
</svg>
