<?xml version="1.0" encoding="utf-8"?>
<!-- Generator: Adobe Illustrator 16.0.0, SVG Export Plug-In . SVG Version: 6.00 Build 0)  -->
<!DOCTYPE svg PUBLIC "-//W3C//DTD SVG 1.1//EN" "http://www.w3.org/Graphics/SVG/1.1/DTD/svg11.dtd">
<svg version="1.1" id="Layer_1" xmlns="http://www.w3.org/2000/svg" xmlns:xlink="http://www.w3.org/1999/xlink" x="0px" y="0px"
	 width="50px" height="50px" viewBox="0 0 50 50" enable-background="new 0 0 50 50" xml:space="preserve">
<g>
	<g>
		<path d="M35.443,12.496C35.314,11.3,35.857,3.85,24.36,2.202C12.859,0.555,11.331,8.47,11.194,9.654
			C11.194,9.654,20.912,7.857,35.443,12.496z"/>
		<path d="M22.128,21.219c1.558,0.144,2.931,0.107,4.154-0.054c0.87-1.105,2.026-2.242,3.571-3.385
			c1.918-1.419,3.644-2.301,5.187-2.811c0.276-0.721,0.332-1.206,0.256-1.205c-14.906,0.391-24.252-2.841-24.252-2.841
			C10.904,12.109,10.559,20.164,22.128,21.219z"/>
		<path d="M30.807,29.025c3.065-2.969,8.079-7.051,15.441-10.795c-0.934-0.761-5.781-6.441-15.121,0.47
			c-2.822,2.09-4.378,4.161-5.163,6.06C28.439,25.893,29.913,27.498,30.807,29.025z"/>
		<path d="M26.561,32.604"/>
		<path d="M32.346,34.811c0.113-0.021,0.127,0.927-0.293,2.275c2.577,0.764,6.247,0.498,10.856-3.293
			c8.97-7.381,4.347-14.785,4.125-14.554C41.04,25.483,35.531,29.53,31.951,31.836c0.182,0.674,0.264,1.193,0.333,1.453"/>
	</g>
	<g>
		<path d="M1.782,38.662c0,0,10.173-5.896,28.317-6.496c-0.623-1.291-2.99-9.859-16.537-7.113
			C0.017,27.799,1.464,37.279,1.782,38.662z"/>
		<path d="M2.123,40.146c0,0,11.769-0.109,28.316-6.496c0.355-0.138,1.608,10.172-11.778,13.606
			C5.269,50.693,2.439,41.527,2.123,40.146z"/>
	</g>
</g>
</svg>
