<?xml version="1.0" encoding="utf-8"?>
<!-- Generator: Adobe Illustrator 16.0.0, SVG Export Plug-In . SVG Version: 6.00 Build 0)  -->
<!DOCTYPE svg PUBLIC "-//W3C//DTD SVG 1.1//EN" "http://www.w3.org/Graphics/SVG/1.1/DTD/svg11.dtd">
<svg version="1.1" id="Layer_1" xmlns="http://www.w3.org/2000/svg" xmlns:xlink="http://www.w3.org/1999/xlink" x="0px" y="0px"
	 width="50px" height="50px" viewBox="0 0 50 50" enable-background="new 0 0 50 50" xml:space="preserve">
<g>
	<rect x="10" y="1" width="10" height="10"/>
	<rect x="30" y="1" width="10" height="10"/>
	<rect x="3" y="40" width="10" height="9"/>
	<rect x="37" y="40" width="10" height="9"/>
	<rect x="22" y="13" width="5" height="14"/>
	<rect x="22" y="33" width="5" height="4"/>
	<g>
		<polygon points="18,27 20,27 20,13 5.292,13 2.735,39 20,39 20,34 18,34 		"/>
		<polygon points="30,13 30,27 32,27 32,34 30,34 30,38 47.266,38 44.708,13 		"/>
	</g>
	<rect x="19" y="28" width="12" height="4"/>
</g>
</svg>
