<?xml version="1.0" encoding="utf-8"?>
<!-- Generator: Adobe Illustrator 16.0.0, SVG Export Plug-In . SVG Version: 6.00 Build 0)  -->
<!DOCTYPE svg PUBLIC "-//W3C//DTD SVG 1.1//EN" "http://www.w3.org/Graphics/SVG/1.1/DTD/svg11.dtd">
<svg version="1.1" id="Layer_1" xmlns="http://www.w3.org/2000/svg" xmlns:xlink="http://www.w3.org/1999/xlink" x="0px" y="0px"
	 width="50px" height="50px" viewBox="0 0 50 50" enable-background="new 0 0 50 50" xml:space="preserve">
<g>
	<g>
		<rect x="10" y="31" width="30" height="3"/>
	</g>
	<path d="M38,3H26V1h-3v2H11v30h8.413l-4.728,13.014l2.523-0.145l2.385-6.811L23,43.289V49h3v-5.593l3.061-4.382l2.274,6.854
		l2.446,0.242L28.924,33H38V3z M23,33v5h-2.678l1.563-5H23z M20.196,38H23v3.643L20.196,38z M26,41.723V38h2.182L26,41.723z
		 M28.016,38H26v-5h0.451L28.016,38z M36,31H13V5h23V31z"/>
</g>
</svg>
