<?xml version="1.0" encoding="utf-8"?>
<!-- Generator: Adobe Illustrator 16.0.0, SVG Export Plug-In . SVG Version: 6.00 Build 0)  -->
<!DOCTYPE svg PUBLIC "-//W3C//DTD SVG 1.1//EN" "http://www.w3.org/Graphics/SVG/1.1/DTD/svg11.dtd">
<svg version="1.1" id="Layer_1" xmlns="http://www.w3.org/2000/svg" xmlns:xlink="http://www.w3.org/1999/xlink" x="0px" y="0px"
	 width="50px" height="50px" viewBox="0 0 50 50" enable-background="new 0 0 50 50" xml:space="preserve">
<g>
	<path d="M38.2,1.466H11.803c-6.103,0-11.05,4.752-11.05,10.616v25.835c0,5.86,4.947,10.617,11.05,10.617H38.2
		c6.102,0,11.047-4.757,11.047-10.617V12.082C49.247,6.218,44.302,1.466,38.2,1.466z M15.426,38.475
		c-2.15,0-3.896-1.777-3.896-3.976c0-2.188,1.745-3.979,3.896-3.979c2.157,0,3.903,1.791,3.903,3.979
		C19.329,36.696,17.583,38.475,15.426,38.475z M24.347,38.254C25.31,33.021,20.045,24.7,11.778,25v-6.019
		c10.345,0.141,18.738,8.707,18.879,19.272L24.347,38.254L24.347,38.254z M34.55,38.254c-0.142-13.31-9.999-22.751-23.02-22.887
		l0.26-6.583c15.853,0.139,28.722,13.283,28.858,29.47H34.55z"/>
</g>
</svg>
