<?xml version="1.0" encoding="utf-8"?>
<!-- Generator: Adobe Illustrator 16.0.0, SVG Export Plug-In . SVG Version: 6.00 Build 0)  -->
<!DOCTYPE svg PUBLIC "-//W3C//DTD SVG 1.1//EN" "http://www.w3.org/Graphics/SVG/1.1/DTD/svg11.dtd">
<svg version="1.1" id="Layer_1" xmlns="http://www.w3.org/2000/svg" xmlns:xlink="http://www.w3.org/1999/xlink" x="0px" y="0px"
	 width="50px" height="50px" viewBox="0 0 50 50" enable-background="new 0 0 50 50" xml:space="preserve">
<g>
	<ellipse cx="21.244" cy="9.69" rx="1.37" ry="1.446"/>
	<ellipse cx="28.721" cy="9.69" rx="1.369" ry="1.446"/>
	<path d="M5.288,45.011c0.014,0.044,0.022,0.071,0.022,0.071C5.303,45.059,5.296,45.035,5.288,45.011z"/>
	<path d="M32.016,10.881c1.332-1.191,2.086-3.078,1.844-5.097c-0.293-2.452-1.965-4.371-4.057-4.942
		c1.738,0.777,3.063,2.522,3.319,4.678c0.276,2.299-0.739,4.426-2.433,5.549c-0.987,0.168-1.722,0.355-2.074,0.453
		c-0.002-0.003-0.002-0.006-0.004-0.008c-0.131,0.045-0.271,0.076-0.416,0.076c-0.719,0-1.301-0.586-1.358-1.328
		c-0.019,0-0.036-0.002-0.055-0.002h-3.801c-0.057,0.743-0.64,1.33-1.358,1.33c0,0-0.996-0.311-2.537-0.559
		c-1.661-1.132-2.652-3.236-2.378-5.512c0.258-2.155,1.581-3.9,3.319-4.678c-2.092,0.571-3.764,2.49-4.057,4.942
		c-0.241,2.007,0.502,3.882,1.819,5.074c-7.566-0.802-22.833,1.237-12.502,34.152C4.765,43.279-5.845,7.248,20.909,12.246v3.887
		c0,0.008,0.001,0.016,0.001,0.025h-0.504c-1.691,0-3.144,1.024-3.771,2.486c-0.555-0.046-1.127-0.02-1.706,0.094
		c-3.119,0.606-5.193,3.429-4.634,6.299c0.178,0.908,0.599,1.714,1.19,2.37c-0.34-0.521-0.587-1.11-0.711-1.751
		c-0.561-2.869,1.515-5.689,4.634-6.298c0.345-0.067,0.688-0.103,1.027-0.112c-0.082,0.325-0.131,0.664-0.131,1.014v11.797
		c-0.706,0.539-1.362,1.172-1.938,1.911c-3.321,4.259-2.836,10.19,1.084,13.246c1.242,0.97,2.681,1.53,4.17,1.713
		c-1.019-0.288-1.992-0.769-2.867-1.45C12.835,44.42,12.35,38.49,15.67,34.23c0.202-0.261,0.415-0.5,0.634-0.734v0.326
		c0,1.994,6.605,8.139,8.185,9.578V30.327c0.04,0.005,0.081,0.005,0.122,0.011c-0.04-0.012-0.082-0.02-0.122-0.029V18.59
		c0-0.188,0.152-0.338,0.339-0.338c0.188,0,0.34,0.15,0.34,0.338V43.4c1.578-1.439,8.186-7.584,8.186-9.578V33
		c1.979,2.256,2.865,5.547,2.092,8.871c-0.838,3.594-3.397,6.295-6.479,7.287c3.643-0.577,6.82-3.512,7.772-7.598
		c0.927-3.979-0.527-7.912-3.388-10.078V20.26c0-0.478-0.086-0.934-0.234-1.361c2.029-0.055,4.083,1.103,5.18,3.143
		c1.027,1.912,0.947,4.101-0.025,5.735c1.383-1.67,1.646-4.201,0.479-6.376c-1.225-2.275-3.639-3.459-5.882-3.079
		c-0.691-1.288-2.052-2.163-3.615-2.163h-0.504c0-0.01,0.001-0.018,0.001-0.025V12.31c27.191-5.373,16.49,30.965,15.964,32.702
		C55.133,11.811,39.509,10.023,32.016,10.881z"/>
	<path d="M44.711,45.011c-0.007,0.024-0.014,0.048-0.021,0.071C44.689,45.082,44.698,45.055,44.711,45.011z"/>
</g>
</svg>
