<?xml version="1.0" encoding="utf-8"?>
<!-- Generator: Adobe Illustrator 16.0.0, SVG Export Plug-In . SVG Version: 6.00 Build 0)  -->
<!DOCTYPE svg PUBLIC "-//W3C//DTD SVG 1.1//EN" "http://www.w3.org/Graphics/SVG/1.1/DTD/svg11.dtd">
<svg version="1.1" id="Layer_1" xmlns="http://www.w3.org/2000/svg" xmlns:xlink="http://www.w3.org/1999/xlink" x="0px" y="0px"
	 width="50px" height="50px" viewBox="0 0 50 50" enable-background="new 0 0 50 50" xml:space="preserve">
<g>
	<path d="M36.389,6.409c-1.563-1.604-3.307-2.836-5.244-3.633c-1.842-0.854-3.922-1.281-6.143-1.281
		c-2.551,0.094-4.629,0.566-6.331,1.371c-1.797,0.852-3.493,2.125-5.006,3.828c-1.514,1.607-2.599,3.258-3.259,5.102
		c-0.807,2.125-1.186,4.018-1.186,5.717c0.098,1.652,0.616,3.355,1.607,5.057c0.947,1.84,2.126,3.635,3.639,5.432
		c0.943,1.229,1.605,2.08,2.031,2.551c1.274,1.795,4.821,5.195,3.542,7.51c-0.757,0.381-1.179,0.898-1.273,1.519
		c0.095,0.563,0.517,1.08,1.273,1.508c-0.757,0.332-1.179,0.854-1.273,1.513c0,0.475,0.423,0.942,1.273,1.418
		c-0.851,0.475-1.273,0.896-1.273,1.274c0.095,0.613,0.517,0.996,1.273,1.181c0,0.713,0.428,1.186,1.372,1.418
		c0.708,0.334,1.842,0.521,3.449,0.614c1.604-0.094,2.833-0.28,3.588-0.614c0.946-0.281,1.418-0.755,1.418-1.418
		c0.661-0.185,1.038-0.566,1.038-1.181c0-0.473-0.377-0.896-1.038-1.274c0.661-0.476,1.038-0.943,1.038-1.418
		c0-0.617-0.377-1.181-1.038-1.609c0.661-0.422,1.038-0.895,1.038-1.41c0-0.57-0.377-1.137-1.038-1.705
		c-1.322-2.311,1.936-5.621,3.399-7.225c0.285-0.381,0.617-0.81,1.041-1.277c0.377-0.426,0.756-0.854,1.086-1.322
		c1.563-1.75,2.836-3.547,3.781-5.389c0.99-1.652,1.514-3.354,1.604-5.148v-0.662c0-1.793-0.373-3.639-1.133-5.576
		C38.893,9.624,37.803,8.017,36.389,6.409z M39.268,18.267c-0.092,1.609-0.613,3.168-1.465,4.633
		c-0.846,1.654-1.984,3.258-3.447,4.868c-0.28,0.422-0.614,0.799-0.942,1.18c-0.379,0.426-0.66,0.803-0.947,1.135
		c-1.237,1.369-4.209,5.346-3.618,7.553h0.854v0.771h-0.359c0.439,0.434,0.812,0.709,0.812,1.122c0,0.294-0.441,0.689-0.916,1.033
		h0.42v0.771h-0.527c0.545,0.334,1.115,0.705,1.115,1.123c0,0.305-0.477,0.775-0.973,1.156h0.406v0.771h-0.42
		c0.361,0.238,0.656,0.482,0.752,0.767c0.188,0.522-0.568,0.711-1.184,0.854h0.688v0.531h-0.705
		c-0.043,0.348-0.196,0.58-0.787,0.742c-1.649,0.664-4.438,0.664-6.189,0c-0.63-0.178-0.843-0.379-0.91-0.742H20.11v-0.531h0.453
		c-0.47-0.152-0.777-0.387-0.852-0.854c0-0.26,0.395-0.5,0.887-0.767H20.27v-0.772h0.363c-0.546-0.389-1.017-0.848-1.017-1.155
		c0.073-0.437,0.599-0.813,1.141-1.123H20.25v-0.771h0.208c-0.42-0.332-0.782-0.705-0.842-1.033c0.078-0.43,0.489-0.797,1.005-1.123
		h-0.327v-0.771h0.824c0.359-2.239-2.735-6.131-3.817-7.604c-0.333-0.427-0.944-1.229-1.793-2.359
		c-1.374-1.559-2.46-3.215-3.31-4.865c-0.851-1.561-1.371-3.072-1.417-4.539c0-1.557,0.328-3.26,1.038-5.195
		c0.615-1.652,1.562-3.166,2.927-4.586c1.374-1.557,2.886-2.689,4.586-3.445c1.465-0.754,3.354-1.182,5.669-1.275
		c2.032,0,3.874,0.377,5.575,1.18c1.748,0.709,3.309,1.848,4.727,3.262c1.225,1.465,2.221,2.928,2.928,4.395
		c0.662,1.748,1.037,3.447,1.037,5.055V18.267z"/>
	<path d="M21.222,41.087c-0.148,0.076-0.307,0.158-0.465,0.244h8.372c-0.191-0.113-0.379-0.229-0.535-0.342
		c0.193-0.117,0.422-0.271,0.643-0.431h-8.777C20.711,40.759,20.975,40.946,21.222,41.087z"/>
	<path d="M29.129,41.331h0.527v-0.771h-0.42c-0.221,0.159-0.449,0.313-0.644,0.43C28.75,41.104,28.938,41.218,29.129,41.331z"/>
	<path d="M20.458,40.561H20.25v0.771h0.507c0.158-0.086,0.316-0.168,0.465-0.244C20.975,40.946,20.711,40.759,20.458,40.561z"/>
	<path d="M21.269,44.018c-0.229,0.129-0.458,0.245-0.671,0.364h8.662c-0.18-0.123-0.369-0.244-0.572-0.364
		c0.179-0.111,0.381-0.252,0.584-0.406h-8.638C20.841,43.759,21.059,43.896,21.269,44.018z"/>
	<path d="M20.633,43.609H20.27v0.771h0.328c0.213-0.119,0.441-0.236,0.671-0.365C21.059,43.896,20.841,43.759,20.633,43.609z"/>
	<path d="M29.26,44.382h0.418v-0.772h-0.406c-0.203,0.154-0.405,0.296-0.584,0.406C28.891,44.138,29.08,44.259,29.26,44.382z"/>
	<path d="M20.937,38.202c-0.111,0.065-0.214,0.131-0.315,0.2h8.72c-0.105-0.104-0.215-0.211-0.326-0.342
		c-0.074-0.133-0.131-0.276-0.17-0.428h-7.727C21.085,37.837,21.035,38.032,20.937,38.202z"/>
	<path d="M21.119,37.634h-0.824v0.771h0.327c0.102-0.07,0.204-0.135,0.315-0.201C21.035,38.032,21.085,37.837,21.119,37.634z"/>
	<path d="M29.342,38.402h0.359v-0.77h-0.855c0.039,0.15,0.096,0.295,0.17,0.428C29.127,38.191,29.236,38.3,29.342,38.402z"/>
	<path d="M20.891,46.098c0,0.17,0.007,0.313,0.032,0.436h7.888c0.02-0.154,0.018-0.324,0.018-0.531h-8.265
		C20.667,46.036,20.77,46.068,20.891,46.098z"/>
	<path d="M28.811,46.532h0.705v-0.531h-0.688C28.828,46.208,28.83,46.378,28.811,46.532z"/>
	<path d="M20.563,46.001H20.11v0.531h0.813c-0.025-0.123-0.032-0.267-0.032-0.437C20.77,46.068,20.667,46.036,20.563,46.001z"/>
</g>
</svg>
