<?xml version="1.0" encoding="utf-8"?>
<!-- Generator: Adobe Illustrator 16.0.0, SVG Export Plug-In . SVG Version: 6.00 Build 0)  -->
<!DOCTYPE svg PUBLIC "-//W3C//DTD SVG 1.1//EN" "http://www.w3.org/Graphics/SVG/1.1/DTD/svg11.dtd">
<svg version="1.1" id="Layer_1" xmlns="http://www.w3.org/2000/svg" xmlns:xlink="http://www.w3.org/1999/xlink" x="0px" y="0px"
	 width="50px" height="50px" viewBox="0 0 50 50" enable-background="new 0 0 50 50" xml:space="preserve">
<g>
	<path d="M37.175,1.228H12.824c-2.624,0-4.749,2.065-4.749,4.61v38.323c0,2.547,2.125,4.61,4.749,4.61h24.351
		c2.621,0,4.75-2.063,4.75-4.61V5.838C41.925,3.293,39.796,1.228,37.175,1.228z M13.99,24.702v-4.346h4.105v4.346H13.99z
		 M14.029,26.477h4.107v4.349h-4.107V26.477z M14.311,32.479h4.105v4.345h-4.105V32.479z M18.657,43.475H14.55v-4.347h4.107V43.475z
		 M20.14,24.702v-4.346h4.103v4.346H20.14z M20.178,26.477h4.104v4.349h-4.104V26.477z M20.459,32.479h4.106v4.345h-4.106V32.479z
		 M24.804,43.475H20.7v-4.347h4.104V43.475z M26.285,24.702v-4.346h4.104v4.346H26.285z M26.325,26.477h4.104v4.349h-4.104V26.477z
		 M26.605,32.479h4.104v4.345h-4.104V32.479z M30.952,43.475h-4.104v-4.347h4.104V43.475z M32.434,24.702v-4.346h4.105v4.346H32.434
		z M32.473,26.477h4.104v4.349h-4.104V26.477z M36.857,43.823h-4.104V32.479h4.104V43.823z M34.657,14.588H14.856
		c-1.537,0-2.778-1.514-2.778-3.382c0-1.866,1.241-3.38,2.778-3.38h19.801c1.534,0,2.776,1.514,2.776,3.38
		C37.436,13.074,36.191,14.588,34.657,14.588z"/>
</g>
</svg>
