<?xml version="1.0" encoding="utf-8"?>
<!-- Generator: Adobe Illustrator 16.1.0, SVG Export Plug-In . SVG Version: 6.00 Build 0)  -->
<!DOCTYPE svg PUBLIC "-//W3C//DTD SVG 1.1//EN" "http://www.w3.org/Graphics/SVG/1.1/DTD/svg11.dtd">
<svg version="1.1" id="Layer_1" xmlns="http://www.w3.org/2000/svg" xmlns:xlink="http://www.w3.org/1999/xlink" x="0px" y="0px"
	 width="120px" height="120px" viewBox="0 0 512 512" enable-background="new 0 0 512 512" xml:space="preserve">

		<path fill-rule="evenodd" clip-rule="evenodd" d="M448,32v64h-96V32H160v64H64V32H0v480h512V32H448z M160,480H32v-96h128V480z
			 M160,352H32v-96.016h128V352z M160,223.984H32V128h128V223.984z M320,480H192v-96h128V480z M320,352H192v-96.016h128V352z
			 M320,223.984H192V128h128V223.984z M480,480H352v-96h128V480z M480,352H352v-96.016h128V352z M480,223.984H352V128h128V223.984z
			 M128,0H96v64h32V0z M416,0h-32v64h32V0z"/>
	</g>
</g>
</svg>
