<?xml version="1.0" encoding="utf-8"?>
<!-- Generator: Adobe Illustrator 16.0.0, SVG Export Plug-In . SVG Version: 6.00 Build 0)  -->
<!DOCTYPE svg PUBLIC "-//W3C//DTD SVG 1.1//EN" "http://www.w3.org/Graphics/SVG/1.1/DTD/svg11.dtd">
<svg version="1.1" id="Layer_1" xmlns="http://www.w3.org/2000/svg" xmlns:xlink="http://www.w3.org/1999/xlink" x="0px" y="0px"
	 width="50px" height="50px" viewBox="0 0 50 50" enable-background="new 0 0 50 50" xml:space="preserve">
<g>
	<g>
		<polygon points="21.934,35.501 4.446,35.501 5.446,36.501 5.446,13.79 4.446,14.79 24.308,14.79 24.308,12.79 4.446,12.79 
			3.446,12.79 3.446,13.79 3.446,36.501 3.446,37.501 4.446,37.501 21.934,37.501 		"/>
	</g>
	<g>
		<polygon points="36.18,14.79 45.555,14.79 44.555,13.79 44.555,36.501 45.555,35.501 38.027,35.501 38.027,37.501 45.555,37.501 
			46.555,37.501 46.555,36.501 46.555,13.79 46.555,12.79 45.555,12.79 36.18,12.79 		"/>
	</g>
	<g>
		<polygon points="13.206,33.053 13.206,10.626 13.206,9.626 12.206,9.626 6.457,9.626 5.457,9.626 5.457,10.626 5.457,14.159 
			7.457,14.159 7.457,10.626 6.457,11.626 12.206,11.626 11.206,10.626 11.206,33.053 		"/>
	</g>
	<g>
		<polygon points="22.383,20.54 26.441,11.915 25.537,12.49 35.173,12.49 34.247,11.871 37.802,20.495 39.65,19.733 36.098,11.109 
			35.842,10.49 35.173,10.49 25.537,10.49 24.902,10.49 24.632,11.064 20.573,19.688 		"/>
	</g>
	<g>
		<path d="M40.745,27.73c0,5.869-4.774,10.644-10.644,10.644c-5.87,0-10.646-4.772-10.646-10.644
			c0-5.866,4.775-10.642,10.646-10.642C35.971,17.09,40.745,21.864,40.745,27.73z M30.102,15.09
			c-6.973,0-12.645,5.671-12.645,12.643s5.672,12.643,12.645,12.643s12.645-5.671,12.645-12.643
			C42.745,20.761,37.073,15.09,30.102,15.09z"/>
	</g>
	<circle cx="30.031" cy="28.165" r="7.187"/>
</g>
</svg>
