<?xml version="1.0" encoding="utf-8"?>
<!-- Generator: Adobe Illustrator 16.0.0, SVG Export Plug-In . SVG Version: 6.00 Build 0)  -->
<!DOCTYPE svg PUBLIC "-//W3C//DTD SVG 1.1//EN" "http://www.w3.org/Graphics/SVG/1.1/DTD/svg11.dtd">
<svg version="1.1" id="Layer_1" xmlns="http://www.w3.org/2000/svg" xmlns:xlink="http://www.w3.org/1999/xlink" x="0px" y="0px"
	 width="50px" height="50px" viewBox="0 0 50 50" enable-background="new 0 0 50 50" xml:space="preserve">
<g>
	<polygon points="20.46,15.474 12.911,15.682 14.848,8.948 18.766,9.08 	"/>
	<g>
		<path d="M42.896,22.356v-0.564c0,0-0.197-0.002-0.527-0.006C42.55,21.944,42.727,22.132,42.896,22.356z"/>
		<path d="M37.609,30.163c0-3.896,1.01-7.199,2.416-8.398c-2.758-0.02-6.571-0.039-7.004,0.027c-5.033,7.582,0,16.877,0,16.877
			h7.129C38.684,37.566,37.609,34.177,37.609,30.163z"/>
		<path d="M42.896,37.966c-0.217,0.291-0.442,0.525-0.679,0.703h0.679V37.966z"/>
	</g>
	<g>
		<path d="M45.604,30.112c0,4.594-1.506,7.795-2.854,7.795c-1.353,0-2.858-3.201-2.858-7.796c0-4.594,1.506-7.794,2.858-7.794
			C44.098,22.317,45.604,25.52,45.604,30.112z M42.748,21.317c-2.2,0-3.859,3.781-3.859,8.795c0,5.014,1.659,8.795,3.859,8.795
			c2.197,0,3.854-3.781,3.854-8.796C46.602,25.098,44.945,21.317,42.748,21.317z"/>
	</g>
	<path d="M43.092,35.298c-0.994,0-2.07-2.268-2.178-5.024c-0.117-3.084,1.184-4.963,2.178-4.963
		C41.506,27.702,42.139,33.079,43.092,35.298z"/>
	<path d="M31.734,38.554h-9.874c0,0-4.619-7.909,0-16.879c0.696,0.014,3.931-0.045,9.874,0
		C27.121,30.011,31.734,38.554,31.734,38.554z"/>
	<g>
		<path d="M19.81,13.125l-13.575-0.04L3.626,16.39h17.082C19.939,13.257,19.81,13.125,19.81,13.125z"/>
		<path d="M16.674,40.946h4.034v-2.386c0,0-4.735-8.496,0-16.987c0-1.568,0-2.841,0-3.883h-4.034V40.946z"/>
		<rect x="3.423" y="17.69" width="11.946" height="23.256"/>
		<line x1="3.397" y1="17.69" x2="3.423" y2="17.69"/>
		<line x1="20.708" y1="17.69" x2="20.818" y2="17.69"/>
		<line x1="20.818" y1="16.39" x2="20.708" y2="16.39"/>
		<line x1="15.369" y1="40.946" x2="15.369" y2="41.052"/>
		<line x1="16.674" y1="41.052" x2="16.674" y2="40.946"/>
	</g>
</g>
</svg>
