<?xml version="1.0" encoding="utf-8"?>
<!-- Generator: Adobe Illustrator 16.0.0, SVG Export Plug-In . SVG Version: 6.00 Build 0)  -->
<!DOCTYPE svg PUBLIC "-//W3C//DTD SVG 1.1//EN" "http://www.w3.org/Graphics/SVG/1.1/DTD/svg11.dtd">
<svg version="1.1" id="Layer_1" xmlns="http://www.w3.org/2000/svg" xmlns:xlink="http://www.w3.org/1999/xlink" x="0px" y="0px"
	 width="50px" height="50px" viewBox="0 0 50 50" enable-background="new 0 0 50 50" xml:space="preserve">
<g>
	<path d="M3.327,24.025c-0.506,0-0.914,0.469-0.938,1.055c0.465-0.314,1.016-0.539,1.614-0.721
		C3.833,24.156,3.592,24.025,3.327,24.025z"/>
	<path d="M28.811,30.744c-1.487,0-2.696,1.164-2.696,2.592c0,1.43,1.209,2.592,2.696,2.592c1.498,0,2.715-1.162,2.715-2.592
		C31.523,31.908,30.309,30.744,28.811,30.744z M28.816,34.43c-0.627,0-1.133-0.494-1.133-1.094c0-0.609,0.506-1.096,1.133-1.096
		c0.629,0,1.139,0.486,1.139,1.096C29.955,33.936,29.445,34.43,28.816,34.43z"/>
	<path d="M8.723,30.988c-1.485,0-2.695,1.164-2.695,2.592c0,1.43,1.21,2.592,2.695,2.592c0.732,0,1.417-0.271,1.929-0.768
		c0.508-0.49,0.788-1.135,0.788-1.824c0-0.691-0.279-1.34-0.786-1.826C10.143,31.26,9.458,30.988,8.723,30.988z M8.729,34.674
		c-0.625,0-1.131-0.492-1.131-1.094c0-0.605,0.506-1.092,1.131-1.092c0.631,0,1.138,0.486,1.138,1.092
		C9.867,34.182,9.36,34.674,8.729,34.674z"/>
	<path d="M8.723,29.965c-2.053,0-3.721,1.621-3.721,3.615c0,1.996,1.668,3.619,3.721,3.619c0.998,0,1.938-0.375,2.642-1.059
		c0.709-0.683,1.101-1.593,1.101-2.562c0-0.976-0.392-1.886-1.101-2.568C10.66,30.34,9.722,29.965,8.723,29.965z M10.651,35.404
		c-0.512,0.496-1.196,0.768-1.929,0.768c-1.485,0-2.695-1.162-2.695-2.592c0-1.428,1.21-2.592,2.695-2.592
		c0.735,0,1.42,0.271,1.931,0.766c0.507,0.486,0.786,1.135,0.786,1.826C11.439,34.27,11.159,34.914,10.651,35.404z"/>
	<path d="M8.729,32.488c-0.625,0-1.131,0.486-1.131,1.092c0,0.602,0.506,1.094,1.131,1.094c0.631,0,1.138-0.492,1.138-1.094
		C9.867,32.975,9.36,32.488,8.729,32.488z"/>
	<rect x="39.749" y="25.949" width="5.683" height="0.846"/>
	<rect x="39.684" y="31.156" width="5.685" height="0.846"/>
	<rect x="39.684" y="28.379" width="9.588" height="0.977"/>
	<path d="M28.811,29.719c-2.053,0-3.724,1.623-3.724,3.617c0,1.992,1.671,3.615,3.724,3.615c2.062,0,3.739-1.623,3.739-3.615
		C32.55,31.342,30.871,29.719,28.811,29.719z M28.811,35.928c-1.487,0-2.696-1.162-2.696-2.592c0-1.428,1.209-2.592,2.696-2.592
		c1.498,0,2.715,1.164,2.715,2.592C31.523,34.766,30.309,35.928,28.811,35.928z"/>
	<path d="M28.816,32.24c-0.627,0-1.133,0.486-1.133,1.096c0,0.6,0.506,1.094,1.133,1.094c0.629,0,1.139-0.494,1.139-1.094
		C29.955,32.727,29.445,32.24,28.816,32.24z"/>
	<path d="M19.516,15.359v8.287c0.453,0,0.906,0,1.359,0v-8.363C20.405,15.285,19.955,15.314,19.516,15.359z"/>
	<path d="M20.875,14.805h-1.359v0.555c0.439-0.045,0.89-0.074,1.359-0.076V14.805z"/>
	<path d="M19.516,24.578h1.359v-0.932c-0.453,0-0.906,0-1.359,0V24.578z"/>
	<path d="M2.39,25.08c0.023-0.586,0.432-1.055,0.938-1.055c0.265,0,0.506,0.131,0.677,0.334c0.337-0.104,0.694-0.184,1.063-0.254
		c-0.342-0.664-0.987-1.121-1.739-1.121c-1.096,0-1.987,0.961-1.987,2.143c0,0.285,0.055,0.561,0.149,0.809
		C1.743,25.605,2.04,25.314,2.39,25.08z"/>
	<path d="M3.327,27.27c1.098,0,1.987-0.961,1.987-2.143c0-0.373-0.097-0.717-0.248-1.021c-0.368,0.07-0.726,0.15-1.063,0.254
		c0.167,0.197,0.271,0.467,0.271,0.768c0,0.604-0.423,1.103-0.947,1.103c-0.521,0-0.946-0.496-0.946-1.103
		c0-0.018,0.008-0.031,0.009-0.047c-0.35,0.234-0.646,0.524-0.9,0.854C1.788,26.719,2.497,27.27,3.327,27.27z"/>
	<path d="M38.291,24.936c-0.275,0.262-0.658,0.422-1.076,0.422c-0.847,0-1.531-0.648-1.531-1.449c0-0.66,0.469-1.213,1.111-1.385
		c-0.835-0.781-1.949-1.258-3.378-1.24c1.299-3.752-0.546-6.4-5.558-7.92c-3.21-0.648-6.401-0.846-9.589,0
		c-5.597,0.955-9.35,4.275-10.846,10.438c-0.818,0.068-1.614,0.162-2.358,0.305c0.151,0.305,0.248,0.648,0.248,1.021
		c0,1.183-0.89,2.144-1.987,2.144c-0.83,0-1.539-0.552-1.838-1.334c-0.06,0.078-0.13,0.146-0.186,0.229
		c-0.253,0.562-0.433,1.097-0.575,1.619h1.477v3.625H0.758c0.44,1.215,1.342,2.254,2.76,3.086h0.588
		c-0.023-0.152-0.023-0.326-0.023-0.479c0-2.885,2.128-5.227,4.754-5.227c2.645,0,4.771,2.342,4.771,5.227
		c0,0.152,0,0.326-0.021,0.479h0.498h9.957c0-0.152-0.02-0.326-0.02-0.479c0-2.885,2.146-5.227,4.771-5.227s4.752,2.342,4.752,5.227
		c0,0.152,0,0.326-0.021,0.479h0.998C37.966,34.596,39.643,28.879,38.291,24.936z M27.859,23.646c-2.33,0-4.656,0-6.984,0v0.932
		h-1.359v-0.932c-2.967,0-5.935,0-8.903,0c1.353-5.051,4.318-7.82,8.903-8.287v-0.555h1.359v0.479c0.374,0,0.756,0.01,1.148,0.035
		C26.475,15.578,28.511,18.639,27.859,23.646z"/>
</g>
</svg>
