<?xml version="1.0" encoding="utf-8"?>
<!-- Generator: Adobe Illustrator 16.0.0, SVG Export Plug-In . SVG Version: 6.00 Build 0)  -->
<!DOCTYPE svg PUBLIC "-//W3C//DTD SVG 1.1//EN" "http://www.w3.org/Graphics/SVG/1.1/DTD/svg11.dtd">
<svg version="1.1" id="Layer_1" xmlns="http://www.w3.org/2000/svg" xmlns:xlink="http://www.w3.org/1999/xlink" x="0px" y="0px"
	 width="50px" height="50px" viewBox="0 0 50 50" enable-background="new 0 0 50 50" xml:space="preserve">
<g>
	<path d="M14.791,2.482h20.413c2.651,0,4.834,2.338,4.834,5.142v34.907c0,2.805-2.183,4.986-4.834,4.986H14.791
		c-2.648,0-4.828-2.183-4.828-4.986V7.624C9.962,4.82,12.142,2.482,14.791,2.482L14.791,2.482z M21.181,40.971v2.648h7.637v-2.648
		H21.181L21.181,40.971z M16.662,5.13c-2.18,0-3.894,1.718-3.894,3.585v24.932c0,2.024,1.714,3.584,3.894,3.584h16.674
		c2.182,0,3.896-1.56,3.896-3.584V8.715c0-1.867-1.715-3.585-3.896-3.585H16.662z"/>
</g>
</svg>
