<?xml version="1.0" encoding="utf-8"?>
<!-- Generator: Adobe Illustrator 16.0.0, SVG Export Plug-In . SVG Version: 6.00 Build 0)  -->
<!DOCTYPE svg PUBLIC "-//W3C//DTD SVG 1.1//EN" "http://www.w3.org/Graphics/SVG/1.1/DTD/svg11.dtd">
<svg version="1.1" id="Layer_1" xmlns="http://www.w3.org/2000/svg" xmlns:xlink="http://www.w3.org/1999/xlink" x="0px" y="0px"
	 width="50px" height="50px" viewBox="0 0 50 50" enable-background="new 0 0 50 50" xml:space="preserve">
<g>
	<path d="M46.473,7.165c-1.906-1.886-4.172-2.84-6.785-2.84H10.312c-2.623,0-4.889,0.954-6.795,2.84
		c-1.897,1.898-2.855,4.141-2.855,6.762v11.309c0,2.673,0.958,4.95,2.855,6.855c1.906,1.898,4.172,2.841,6.795,2.841h0.464
		c0.295,3.188,1.159,5.743,2.592,7.65c1.42,1.919,3.687,2.945,6.774,3.093c-1.138-1.979-1.8-3.751-1.982-5.336
		c-0.178-1.58,0.223-3.375,1.192-5.407h20.335c2.612,0,4.879-0.941,6.785-2.841c1.905-1.905,2.866-4.183,2.866-6.855V13.927
		C49.34,11.306,48.379,9.063,46.473,7.165z"/>
</g>
</svg>
