<?xml version="1.0" encoding="utf-8"?>
<!-- Generator: Adobe Illustrator 16.0.0, SVG Export Plug-In . SVG Version: 6.00 Build 0)  -->
<!DOCTYPE svg PUBLIC "-//W3C//DTD SVG 1.1//EN" "http://www.w3.org/Graphics/SVG/1.1/DTD/svg11.dtd">
<svg version="1.1" id="Layer_1" xmlns="http://www.w3.org/2000/svg" xmlns:xlink="http://www.w3.org/1999/xlink" x="0px" y="0px"
	 width="50px" height="50px" viewBox="0 0 50 50" enable-background="new 0 0 50 50" xml:space="preserve">
<g>
	<g>
		<path d="M1373.594,1684h-14.897c-1.513,0-2.695,1.045-2.695,2.563v8.625c0,1.513,1.185,2.813,2.695,2.813h2.067l-2.846,6.896
			l8.635-6.896h7.041c1.515,0,2.406-1.301,2.406-2.813v-8.625C1376,1685.045,1375.107,1684,1373.594,1684z"/>
	</g>
	<path d="M1328.664,1724.442c0,0,4.963,7.524,15.066,7.352c6.516-0.194,15.754-3.069,18.225-12.571c0,0,2.654,0.449,4.541-1.619
		c-2.574,0.357-4.281-0.447-4.281-0.447s3.361-0.098,4.107-2.087c-1.992,0.864-4.453,0.129-4.453,0.129s-1.162-7.113-8.23-7.373
		c0,0,3.779-0.769,3.188-1.641c-0.478-0.632-3.103,0.546-3.103,0.546s1.465-0.646,1.435-1.332c-1.482,0.168-2.845,1.267-2.845,1.267
		s0.414-0.663,0.423-0.943c-3.531,1.959-5.935,9.277-5.935,9.277s-0.895-0.993-2.383-2.074c-3.6-2.115-10.236-4.626-10.236-4.626
		s-0.442,2.737,3.099,4.743c-1.451,0.115-2.179,0.304-2.179,0.304s0,2.908,4.22,3.856c-1.959,0.067-2.601,1.041-2.601,1.041
		s1.103,2.597,4.574,2.387c-2.824,1.453-0.996,3.445,1.314,3.232C1335.186,1730.507,1328.664,1724.442,1328.664,1724.442"/>
</g>
<g>
	<path d="M49.977,49.714l-16.582-6.012c-2.859,1.299-5.884,1.956-9,1.956c-12.076,0-21.9-9.824-21.9-21.9
		c0-12.075,9.824-21.899,21.9-21.899s21.901,9.824,21.901,21.899c0,4.922-1.668,9.687-4.722,13.551L49.977,49.714z M33.221,40.262
		l8.639,3.132l-4.277-6.315l0.817-0.923c3.044-3.438,4.72-7.84,4.72-12.397c0-10.324-8.4-18.724-18.725-18.724
		S5.67,13.434,5.67,23.758c0,10.325,8.399,18.725,18.724,18.725c2.853,0,5.62-0.647,8.221-1.924L33.221,40.262z"/>
</g>
</svg>
