<?xml version="1.0" encoding="utf-8"?>
<!-- Generator: Adobe Illustrator 16.0.0, SVG Export Plug-In . SVG Version: 6.00 Build 0)  -->
<!DOCTYPE svg PUBLIC "-//W3C//DTD SVG 1.1//EN" "http://www.w3.org/Graphics/SVG/1.1/DTD/svg11.dtd">
<svg version="1.1" id="Layer_1" xmlns="http://www.w3.org/2000/svg" xmlns:xlink="http://www.w3.org/1999/xlink" x="0px" y="0px"
	 width="50px" height="50px" viewBox="0 0 50 50" enable-background="new 0 0 50 50" xml:space="preserve">
<g>
	<g>
		<path d="M1373.594,1684h-14.897c-1.513,0-2.695,1.045-2.695,2.563v8.625c0,1.513,1.185,2.813,2.695,2.813h2.067l-2.846,6.896
			l8.635-6.896h7.041c1.515,0,2.406-1.301,2.406-2.813v-8.625C1376,1685.045,1375.107,1684,1373.594,1684z"/>
	</g>
	<path d="M1328.664,1724.442c0,0,4.963,7.524,15.066,7.352c6.516-0.194,15.754-3.069,18.225-12.571c0,0,2.654,0.449,4.541-1.619
		c-2.574,0.357-4.281-0.447-4.281-0.447s3.361-0.098,4.107-2.087c-1.992,0.864-4.453,0.129-4.453,0.129s-1.162-7.113-8.23-7.373
		c0,0,3.779-0.769,3.188-1.641c-0.478-0.632-3.103,0.546-3.103,0.546s1.465-0.646,1.435-1.332c-1.482,0.168-2.845,1.267-2.845,1.267
		s0.414-0.663,0.423-0.943c-3.531,1.959-5.935,9.277-5.935,9.277s-0.895-0.993-2.383-2.074c-3.6-2.115-10.236-4.626-10.236-4.626
		s-0.442,2.737,3.099,4.743c-1.451,0.115-2.179,0.304-2.179,0.304s0,2.908,4.22,3.856c-1.959,0.067-2.601,1.041-2.601,1.041
		s1.103,2.597,4.574,2.387c-2.824,1.453-0.996,3.445,1.314,3.232C1335.186,1730.507,1328.664,1724.442,1328.664,1724.442"/>
</g>
<g>
	<path d="M50.735,39.545l-13.568-4.917c-2.229,0.996-4.585,1.501-7.015,1.501v-3c2.182,0,4.295-0.494,6.28-1.47l0.572-0.281
		l6.064,2.198l-2.988-4.411l0.772-0.872c2.326-2.624,3.606-5.988,3.606-9.472c0-7.89-6.419-14.31-14.31-14.31
		c-7.889,0-14.307,6.419-14.307,14.31h-3c0-9.544,7.764-17.31,17.307-17.31c9.545,0,17.31,7.765,17.31,17.31
		c0,3.827-1.274,7.532-3.611,10.557L50.735,39.545z"/>
	<path d="M-0.736,49.974l6.049-8.932c-1.9-2.524-2.936-5.595-2.936-8.763c0-8.054,6.553-14.606,14.607-14.606
		c8.054,0,14.606,6.552,14.606,14.606c0,8.054-6.552,14.606-14.605,14.606c-2.018,0-3.975-0.411-5.828-1.225L-0.736,49.974z
		 M16.984,20.673c-6.4,0-11.607,5.207-11.607,11.606c0,2.826,1.039,5.556,2.926,7.685l0.772,0.872l-2.145,3.167l4.385-1.591
		l0.573,0.281c1.611,0.791,3.325,1.192,5.097,1.192c6.399,0,11.605-5.207,11.605-11.606S23.383,20.673,16.984,20.673z"/>
</g>
</svg>
