<?xml version="1.0" encoding="utf-8"?>
<!-- Generator: Adobe Illustrator 16.0.0, SVG Export Plug-In . SVG Version: 6.00 Build 0)  -->
<!DOCTYPE svg PUBLIC "-//W3C//DTD SVG 1.1//EN" "http://www.w3.org/Graphics/SVG/1.1/DTD/svg11.dtd">
<svg version="1.1" id="Layer_1" xmlns="http://www.w3.org/2000/svg" xmlns:xlink="http://www.w3.org/1999/xlink" x="0px" y="0px"
	 width="50px" height="50px" viewBox="0 0 50 50" enable-background="new 0 0 50 50" xml:space="preserve">
<g>
	<path d="M1102.049,4713.5c0,2.023-1.641,3.5-3.664,4.5h-35.563c-2.023-1-3.664-2.477-3.664-4.5l0,0c0-2.023,0.908-2.5,3.664-2.5
		h35.563C1101.066,4711,1102.049,4711.477,1102.049,4713.5L1102.049,4713.5z"/>
	<g>
		<polygon points="1089.553,4691.509 1067.758,4703.093 1066.301,4704.25 1064.561,4708 1074.031,4708 1092.254,4698.229 		"/>
		<polygon points="1080.604,4669.066 1076.229,4679.549 1083.279,4675.479 		"/>
		<polygon points="1085.066,4679.758 1073.307,4686.546 1072.582,4688.284 1068.891,4697.126 1087.768,4686.229 		"/>
		<polygon points="1096.646,4708.501 1094.041,4702.262 1083.232,4707.501 		"/>
	</g>
</g>
<g>
	<g>
		<g>
			<circle cx="21.222" cy="31.951" r="2.042"/>
			<circle cx="28.779" cy="31.951" r="2.043"/>
			<rect x="22" y="39" width="7" height="2"/>
		</g>
		<polygon points="37,25 14,25 14,16 16,16 16,23 35,23 35,16 37,16 		"/>
		<path d="M35.115,17.482c-1.82,0-3.581-0.567-5.059-1.613c-1.476,1.047-3.236,1.613-5.059,1.613c-1.821,0-3.581-0.566-5.057-1.613
			c-1.477,1.047-3.237,1.613-5.059,1.613c-4.838,0-8.774-3.937-8.774-8.775s3.936-8.775,8.774-8.775
			c1.822,0,3.583,0.566,5.059,1.612c1.476-1.046,3.235-1.612,5.057-1.612c1.823,0,3.583,0.566,5.059,1.612
			c1.478-1.046,3.237-1.612,5.059-1.612c4.838,0,8.774,3.937,8.774,8.775S39.953,17.482,35.115,17.482z M30.056,12.513l0.859,0.785
			c1.157,1.057,2.648,1.64,4.2,1.64c3.435,0,6.229-2.795,6.229-6.23s-2.795-6.23-6.229-6.23c-1.552,0-3.044,0.582-4.2,1.639
			L30.056,4.9l-0.858-0.785c-1.154-1.057-2.646-1.638-4.199-1.638c-1.552,0-3.043,0.582-4.197,1.638L19.942,4.9l-0.859-0.786
			c-1.155-1.056-2.647-1.638-4.2-1.638c-3.435,0-6.229,2.795-6.229,6.23s2.794,6.23,6.229,6.23c1.553,0,3.044-0.582,4.2-1.639
			l0.859-0.786l0.858,0.786c1.155,1.057,2.646,1.639,4.197,1.639c1.553,0,3.045-0.582,4.199-1.639L30.056,12.513z"/>
	</g>
	<g>
		<path d="M36.314,23h-3.043c1.983,2,3.211,6.063,3.211,9.961c0,6.846-9.162,11.889-11.479,13.064
			c-2.319-1.178-11.483-6.197-11.483-13.041c0-3.9,1.228-7.984,3.211-9.984H14v-0.302c-2,2.846-2.908,6.36-2.908,10.175
			c0,9.436,12.892,15.434,13.443,15.684l0.497,0.24l0.513-0.24c0.551-0.25,13.49-6.16,13.49-15.596
			C39.035,29.203,38.012,26,36.314,23z"/>
	</g>
</g>
</svg>
