<?xml version="1.0" encoding="utf-8"?>
<!-- Generator: Adobe Illustrator 16.0.0, SVG Export Plug-In . SVG Version: 6.00 Build 0)  -->
<!DOCTYPE svg PUBLIC "-//W3C//DTD SVG 1.1//EN" "http://www.w3.org/Graphics/SVG/1.1/DTD/svg11.dtd">
<svg version="1.1" id="Layer_1" xmlns="http://www.w3.org/2000/svg" xmlns:xlink="http://www.w3.org/1999/xlink" x="0px" y="0px"
	 width="50px" height="50px" viewBox="0 0 50 50" enable-background="new 0 0 50 50" xml:space="preserve">
<g>
	<g>
		<g>
			<rect x="15.246" y="23.013" transform="matrix(0.8121 0.5835 -0.5835 0.8121 18.7753 -8.5889)" width="14.959" height="3.7"/>
		</g>
		<g>
			<rect x="18.259" y="20.513" transform="matrix(0.5781 -0.816 0.816 0.5781 -6.5087 32.1366)" width="19.125" height="3.699"/>
		</g>
	</g>
	<g>
		<path d="M25,3.288c-11.971,0-21.711,9.74-21.711,21.711c0,11.974,9.74,21.714,21.711,21.714c11.973,0,21.711-9.74,21.711-21.714
			C46.711,13.028,36.973,3.288,25,3.288z M25.001,3.836c1.075,0,1.946,0.872,1.946,1.949c0,1.076-0.871,1.948-1.946,1.948
			s-1.948-0.872-1.948-1.948C23.053,4.708,23.926,3.836,25.001,3.836z M25,42.092c-9.426,0-17.092-7.668-17.092-17.093
			c0-9.424,7.666-17.092,17.092-17.092s17.092,7.668,17.092,17.092C42.092,34.424,34.426,42.092,25,42.092z"/>
	</g>
</g>
</svg>
