<?xml version="1.0" encoding="utf-8"?>
<!-- Generator: Adobe Illustrator 16.0.0, SVG Export Plug-In . SVG Version: 6.00 Build 0)  -->
<!DOCTYPE svg PUBLIC "-//W3C//DTD SVG 1.1//EN" "http://www.w3.org/Graphics/SVG/1.1/DTD/svg11.dtd">
<svg version="1.1" id="Layer_1" xmlns="http://www.w3.org/2000/svg" xmlns:xlink="http://www.w3.org/1999/xlink" x="0px" y="0px"
	 width="50px" height="50px" viewBox="0 0 50 50" enable-background="new 0 0 50 50" xml:space="preserve">
<g>
	<path d="M24.973,2.126C12.312,2.126,2.1,12.394,2.1,25.056c0,12.553,10.212,22.818,22.873,22.818
		c12.66,0,22.927-10.267,22.927-22.818C47.9,12.394,37.633,2.126,24.973,2.126z M40.637,13.624c0.887-0.514,2.021-0.209,2.533,0.676
		l0.105,0.184c0.512,0.885,0.207,2.02-0.678,2.533c-0.888,0.51-2.021,0.205-2.531-0.682l-0.105-0.182
		C39.447,15.267,39.752,14.136,40.637,13.624z M32.34,7.403c0.512-0.887,1.643-1.188,2.529-0.678l0.184,0.105
		c0.887,0.51,1.189,1.645,0.678,2.531c-0.51,0.886-1.645,1.191-2.53,0.676l-0.183-0.102C32.131,9.421,31.828,8.292,32.34,7.403z
		 M25.364,3.958h0.212c1.023,0,1.852,0.832,1.852,1.854S26.6,7.665,25.576,7.665h-0.212c-1.023,0-1.854-0.832-1.854-1.854
		S24.34,3.958,25.364,3.958z M6.724,14.351l0.106-0.184c0.512-0.887,1.645-1.191,2.532-0.678c0.885,0.51,1.189,1.643,0.678,2.529
		L9.932,16.2c-0.511,0.887-1.644,1.189-2.529,0.68C6.515,16.368,6.213,15.235,6.724,14.351z M3.958,24.729v-0.207
		c0-1.025,0.831-1.854,1.852-1.854c1.023,0,1.854,0.828,1.854,1.854v0.207c0,1.023-0.83,1.855-1.854,1.855
		C4.789,26.585,3.958,25.753,3.958,24.729z M9.362,36.204c-0.886,0.51-2.02,0.207-2.532-0.681L6.724,35.34
		c-0.512-0.887-0.206-2.02,0.679-2.531c0.886-0.508,2.019-0.205,2.529,0.681l0.107,0.182C10.551,34.559,10.247,35.689,9.362,36.204z
		 M16.542,42.598c-0.51,0.887-1.645,1.19-2.531,0.678l-0.182-0.104c-0.888-0.512-1.189-1.646-0.678-2.533
		c0.512-0.885,1.644-1.186,2.529-0.68l0.184,0.106C16.749,40.573,17.054,41.71,16.542,42.598z M17.018,9.937l-0.184,0.102
		c-0.886,0.516-2.02,0.211-2.53-0.676c-0.512-0.887-0.209-2.021,0.679-2.531l0.181-0.105c0.888-0.51,2.021-0.209,2.532,0.676
		C18.208,8.292,17.904,9.425,17.018,9.937z M25.576,46.042h-0.212c-1.023,0-1.854-0.828-1.854-1.854c0-1.021,0.83-1.853,1.854-1.853
		h0.212c1.023,0,1.852,0.83,1.852,1.853C27.428,45.214,26.6,46.042,25.576,46.042z M25.876,25.691v0.265h-1.541v-0.213h-0.267
		l0.053-1.539h0.32L24.87,9.771l1.171,11.938l0.234,2.227l8.91,1.545l-7.605,0.16L25.876,25.691z M36.207,43.171l-0.184,0.104
		c-0.888,0.514-2.021,0.209-2.531-0.678c-0.51-0.888-0.209-2.021,0.678-2.531l0.184-0.105c0.888-0.508,2.021-0.207,2.529,0.678
		C37.395,41.523,37.092,42.659,36.207,43.171z M43.275,35.208l-0.107,0.18c-0.51,0.89-1.645,1.189-2.531,0.685
		c-0.885-0.514-1.188-1.648-0.678-2.533l0.107-0.182c0.512-0.885,1.643-1.191,2.529-0.683
		C43.482,33.188,43.787,34.318,43.275,35.208z M44.188,26.585c-1.022,0-1.852-0.832-1.852-1.855v-0.207
		c0-1.025,0.828-1.854,1.852-1.854c1.025,0,1.854,0.828,1.854,1.854v0.207C46.041,25.753,45.213,26.585,44.188,26.585z"/>
</g>
</svg>
