<?xml version="1.0" encoding="utf-8"?>
<!-- Generator: Adobe Illustrator 16.0.0, SVG Export Plug-In . SVG Version: 6.00 Build 0)  -->
<!DOCTYPE svg PUBLIC "-//W3C//DTD SVG 1.1//EN" "http://www.w3.org/Graphics/SVG/1.1/DTD/svg11.dtd">
<svg version="1.1" id="Layer_1" xmlns="http://www.w3.org/2000/svg" xmlns:xlink="http://www.w3.org/1999/xlink" x="0px" y="0px"
	 width="50px" height="50px" viewBox="0 0 50 50" enable-background="new 0 0 50 50" xml:space="preserve">
<g>
	<path d="M25.001,0.75C11.467,0.75,0.49,11.609,0.49,25.001c0,13.394,10.977,24.249,24.511,24.249
		c13.536,0,24.508-10.855,24.508-24.249C49.51,11.609,38.537,0.75,25.001,0.75z M25.001,45.466
		c-11.426,0-20.686-9.161-20.686-20.465c0-11.306,9.26-20.466,20.686-20.466c11.418,0,20.683,9.16,20.683,20.466
		C45.684,36.305,36.42,45.466,25.001,45.466z"/>
	<path d="M25.73,8.09c0,0.395-0.331,0.723-0.729,0.723l0,0c-0.405,0-0.733-0.328-0.733-0.723V6.156c0-0.4,0.328-0.723,0.733-0.723
		l0,0c0.399,0,0.729,0.322,0.729,0.723V8.09z"/>
	<path d="M25.73,44.072c0,0.396-0.331,0.722-0.729,0.722l0,0c-0.405,0-0.733-0.325-0.733-0.722v-1.937
		c0-0.396,0.328-0.722,0.733-0.722l0,0c0.399,0,0.729,0.324,0.729,0.722V44.072z"/>
	<path d="M8.299,24.272c0.401,0,0.73,0.327,0.73,0.729l0,0c0,0.397-0.329,0.724-0.73,0.724H6.351c-0.41,0-0.73-0.326-0.73-0.724l0,0
		c0-0.401,0.32-0.729,0.73-0.729H8.299z"/>
	<path d="M43.871,24.272c0.406,0,0.736,0.327,0.736,0.729l0,0c0,0.397-0.33,0.724-0.736,0.724H41.92c-0.402,0-0.73-0.326-0.73-0.724
		l0,0c0-0.401,0.328-0.729,0.73-0.729H43.871z"/>
	<g id="g920_3_" transform="translate(-1.105212,-845.0955)">
		<g>
			<path id="path915_1_" d="M28.648,872.027l-10.905-4.301"/>
			<rect x="17.334" y="869.376" transform="matrix(0.9303 0.3669 -0.3669 0.9303 320.7544 52.1469)" width="11.723" height="1"/>
		</g>
		<g>
			<path id="path916_1_" d="M25.399,873.25l7.64-13.723"/>
			<rect x="28.719" y="858.535" transform="matrix(0.8738 0.4862 -0.4862 0.8738 424.9445 95.101)" width="1" height="15.706"/>
		</g>
		<g>
			<path id="path919_1_" d="M23.86,871.551l16.505-1.671"/>
			
				<rect x="31.613" y="862.42" transform="matrix(0.1007 0.9949 -0.9949 0.1007 895.1714 751.1151)" width="0.999" height="16.589"/>
		</g>
	</g>
</g>
</svg>
