<?xml version="1.0" encoding="utf-8"?>
<!-- Generator: Adobe Illustrator 16.0.0, SVG Export Plug-In . SVG Version: 6.00 Build 0)  -->
<!DOCTYPE svg PUBLIC "-//W3C//DTD SVG 1.1//EN" "http://www.w3.org/Graphics/SVG/1.1/DTD/svg11.dtd">
<svg version="1.1" id="Layer_1" xmlns="http://www.w3.org/2000/svg" xmlns:xlink="http://www.w3.org/1999/xlink" x="0px" y="0px"
	 width="50px" height="50px" viewBox="0 0 50 50" enable-background="new 0 0 50 50" xml:space="preserve">
<g>
	<path d="M42.334,18.727c-0.428,0-0.845,0.059-1.252,0.137c-1.688-4.258-5.645-7.248-10.258-7.248c-1.373,0-2.678,0.287-3.893,0.771
		c-1.173-0.916-2.597-1.47-4.146-1.47c-3.279,0-6.014,2.428-6.854,5.719c-0.449-0.104-0.914-0.176-1.396-0.176
		c-2.963,0-5.439,2.1-6.262,4.97C7.89,21.356,7.5,21.305,7.095,21.305c-3.633,0-6.576,3.137-6.576,7.005
		c0,3.871,2.943,7.006,6.576,7.006c0.396,0,0.777-0.054,1.154-0.123c-0.471-0.732-0.8-1.568-0.984-2.467
		c1.1,1.887,3.036,3.147,5.258,3.147c1.578,0,3.002-0.651,4.098-1.692c1.236,2.336,3.518,3.924,6.164,3.924
		c1.729,0,3.291-0.695,4.529-1.813c1.309,1.69,3.242,2.789,5.43,2.789c3.167,0,5.82-2.267,6.76-5.385
		c0.867,0.409,1.823,0.645,2.83,0.645c3.945,0,7.146-3.496,7.146-7.809C49.48,22.222,46.279,18.727,42.334,18.727z"/>
</g>
</svg>
