<?xml version="1.0" encoding="utf-8"?>
<!-- Generator: Adobe Illustrator 16.0.0, SVG Export Plug-In . SVG Version: 6.00 Build 0)  -->
<!DOCTYPE svg PUBLIC "-//W3C//DTD SVG 1.1//EN" "http://www.w3.org/Graphics/SVG/1.1/DTD/svg11.dtd">
<svg version="1.1" id="Layer_1" xmlns="http://www.w3.org/2000/svg" xmlns:xlink="http://www.w3.org/1999/xlink" x="0px" y="0px"
	 width="50px" height="50px" viewBox="0 0 50 50" enable-background="new 0 0 50 50" xml:space="preserve">
<g>
	<g>
		<path d="M22.724,2.993c-0.212,0.35-0.205,0.696-0.198,1.033c0.012,0.539-0.007,1.045-0.338,1.29
			c-0.525,0.385-1.167,0.786-1.784,1.176c-1.919,1.208-3.186,2.005-2.932,3.271c0.102,0.495,0.481,1.128,1.726,1.332
			c4.379,0.734,5.814,1.939,5.958,2.475c0.026,0.099-0.049,0.229-0.227,0.378c-1.015,0.854-4.061,1.303-7.655-0.378l0,0
			c-0.599-0.281-1.31-0.023-1.593,0.574c-0.278,0.601-0.02,1.31,0.578,1.592l0,0c4.333,2.025,8.418,1.555,10.21,0.04
			c0.914-0.77,1.277-1.806,0.994-2.838c-0.539-1.975-7.358-3.784-6.613-3.948c0.185-0.042,0.691-0.386,0.829-0.471
			c0.652-0.413,1.327-0.838,1.927-1.275c1.356-1.006,1.324-2.589,1.313-3.262c-0.002-0.063-0.005-0.15-0.002-0.177
			c-0.003,0.021-0.015,0.209-0.146,0.426l0,0c0.342-0.563,0.16-1.299-0.405-1.643C23.802,2.245,23.066,2.426,22.724,2.993
			L22.724,2.993z"/>
	</g>
	<g>
		<path d="M40.559,31.646c2.057-0.748,3.698-0.752,4.396-0.011c0.508,0.539,0.537,1.531,0.077,2.591
			c-0.865,1.991-3.574,4.309-8.36,4.286c-1.596-0.086-2.477,0.564-2.922,1.123c-0.729,0.914-0.848,2.181-0.366,3.863l0,0
			c0.231,0.805,1.07,1.271,1.875,1.041c0.806-0.229,1.271-1.067,1.041-1.873l0,0c-0.255-0.896-0.151-1.188-0.147-1.188
			c-0.016,0.034-0.065,0.092-0.103,0.108c0,0,0.14-0.065,0.535-0.045c6.334,0.029,9.994-3.272,11.228-6.108
			c0.951-2.188,0.701-4.439-0.648-5.875c-0.93-0.984-3.156-2.396-7.643-0.761l0,0c-0.783,0.287-1.191,1.156-0.901,1.943
			C38.902,31.529,39.771,31.934,40.559,31.646L40.559,31.646z"/>
	</g>
	<path d="M39.075,23.164c0-1.767-8.414-3.214-18.756-3.214c-10.289,0-18.701,1.447-18.701,3.214c0,0.202,0.119,0.4,0.315,0.59
		c12.311,0,24.569,0,36.825,0C38.954,23.564,39.075,23.366,39.075,23.164z"/>
	<path d="M20.319,26.641c9.201,0,16.853-1.233,18.439-2.885c-12.256,0-24.514,0-36.825,0C3.52,25.407,11.17,26.641,20.319,26.641z"
		/>
	<path d="M12.977,47.586c4.877,0,9.754,0,14.628,0c0-0.461,0-0.918,0-1.379h-14.58C12.986,46.563,13.029,47.332,12.977,47.586z"/>
	<path d="M39.021,25.775c-0.09,0-0.176,0-0.265,0c-1.586,1.533-9.239,2.678-18.439,2.678c-9.148,0-16.799-1.145-18.386-2.678
		c-0.087,0-0.176,0-0.264,0C1.573,34.541,5.14,40.238,11.434,44.52h17.673C35.415,39.939,38.723,33.738,39.021,25.775z"/>
</g>
</svg>
