<?xml version="1.0" encoding="utf-8"?>
<!-- Generator: Adobe Illustrator 16.0.0, SVG Export Plug-In . SVG Version: 6.00 Build 0)  -->
<!DOCTYPE svg PUBLIC "-//W3C//DTD SVG 1.1//EN" "http://www.w3.org/Graphics/SVG/1.1/DTD/svg11.dtd">
<svg version="1.1" id="Layer_1" xmlns="http://www.w3.org/2000/svg" xmlns:xlink="http://www.w3.org/1999/xlink" x="0px" y="0px"
	 width="50px" height="50px" viewBox="0 0 50 50" enable-background="new 0 0 50 50" xml:space="preserve">
<g>
	<path d="M24.985,5.482c1.119,0,2.174,0.062,3.23,0.217c0.031-0.187,0.061-0.404,0.061-0.65c0-1.769-1.457-3.201-3.291-3.201
		c-1.799,0-3.261,1.432-3.261,3.201c0,0.246,0,0.464,0.064,0.65C22.842,5.544,23.898,5.482,24.985,5.482L24.985,5.482z
		 M24.985,22.284c0.095,0,0.186,0,0.25,0l7.982-3.852l-3.076,8.199c0.032,0.247,0.063,0.497,0.063,0.745
		c0,2.827-2.328,5.123-5.218,5.123c-0.214,0-0.436-0.029-0.652-0.062l-7.575,3.881l3.074-8.383
		c-0.033-0.188-0.033-0.375-0.033-0.561C19.799,24.583,22.129,22.284,24.985,22.284L24.985,22.284z M29.305,5.917
		c9.813,2.019,17.2,10.869,17.2,21.458c0,12.109-9.625,21.923-21.52,21.923c-11.86,0-21.49-9.813-21.49-21.923
		c0-10.589,7.392-19.44,17.206-21.458c-0.061-0.279-0.093-0.56-0.093-0.869c0-2.394,1.957-4.347,4.377-4.347
		c2.453,0,4.412,1.953,4.412,4.347C29.396,5.358,29.365,5.639,29.305,5.917L29.305,5.917z M24.396,44.675v-3.854
		c0-0.311,0.248-0.561,0.56-0.561h0.092c0.312,0,0.56,0.25,0.56,0.561v3.854c8.882-0.312,16.025-7.612,16.334-16.678h-3.944
		c-0.312,0-0.56-0.25-0.56-0.56v-0.094c0-0.312,0.248-0.562,0.56-0.562h3.944c-0.31-9.063-7.453-16.364-16.334-16.674v3.852
		c0,0.308-0.248,0.558-0.56,0.558h-0.092c-0.312,0-0.56-0.25-0.56-0.558v-3.852c-8.881,0.31-16.055,7.61-16.335,16.674h3.075
		c0.313,0,0.56,0.25,0.56,0.562v0.094c0,0.31-0.249,0.56-0.56,0.56H8.061C8.341,37.063,15.515,44.363,24.396,44.675L24.396,44.675z
		 M24.956,25.576c-0.903,0-1.647,0.746-1.647,1.645s0.744,1.614,1.647,1.614c0.931,0,1.676-0.716,1.676-1.614
		C26.632,26.321,25.887,25.576,24.956,25.576L24.956,25.576z M24.985,24.021c-1.894,0-3.415,1.521-3.415,3.354
		c0,1.863,1.521,3.385,3.415,3.385s3.449-1.521,3.449-3.385C28.434,25.543,26.879,24.021,24.985,24.021z"/>
</g>
</svg>
