<?xml version="1.0" encoding="utf-8"?>
<!-- Generator: Adobe Illustrator 16.0.0, SVG Export Plug-In . SVG Version: 6.00 Build 0)  -->
<!DOCTYPE svg PUBLIC "-//W3C//DTD SVG 1.1//EN" "http://www.w3.org/Graphics/SVG/1.1/DTD/svg11.dtd">
<svg version="1.1" id="Layer_1" xmlns="http://www.w3.org/2000/svg" xmlns:xlink="http://www.w3.org/1999/xlink" x="0px" y="0px"
	 width="50px" height="50px" viewBox="0 0 50 50" enable-background="new 0 0 50 50" xml:space="preserve">
<g>
	<path d="M25.403,22.001h5.154c1.894,0,3.494,1.604,3.494,3.553v14.321c0,4.813-3.893,8.764-8.708,8.764l0,0
		c-4.811,0-8.763-3.951-8.763-8.764v-6.303h8.822L25.403,22.001L25.403,22.001z M19.501,21.369c-1.947,0-3.553,1.605-3.553,3.555
		v7.961h8.264V21.369H19.501L19.501,21.369z M24.027,1.664c1.089,1.203,2.35,2.348,2.004,4.18
		c-0.688,3.781-3.551,7.564-2.979,11.519c0.229,1.432,1.318,1.66,2.522,1.774c0.572,0,1.031,0.402,1.031,0.973
		c0,0.574-0.459,0.977-1.031,0.977c-1.606-0.115-3.552-0.518-4.183-2.293c-1.089-3.152,0.399-6.301,1.374-9.281
		c0.114-0.285,1.662-3.379,1.261-4.639c-0.229-0.744-0.975-1.262-1.434-1.775c-0.4-0.4-0.4-1.031,0-1.434
		C22.995,1.261,23.625,1.261,24.027,1.664z"/>
</g>
</svg>
