<?xml version="1.0" encoding="utf-8"?>
<!-- Generator: Adobe Illustrator 16.0.0, SVG Export Plug-In . SVG Version: 6.00 Build 0)  -->
<!DOCTYPE svg PUBLIC "-//W3C//DTD SVG 1.1//EN" "http://www.w3.org/Graphics/SVG/1.1/DTD/svg11.dtd">
<svg version="1.1" id="Layer_1" xmlns="http://www.w3.org/2000/svg" xmlns:xlink="http://www.w3.org/1999/xlink" x="0px" y="0px"
	 width="50px" height="50px" viewBox="0 0 50 50" enable-background="new 0 0 50 50" xml:space="preserve">
<g>
	<path d="M23.744,40.292c-6.377,0-11.545-5.168-11.545-11.543c0-6.373,5.168-11.543,11.545-11.543"/>
	<path d="M26.139,40.292c6.375,0,11.543-5.168,11.543-11.543c0-6.373-5.168-11.543-11.543-11.543"/>
	<path d="M32.092,17.353c-0.277-3.711-3.371-6.633-7.152-6.633c-3.78,0-6.872,2.922-7.149,6.633
		C19.76,15.806,26.982,13.913,32.092,17.353z"/>
	<g>
		<path d="M42.012,16.753l-2.479-0.828c-0.752,2.26-2.661,3.301-3.635,3.701c0.529,0.682,1.004,1.428,1.41,2.23
			C38.779,21.167,41.038,19.673,42.012,16.753z"/>
		<path d="M42.45,24.03c-1.589,0.201-2.875,0.965-3.804,1.729c0.199,1.008,0.309,2.049,0.312,3.127l0.183,0.123l-0.004,0.002
			c0.014-0.018,1.471-2.127,3.656-2.391c1.367-0.162,2.811,0.428,4.293,1.762l1.748-1.943C46.757,24.569,44.607,23.761,42.45,24.03z
			"/>
		<path d="M36.732,37.1h-0.01c0.467-0.156,1.858-0.433,2.725,0.146c0.574,0.383,0.908,1.16,0.992,2.303l2.608-0.188
			c-0.146-2.002-0.878-3.449-2.172-4.301c-0.922-0.609-1.942-0.781-2.827-0.779c-0.352,0.99-0.802,1.922-1.334,2.779L36.732,37.1z"
			/>
	</g>
	<g>
		<path d="M7.986,16.753l2.479-0.828c0.755,2.26,2.662,3.301,3.637,3.701c-0.53,0.682-1.006,1.428-1.412,2.23
			C11.222,21.167,8.961,19.673,7.986,16.753z"/>
		<path d="M7.551,24.03c1.586,0.201,2.875,0.965,3.802,1.729c-0.198,1.008-0.308,2.049-0.311,3.127l-0.184,0.123l0.005,0.002
			c-0.015-0.018-1.47-2.127-3.657-2.391c-1.364-0.162-2.809,0.428-4.291,1.762l-1.749-1.943C3.242,24.569,5.393,23.761,7.551,24.03z
			"/>
		<path d="M13.269,37.1h0.006c-0.465-0.156-1.856-0.433-2.721,0.146c-0.575,0.383-0.909,1.16-0.994,2.303l-2.607-0.188
			C7.1,37.357,7.83,35.91,9.126,35.059c0.919-0.609,1.941-0.781,2.826-0.779c0.353,0.99,0.801,1.922,1.332,2.779L13.269,37.1z"/>
	</g>
	<g>
		<path d="M24.26,11.19l-0.486-4.367c0,0-4.175,4.367-2.232,6.311C23.485,15.078,24.26,11.19,24.26,11.19z"/>
		<path d="M25.363,11.19l0.485-4.367c0,0,4.176,4.367,2.232,6.311C26.139,15.077,25.363,11.19,25.363,11.19z"/>
	</g>
	<path d="M23.618,38.792l0.349,4.385c0,0-4.927-3.506-3.384-5.778C22.122,35.124,23.618,38.792,23.618,38.792z"/>
	<path d="M26.182,38.786l-0.275,4.391c0,0,4.867-3.586,3.289-5.836C27.617,35.093,26.182,38.786,26.182,38.786z"/>
</g>
</svg>
