<?xml version="1.0" encoding="utf-8"?>
<!-- Generator: Adobe Illustrator 16.0.0, SVG Export Plug-In . SVG Version: 6.00 Build 0)  -->
<!DOCTYPE svg PUBLIC "-//W3C//DTD SVG 1.1//EN" "http://www.w3.org/Graphics/SVG/1.1/DTD/svg11.dtd">
<svg version="1.1" id="Layer_1" xmlns="http://www.w3.org/2000/svg" xmlns:xlink="http://www.w3.org/1999/xlink" x="0px" y="0px"
	 width="50px" height="50px" viewBox="0 0 50 50" enable-background="new 0 0 50 50" xml:space="preserve">
<g>
	<rect x="25.482" y="14.056" transform="matrix(-0.707 0.7072 -0.7072 -0.707 67.749 7.1351)" width="13.829" height="7.09"/>
	<rect x="14.055" y="25.481" transform="matrix(0.707 0.7072 -0.7072 0.707 28.0695 -2.9552)" width="7.092" height="13.831"/>
	<rect x="28.851" y="25.48" transform="matrix(0.7072 -0.707 0.707 0.7072 -13.4169 32.3879)" width="7.095" height="13.829"/>
	<rect x="14.056" y="10.687" transform="matrix(-0.707 0.7072 -0.7072 -0.707 42.4951 17.5984)" width="7.091" height="13.83"/>
	<rect x="21.453" y="21.453" transform="matrix(0.707 0.7072 -0.7072 0.707 25.0032 -10.3548)" width="7.093" height="7.094"/>
	<rect x="21.453" y="21.453" transform="matrix(0.707 0.7072 -0.7072 0.707 25.0032 -10.3548)" width="7.093" height="7.094"/>
</g>
</svg>
