<?xml version="1.0" encoding="utf-8"?>
<!-- Generator: Adobe Illustrator 16.0.0, SVG Export Plug-In . SVG Version: 6.00 Build 0)  -->
<!DOCTYPE svg PUBLIC "-//W3C//DTD SVG 1.1//EN" "http://www.w3.org/Graphics/SVG/1.1/DTD/svg11.dtd">
<svg version="1.1" id="Layer_1" xmlns="http://www.w3.org/2000/svg" xmlns:xlink="http://www.w3.org/1999/xlink" x="0px" y="0px"
	 width="50px" height="50px" viewBox="0 0 50 50" enable-background="new 0 0 50 50" xml:space="preserve">
<g>
	<path d="M40.264,1.063H9.737c-5.024,0-9.101,3.996-9.101,8.939v29.99c0,4.939,4.077,8.943,9.101,8.943h30.527
		c5.022,0,9.1-4.004,9.1-8.943v-29.99C49.363,5.06,45.287,1.063,40.264,1.063z M38.303,34.723l-4.598,4.436l-8.71-8.707
		l-8.704,8.707l-4.603-4.271l-0.699-0.663l0.699-0.701l8.191-8.191l-8.191-8.191l-0.679-0.688l0.679-0.668l4.272-4.269l9.035,9.199
		l8.873-9.199l4.437,4.597l0.672,0.683l-0.672,0.678l-8.173,7.867l8.173,8.021l0.686,0.676L38.303,34.723z"/>
</g>
</svg>
