<?xml version="1.0" encoding="utf-8"?>
<!-- Generator: Adobe Illustrator 16.0.0, SVG Export Plug-In . SVG Version: 6.00 Build 0)  -->
<!DOCTYPE svg PUBLIC "-//W3C//DTD SVG 1.1//EN" "http://www.w3.org/Graphics/SVG/1.1/DTD/svg11.dtd">
<svg version="1.1" id="Layer_1" xmlns="http://www.w3.org/2000/svg" xmlns:xlink="http://www.w3.org/1999/xlink" x="0px" y="0px"
	 width="50px" height="50px" viewBox="0 0 50 50" enable-background="new 0 0 50 50" xml:space="preserve">
<g>
	<rect x="13.81" y="38.129" width="21.379" height="2.84"/>
	<path d="M46.713,13.065c-1.495,0-2.706,1.212-2.706,2.707c0,0.552,0.165,1.063,0.449,1.491
		c-4.379,3.456-13.629,11.078-14.276,11.679l-4.769-14.656c1.045-0.375,1.795-1.371,1.795-2.547c0-1.494-1.211-2.707-2.707-2.707
		c-1.494,0-2.707,1.213-2.707,2.707c0,1.276,0.885,2.344,2.072,2.629c-1.328,4.818-4.076,14.574-4.543,14.574
		c0.018,0.014-9.647-7.623-13.982-10.896c0.407-0.475,0.654-1.088,0.654-1.762c0-1.496-1.212-2.707-2.707-2.707
		s-2.707,1.211-2.707,2.707c0,1.494,1.212,2.707,2.707,2.707c0.584,0,1.124-0.188,1.565-0.502
		c6.529,8.387,9.124,17.469,9.124,17.469h20.878c0,0,3.525-9.725,10.056-18.171c0.479,0.43,1.108,0.694,1.804,0.694
		c1.495,0,2.708-1.213,2.708-2.708S48.208,13.065,46.713,13.065z"/>
</g>
</svg>
