<?xml version="1.0" encoding="utf-8"?>
<!-- Generator: Adobe Illustrator 16.0.0, SVG Export Plug-In . SVG Version: 6.00 Build 0)  -->
<!DOCTYPE svg PUBLIC "-//W3C//DTD SVG 1.1//EN" "http://www.w3.org/Graphics/SVG/1.1/DTD/svg11.dtd">
<svg version="1.1" id="Layer_1" xmlns="http://www.w3.org/2000/svg" xmlns:xlink="http://www.w3.org/1999/xlink" x="0px" y="0px"
	 width="50px" height="50px" viewBox="0 0 50 50" enable-background="new 0 0 50 50" xml:space="preserve">
<g>
	<g>
		<path d="M11.59,23.47c1.091,3.977,2.155,8.529,3.184,12.929c0.939,4.023,1.911,8.185,2.896,11.861l0.297,1.113h1.151h11.104h1.152
			c0.001-0.004,0.298-1.117,0.298-1.117l3.101-11.621l3.1-11.616l-2.9-0.766l-3.096,11.604L28.773,47.49l1.449-1.117H19.119
			l1.449,1.111c-0.973-3.631-1.938-7.769-2.873-11.769c-1.035-4.43-2.104-9.01-3.212-13.041L11.59,23.47z"/>
	</g>
	<path d="M11.514,23.074c-0.057,1.354,28.945,10.722,27.442-0.109c-5.822-7.385-22.964-3.718-23.936-8.519
		C11.355,14.986,9.628,19.247,11.514,23.074z"/>
	<path d="M20.034,8.085c0.487,4.367,10.082,4.746,15.959,4.96c5.819,0.27,2.426,7.226,0.698,6.362
		c-4.69-3.344-17.843-2.912-20.109-5.121C14.321,12.021,16.962,8.893,20.034,8.085z"/>
	<path d="M25.104,3.232c2.261-1.13,6.791-2.803,6.52-2.587c-4.743,5.392,2.644,9.111,0.377,9.813
		C23.861,12.991,17.392,6.467,25.104,3.232z"/>
</g>
</svg>
