<?xml version="1.0" encoding="utf-8"?>
<!-- Generator: Adobe Illustrator 16.0.0, SVG Export Plug-In . SVG Version: 6.00 Build 0)  -->
<!DOCTYPE svg PUBLIC "-//W3C//DTD SVG 1.1//EN" "http://www.w3.org/Graphics/SVG/1.1/DTD/svg11.dtd">
<svg version="1.1" id="Layer_1" xmlns="http://www.w3.org/2000/svg" xmlns:xlink="http://www.w3.org/1999/xlink" x="0px" y="0px"
	 width="50px" height="50px" viewBox="0 0 50 50" enable-background="new 0 0 50 50" xml:space="preserve">
<g>
	<g>
		<path d="M35.825,24.999c0,5.97-4.856,10.823-10.826,10.823c-5.97,0-10.826-4.854-10.826-10.823s4.856-10.826,10.826-10.826
			C30.969,14.173,35.825,19.029,35.825,24.999z M24.999,12.279c-7.015,0-12.719,5.706-12.719,12.72
			c0,7.013,5.704,12.718,12.719,12.718c7.013,0,12.72-5.705,12.72-12.718C37.719,17.985,32.012,12.279,24.999,12.279z"/>
	</g>
	<g>
		<path d="M46.365,24.999c0,11.782-9.586,21.366-21.366,21.366c-11.781,0-21.364-9.584-21.364-21.366
			c0-11.781,9.583-21.367,21.364-21.367C36.779,3.632,46.365,13.218,46.365,24.999z M24.999,1.74
			c-12.825,0-23.258,10.434-23.258,23.259S12.174,48.26,24.999,48.26s23.26-10.436,23.26-23.261
			C48.259,12.173,37.824,1.74,24.999,1.74z"/>
	</g>
	<rect x="20.184" y="2.012" width="9.63" height="11.97"/>
	<rect x="20.184" y="36.568" width="9.63" height="9.842"/>
	<rect x="2.834" y="20.185" width="10.894" height="9.625"/>
	<rect x="35.521" y="20.185" width="11.711" height="9.625"/>
</g>
</svg>
