<?xml version="1.0" encoding="utf-8"?>
<!-- Generator: Adobe Illustrator 16.0.0, SVG Export Plug-In . SVG Version: 6.00 Build 0)  -->
<!DOCTYPE svg PUBLIC "-//W3C//DTD SVG 1.1//EN" "http://www.w3.org/Graphics/SVG/1.1/DTD/svg11.dtd">
<svg version="1.1" id="Layer_1" xmlns="http://www.w3.org/2000/svg" xmlns:xlink="http://www.w3.org/1999/xlink" x="0px" y="0px"
	 width="50px" height="50px" viewBox="0 0 50 50" enable-background="new 0 0 50 50" xml:space="preserve">
<g>
	<g>
		<path d="M29.479,1c0.002,0,0.019,0.093,0.019,0.154c0,2.533-2.054,4.576-4.589,4.576c-2.533,0-4.588-2.037-4.588-4.57
			c0-0.062,0.016-0.16,0.018-0.16h-4.693l4.965,15h8.598l4.966-15H29.479z"/>
	</g>
	<polygon points="40.105,49 9.93,49 20.377,18 29.656,18 	"/>
	<g>
		<g>
			<circle cx="14.378" cy="4.619" r="4.019"/>
			<rect x="9.395" y="6.95" transform="matrix(-0.7878 -0.616 0.616 -0.7878 16.2817 21.2777)" width="4.823" height="1.768"/>
		</g>
		<g>
			<circle cx="35.438" cy="4.619" r="4.019"/>
			<rect x="35.601" y="6.95" transform="matrix(0.7877 -0.6161 0.6161 0.7877 3.2448 25.0829)" width="4.822" height="1.768"/>
		</g>
	</g>
</g>
</svg>
