<?xml version="1.0" encoding="utf-8"?>
<!-- Generator: Adobe Illustrator 16.0.0, SVG Export Plug-In . SVG Version: 6.00 Build 0)  -->
<!DOCTYPE svg PUBLIC "-//W3C//DTD SVG 1.1//EN" "http://www.w3.org/Graphics/SVG/1.1/DTD/svg11.dtd">
<svg version="1.1" id="Layer_1" xmlns="http://www.w3.org/2000/svg" xmlns:xlink="http://www.w3.org/1999/xlink" x="0px" y="0px"
	 width="50px" height="50px" viewBox="0 0 50 50" enable-background="new 0 0 50 50" xml:space="preserve">
<g>
	<path d="M1.255,24.646C16.337,7.619,32.166,7.66,48.744,24.795C30.625,45.223,15.416,39.643,1.255,24.646L1.255,24.646z M25,21.865
		c-1.987,0-3.614,1.412-3.614,3.146c0,1.712,1.627,3.119,3.614,3.119c2.012,0,3.637-1.407,3.637-3.119
		C28.637,23.277,27.012,21.865,25,21.865L25,21.865z M25,18.229c-4.148,0-7.53,3.039-7.53,6.783c0,3.719,3.382,6.758,7.53,6.758
		c4.152,0,7.532-3.039,7.532-6.758C32.531,21.268,29.152,18.229,25,18.229z"/>
</g>
</svg>
