<?xml version="1.0" encoding="utf-8"?>
<!-- Generator: Adobe Illustrator 16.0.0, SVG Export Plug-In . SVG Version: 6.00 Build 0)  -->
<!DOCTYPE svg PUBLIC "-//W3C//DTD SVG 1.1//EN" "http://www.w3.org/Graphics/SVG/1.1/DTD/svg11.dtd">
<svg version="1.1" id="Layer_1" xmlns="http://www.w3.org/2000/svg" xmlns:xlink="http://www.w3.org/1999/xlink" x="0px" y="0px"
	 width="50px" height="50px" viewBox="0 0 50 50" enable-background="new 0 0 50 50" xml:space="preserve">
<g>
	<polygon points="33.473,39.936 42.918,39.936 42.918,43.508 33.473,43.508 33.473,44.146 27.213,44.146 27.213,43.508 
		6.728,43.508 6.728,39.936 27.213,39.936 27.213,39.127 5.946,39.127 5.946,44.164 44.057,44.164 44.057,39.127 33.473,39.127 	"/>
	<path d="M41.02,1.797H8.981c-3.968,0-7.185,3.218-7.185,7.185V41.02c0,3.968,3.217,7.185,7.185,7.185H41.02
		c3.967,0,7.185-3.217,7.185-7.185V8.982C48.203,5.015,44.986,1.797,41.02,1.797z M44.057,44.164H5.946v-5.037h21.267V25.056h-4.602
		v-6.258h4.602v-5.799c-0.066-1.212,0.328-2.849,1.656-4.212c2.174-2.233,5.982-2.986,11.639-2.297l-0.754,6.21
		c-4.354-0.529-5.883,0.128-6.281,0.371v5.728h6.756v6.258h-6.756v14.071h10.584V44.164z"/>
	<path d="M27.213,12.921v0.077c0.01,0.131,0.018,0.261,0.035,0.387L27.213,12.921z"/>
	<rect x="33.473" y="39.936" width="9.445" height="3.572"/>
	<rect x="6.728" y="39.936" width="20.485" height="3.572"/>
</g>
</svg>
