<?xml version="1.0" encoding="utf-8"?>
<!-- Generator: Adobe Illustrator 16.0.0, SVG Export Plug-In . SVG Version: 6.00 Build 0)  -->
<!DOCTYPE svg PUBLIC "-//W3C//DTD SVG 1.1//EN" "http://www.w3.org/Graphics/SVG/1.1/DTD/svg11.dtd">
<svg version="1.1" id="Layer_1" xmlns="http://www.w3.org/2000/svg" xmlns:xlink="http://www.w3.org/1999/xlink" x="0px" y="0px"
	 width="50px" height="50px" viewBox="0 0 50 50" enable-background="new 0 0 50 50" xml:space="preserve">
<g>
	<path d="M8.915,48.369H6.756L0.971,6.489l0.544-4.858L3.67,6.489l0.543,3.24c2.699-2.16,6.479-3.24,9.721-3.24
		c2.699,0,4.856,0.54,6.479,1.62c1.617,1.08,2.16,2.7,2.16,4.32c0,1.079,0,1.619,0,2.698L22.03,18.37
		c4.318,3.239,9.718,4.857,16.199,4.857c3.777,0,7.562-1.079,10.801-2.699c-3.78,4.321-7.563,8.1-12.424,10.8
		c-4.315,2.158-9.178,3.777-14.576,3.777c-2.696,0-4.319-0.541-5.94-1.08c-1.622-1.08-2.156-1.616-2.156-2.697l1.617-9.18
		c-3.238,0-6.479,1.619-9.717,4.318L8.915,48.369z M5.834,23.228c3.237-2.157,6.479-3.241,9.717-3.241c1.62,0,3.239,0,4.32,1.084
		l1.081-4.321c0-1.079,0.539-2.161,0.539-2.701c0-1.619-1.078-2.699-2.157-3.779c-1.623-0.54-3.244-1.08-5.4-1.08
		c-2.702,0-5.94,1.08-9.721,3.24L5.834,23.228z M16.09,27.547c0,0,0.543,0,0.543-0.539c1.617-0.541,2.701-1.619,2.701-2.701
		c0-0.539-1.084-1.618-2.701-2.158L16.09,27.547z M21.491,21.07l-1.078,4.858c0,0.538-1.079,1.618-3.242,2.699
		c0,0-0.538,0-1.081,0.542v0.539c0,1.08,0,1.619,1.081,2.159c1.079,0,2.163,0.541,4.32,0.541c7.558,0,13.499-2.16,18.897-6.48
		c-1.084,0-2.16,0-2.699,0C31.212,25.929,25.811,24.307,21.491,21.07L21.491,21.07z"/>
</g>
</svg>
