<?xml version="1.0" encoding="utf-8"?>
<!-- Generator: Adobe Illustrator 16.0.0, SVG Export Plug-In . SVG Version: 6.00 Build 0)  -->
<!DOCTYPE svg PUBLIC "-//W3C//DTD SVG 1.1//EN" "http://www.w3.org/Graphics/SVG/1.1/DTD/svg11.dtd">
<svg version="1.1" id="Layer_1" xmlns="http://www.w3.org/2000/svg" xmlns:xlink="http://www.w3.org/1999/xlink" x="0px" y="0px"
	 width="50px" height="50px" viewBox="0 0 50 50" enable-background="new 0 0 50 50" xml:space="preserve">
<g>
	<path d="M15.46,18.966c-0.809-11.959,17.819-3.344,16.74,2.342c-1.042,5.485-4.462,6.436-6.833,9.766c0,0-1.652,4.902-1.089,6.859
		c1.852,6.45-7.67,12.284-10.149,4.741c0,0-1.191-5.121,3.528-8.623C19.529,31.66,16.128,28.834,15.46,18.966z"/>
	<path d="M20.647,7.222c0.296,2.111-0.716,4.002-2.26,4.221c-1.542,0.213-3.035-1.322-3.33-3.438c-0.297-2.115,0.714-4,2.256-4.217
		C18.86,3.57,20.352,5.105,20.647,7.222z"/>
	<path d="M26.445,9.339c-0.269,1.342-1.342,2.254-2.4,2.045c-1.061-0.213-1.699-1.467-1.432-2.811
		c0.267-1.344,1.343-2.256,2.402-2.045C26.074,6.744,26.713,8,26.445,9.339z"/>
	<path d="M30.764,11.804c-0.41,1.094-1.443,1.723-2.308,1.396c-0.86-0.324-1.231-1.469-0.821-2.566
		c0.41-1.094,1.441-1.719,2.305-1.395C30.802,9.566,31.171,10.712,30.764,11.804z"/>
	<path d="M34.076,15.181c-0.543,0.881-1.547,1.248-2.242,0.818c-0.693-0.428-0.816-1.486-0.273-2.369
		c0.543-0.885,1.547-1.248,2.24-0.818C34.495,13.244,34.621,14.3,34.076,15.181z"/>
	<path d="M35.814,18.746c-0.342,0.643-1.032,0.943-1.541,0.672c-0.508-0.27-0.641-1.012-0.297-1.654
		c0.342-0.643,1.031-0.945,1.539-0.676C36.023,17.363,36.157,18.101,35.814,18.746z"/>
</g>
</svg>
