<?xml version="1.0" encoding="utf-8"?>
<!-- Generator: Adobe Illustrator 16.0.0, SVG Export Plug-In . SVG Version: 6.00 Build 0)  -->
<!DOCTYPE svg PUBLIC "-//W3C//DTD SVG 1.1//EN" "http://www.w3.org/Graphics/SVG/1.1/DTD/svg11.dtd">
<svg version="1.1" id="Layer_1" xmlns="http://www.w3.org/2000/svg" xmlns:xlink="http://www.w3.org/1999/xlink" x="0px" y="0px"
	 width="50px" height="50px" viewBox="0 0 50 50" enable-background="new 0 0 50 50" xml:space="preserve">
<g>
	<path d="M33.614,29.352c0,0,8.89,14.936-1.603,15.467c0,0-6.22-1.599-7.643-2.486c0,0-4.802-1.066-7.646,0.889
		c0,0-6.58,2.135-7.469-4.977C9.255,38.243,18.856,12.817,33.614,29.352z"/>
	<ellipse transform="matrix(-0.081 -0.9967 0.9967 -0.081 7.1205 32.0217)" cx="18.323" cy="12.728" rx="7.555" ry="4.978"/>
	<path d="M10.938,21.083c1.018,3.635-0.102,7.124-2.492,7.795c-2.395,0.672-5.163-1.731-6.179-5.37
		c-1.019-3.631,0.099-7.121,2.494-7.793C7.157,15.047,9.921,17.448,10.938,21.083z"/>
	<path d="M27.427,12.368c-1.157,4.014,0.041,7.881,2.685,8.645c2.643,0.764,5.721-1.867,6.881-5.881
		c1.158-4.008-0.043-7.875-2.686-8.637C31.667,5.731,28.585,8.36,27.427,12.368z"/>
	<path d="M39.025,23.946c-1.721,3.357-1.318,7.002,0.893,8.137c2.212,1.131,5.402-0.67,7.123-4.033c1.721-3.36,1.32-7-0.891-8.133
		C43.936,18.782,40.746,20.584,39.025,23.946z"/>
</g>
</svg>
