<?xml version="1.0" encoding="utf-8"?>
<!-- Generator: Adobe Illustrator 16.0.0, SVG Export Plug-In . SVG Version: 6.00 Build 0)  -->
<!DOCTYPE svg PUBLIC "-//W3C//DTD SVG 1.1//EN" "http://www.w3.org/Graphics/SVG/1.1/DTD/svg11.dtd">
<svg version="1.1" id="Layer_1" xmlns="http://www.w3.org/2000/svg" xmlns:xlink="http://www.w3.org/1999/xlink" x="0px" y="0px"
	 width="50px" height="50px" viewBox="0 0 50 50" enable-background="new 0 0 50 50" xml:space="preserve">
<g>
	<path d="M20.042,21.748h9.828c1.953-1.402,4.381-2.248,7.019-2.248c6.471,0,11.709,5.061,11.709,11.303
		c0,6.242-5.238,11.31-11.709,11.31c-4.89,0-9.093-2.904-10.834-7.021H23.98c-1.723,4.154-5.942,7.086-10.867,7.086
		c-6.451,0-11.709-5.063-11.709-11.305s5.258-11.307,11.709-11.307C15.7,19.566,18.09,20.375,20.042,21.748L20.042,21.748z
		 M4.162,7.822c2.5,15.629,15.035-1.459,19.959,10.637h-4.009v1.777h9.775v-1.777h-5.609C24.612,5.131,7.152,20.691,4.162,7.822
		L4.162,7.822z M32.068,28.766c-0.969,0-1.758,0.789-1.758,1.756c0,0.984,0.789,1.779,1.758,1.779c0.983,0,1.774-0.795,1.774-1.779
		C33.844,29.555,33.053,28.766,32.068,28.766L32.068,28.766z M37.045,24.295c-0.984,0-1.777,0.797-1.777,1.779
		c0,0.965,0.793,1.756,1.777,1.756s1.775-0.791,1.775-1.756C38.82,25.092,38.029,24.295,37.045,24.295L37.045,24.295z
		 M41.701,28.766c-0.982,0-1.773,0.789-1.773,1.756c0,0.984,0.791,1.779,1.773,1.779c0.969,0,1.76-0.795,1.76-1.779
		C43.461,29.555,42.67,28.766,41.701,28.766L41.701,28.766z M37.045,33.775c-0.984,0-1.777,0.791-1.777,1.776
		c0,0.966,0.793,1.757,1.777,1.757s1.775-0.791,1.775-1.757C38.82,34.566,38.029,33.775,37.045,33.775L37.045,33.775z
		 M19.655,31.998v-2.303h-5.363v-5.451h-2.339v5.451H6.486v2.303h5.467v5.506h2.339v-5.506H19.655z"/>
</g>
</svg>
