<?xml version="1.0" encoding="utf-8"?>
<!-- Generator: Adobe Illustrator 16.0.0, SVG Export Plug-In . SVG Version: 6.00 Build 0)  -->
<!DOCTYPE svg PUBLIC "-//W3C//DTD SVG 1.1//EN" "http://www.w3.org/Graphics/SVG/1.1/DTD/svg11.dtd">
<svg version="1.1" id="Layer_1" xmlns="http://www.w3.org/2000/svg" xmlns:xlink="http://www.w3.org/1999/xlink" x="0px" y="0px"
	 width="50px" height="50px" viewBox="0 0 50 50" enable-background="new 0 0 50 50" xml:space="preserve">
<g>
	<g>
		<path d="M44.34,16.863l-0.845-1.758c0.862-0.805,1.649-1.636,2.44-2.514c-0.998-1.766-2.297-3.34-3.707-4.795
			c-1.035,0.523-2.074,1.132-3.062,1.754c-0.494-0.426-0.953-0.894-1.499-1.256c-0.534-0.365-1.032-0.796-1.605-1.103
			c0.328-1.112,0.614-2.26,0.856-3.42c-1.76-0.993-3.644-1.763-5.596-2.278c-0.642,0.999-1.23,2.014-1.777,3.041
			c-0.629-0.183-1.28-0.227-1.922-0.338c-0.642-0.116-1.297-0.109-1.944-0.152c-0.273-1.135-0.594-2.297-0.971-3.396
			c-2.014,0.057-4.049,0.281-5.995,0.836c-0.056,1.186-0.07,2.328-0.018,3.513L16.864,5.66l-1.758,0.848
			c-0.81-0.868-1.635-1.657-2.512-2.445c-1.765,1-3.352,2.301-4.799,3.703c0.525,1.035,1.13,2.078,1.751,3.061
			c-0.423,0.5-0.889,0.957-1.25,1.5c-0.37,0.535-0.801,1.041-1.106,1.611c-1.116-0.33-2.255-0.614-3.412-0.855
			c-0.997,1.756-1.768,3.64-2.284,5.594c0.997,0.635,2.013,1.232,3.038,1.775c-0.181,0.629-0.224,1.286-0.335,1.927
			c-0.118,0.641-0.113,1.292-0.153,1.939c-1.137,0.272-2.297,0.598-3.394,0.971c0.05,2.013,0.276,4.048,0.839,5.998
			c1.18,0.053,2.322,0.068,3.507,0.014l0.664,1.836l0.839,1.754c-0.855,0.816-1.648,1.64-2.435,2.521
			c0.998,1.762,2.298,3.346,3.705,4.797c1.03-0.526,2.074-1.133,3.061-1.754c0.493,0.42,0.956,0.887,1.501,1.256
			c0.53,0.365,1.031,0.795,1.601,1.104c-0.328,1.109-0.608,2.248-0.848,3.408c1.752,1.006,3.638,1.769,5.591,2.281
			c0.639-0.996,1.232-2.014,1.773-3.033c0.629,0.176,1.282,0.223,1.926,0.332c0.64,0.117,1.296,0.113,1.943,0.156
			c0.27,1.139,0.591,2.295,0.969,3.395c2.016-0.059,4.056-0.276,5.997-0.84c0.053-1.186,0.068-2.322,0.017-3.504l1.833-0.664
			l1.758-0.85c0.812,0.865,1.635,1.65,2.519,2.441c1.766-0.994,3.344-2.293,4.795-3.695c-0.524-1.043-1.134-2.082-1.752-3.07
			c0.42-0.494,0.89-0.959,1.25-1.498c0.371-0.539,0.799-1.033,1.103-1.609c1.116,0.332,2.258,0.607,3.422,0.854
			c0.992-1.756,1.765-3.642,2.277-5.59c-0.998-0.646-2.018-1.236-3.036-1.779c0.181-0.631,0.222-1.274,0.334-1.924
			c0.119-0.64,0.107-1.297,0.156-1.942c1.132-0.275,2.289-0.597,3.394-0.963c-0.059-2.021-0.283-4.061-0.838-6.006
			c-1.185-0.047-2.324-0.063-3.506-0.012L44.34,16.863z M34.414,32.15c-1.227,1.666-2.938,2.903-4.828,3.76
			c-1.93,0.754-4.007,1.109-6.059,0.82c-2.053-0.256-4.036-1.064-5.676-2.324c-1.67-1.223-2.912-2.928-3.757-4.822
			c-0.762-1.932-1.117-4.01-0.823-6.055c0.249-2.056,1.06-4.039,2.316-5.678c1.22-1.666,2.933-2.908,4.823-3.759
			c1.931-0.758,4.012-1.114,6.058-0.818c2.056,0.249,4.035,1.06,5.677,2.313c1.67,1.223,2.905,2.933,3.758,4.826
			c0.756,1.932,1.115,4.01,0.824,6.055C36.473,28.525,35.664,30.502,34.414,32.15z"/>
	</g>
</g>
</svg>
