<?xml version="1.0" encoding="utf-8"?>
<!-- Generator: Adobe Illustrator 16.0.0, SVG Export Plug-In . SVG Version: 6.00 Build 0)  -->
<!DOCTYPE svg PUBLIC "-//W3C//DTD SVG 1.1//EN" "http://www.w3.org/Graphics/SVG/1.1/DTD/svg11.dtd">
<svg version="1.1" id="Layer_1" xmlns="http://www.w3.org/2000/svg" xmlns:xlink="http://www.w3.org/1999/xlink" x="0px" y="0px"
	 width="50px" height="50px" viewBox="0 0 50 50" enable-background="new 0 0 50 50" xml:space="preserve">
<g>
	<path d="M19.093,35.014c0,0-2.297,9.519-4.925,9.846c0,0,11.162,0.33,16.414-10.506L19.093,35.014z"/>
	<path d="M25.002,5.139c-12.69,0-22.981,7.349-22.981,16.413c0,9.065,10.291,16.414,22.981,16.414
		c12.689,0,22.977-7.349,22.977-16.414C47.979,12.488,37.691,5.139,25.002,5.139z M32.516,33.282c0,0,7.928-5.114,7.928-11.365
		c0-6.254-9.735-11.943-9.735-11.943s12.461,2.533,12.461,11.737C43.168,31.666,32.516,33.282,32.516,33.282z"/>
</g>
</svg>
