<?xml version="1.0" encoding="utf-8"?>
<!-- Generator: Adobe Illustrator 16.0.0, SVG Export Plug-In . SVG Version: 6.00 Build 0)  -->
<!DOCTYPE svg PUBLIC "-//W3C//DTD SVG 1.1//EN" "http://www.w3.org/Graphics/SVG/1.1/DTD/svg11.dtd">
<svg version="1.1" id="Layer_1" xmlns="http://www.w3.org/2000/svg" xmlns:xlink="http://www.w3.org/1999/xlink" x="0px" y="0px"
	 width="50px" height="50px" viewBox="0 0 50 50" enable-background="new 0 0 50 50" xml:space="preserve">
<g>
	<g>
		<path d="M16.878,41.414c-4.894,1.454-14.945-1.881-14.945-4.498c0,0-0.984-10.916,1.632-10.916h16.156
			c2.616,0,5.28,1.938,4.737,4.498C23.757,33.796,19.386,40.669,16.878,41.414z"/>
		<path d="M33.873,41.414c3.084,1.073,14.945-1.881,14.945-4.498c0,0,0.984-10.916-1.631-10.916H31.029
			c-2.615,0-5.279,1.938-4.735,4.498C26.994,33.796,31.402,40.554,33.873,41.414z"/>
		<path d="M39,28.65c0,1.298-1.577,2.35-3.521,2.35H16.522C14.577,31,13,29.948,13,28.65v-0.303C13,27.052,14.577,26,16.522,26
			h18.955C37.423,26,39,27.052,39,28.35V28.65z"/>
	</g>
	<g>
		<path d="M15.354,11.966c0.22-0.404,1.126-1.003,1.847-0.888c0.652,0.113,1.163,1.091,1.402,2.636l2.965-0.445
			c-0.614-3.968-2.68-4.896-3.855-5.101c-2.076-0.357-4.202,0.9-4.996,2.365C11.179,13.372,7.836,20,5.869,24h4.113
			C11.479,21,13.912,14.627,15.354,11.966z"/>
		<path d="M38.034,10.536c-0.794-1.465-2.92-2.771-4.996-2.413c-1.177,0.203-3.241,1.164-3.854,5.132l2.965,0.473
			c0.238-1.545,0.75-2.49,1.401-2.604c0.722-0.116,1.627,0.435,1.847,0.839C36.839,14.624,39.273,21,40.77,24h4.112
			C42.915,20,39.572,13.375,38.034,10.536z"/>
	</g>
</g>
</svg>
