<?xml version="1.0" encoding="utf-8"?>
<!-- Generator: Adobe Illustrator 16.0.0, SVG Export Plug-In . SVG Version: 6.00 Build 0)  -->
<!DOCTYPE svg PUBLIC "-//W3C//DTD SVG 1.1//EN" "http://www.w3.org/Graphics/SVG/1.1/DTD/svg11.dtd">
<svg version="1.1" id="Layer_1" xmlns="http://www.w3.org/2000/svg" xmlns:xlink="http://www.w3.org/1999/xlink" x="0px" y="0px"
	 width="50px" height="50px" viewBox="0 0 50 50" enable-background="new 0 0 50 50" xml:space="preserve">
<g>
	<path d="M48.482,31.844c0,0-0.008-0.404-0.055-2.604c-0.234,0.004-0.451-0.016-0.662-0.051l0.519,0.017
		c0,0-5.146-25.222-7.7-24.048c-1.518,0.663-4.896,4.651-4.063,5.638c1.028,0.645,3.088-3.402,3.781-3.061
		c2.53,5.269,4.611,17.287,5.146,20.554c-0.371-0.188-0.764-0.383-1.203-0.559c-1.643-0.674-3.928-0.896-8.266-0.808
		c-4.338,0.093-6.779,1.552-8.994,3.308c-0.486-0.188-1.082-0.273-1.564-0.315c-0.105-0.003-0.215-0.022-0.444-0.019
		c-0.264,0.006-0.343,0.032-0.446,0.035c-0.482,0.063-1.07,0.176-1.551,0.385c-2.285-1.662-4.784-3.022-9.123-2.931
		c-4.338,0.089-6.611,0.406-8.222,1.148c-0.426,0.192-0.802,0.399-1.157,0.599c0.817-3.646,3.493-14.944,6.229-19.896
		c0.714-0.301,2.536,3.857,3.603,3.272c0.89-0.938-2.26-5.114-3.735-5.86C8.091,5.331,1.518,30.22,1.518,30.22
		c0.045,2.197,0.054,2.604,0.054,2.604s0.705,0.011,0.879,0.389c0.169,0.378-0.955,8.947,4.783,10.859
		c5.738,1.918,10.969,0.263,13.66-3.213c2.835-3.654,2.387-7.894,2.387-7.894s0.667-0.528,1.563-0.548
		c0.093-0.002,0.253-0.021,0.373-0.009c0.895-0.017,1.583,0.485,1.583,0.485s-0.267,4.25,2.716,7.783
		c2.836,3.357,8.129,4.793,13.783,2.641c5.651-2.152,4.17-10.668,4.327-11.053C47.777,31.885,48.482,31.844,48.482,31.844z"/>
</g>
</svg>
