<?xml version="1.0" encoding="utf-8"?>
<!-- Generator: Adobe Illustrator 16.0.0, SVG Export Plug-In . SVG Version: 6.00 Build 0)  -->
<!DOCTYPE svg PUBLIC "-//W3C//DTD SVG 1.1//EN" "http://www.w3.org/Graphics/SVG/1.1/DTD/svg11.dtd">
<svg version="1.1" id="Layer_1" xmlns="http://www.w3.org/2000/svg" xmlns:xlink="http://www.w3.org/1999/xlink" x="0px" y="0px"
	 width="50px" height="50px" viewBox="0 0 50 50" enable-background="new 0 0 50 50" xml:space="preserve">
<g>
	<g>
		<path d="M39.313,24.999c0,11.122-6.426,20.171-14.313,20.171c-7.893,0-14.31-9.049-14.31-20.171
			c0-11.118,6.417-20.168,14.31-20.168C32.887,4.831,39.313,13.881,39.313,24.999z M24.998,3.217
			c-8.779,0-15.927,9.771-15.927,21.782c0,12.015,7.147,21.784,15.927,21.784c8.781,0,15.926-9.771,15.926-21.784
			C40.924,12.988,33.779,3.217,24.998,3.217z"/>
	</g>
	<g>
		<path d="M31.107,24.999c0,11.886-3.222,20.171-6.109,20.171c-2.892,0-6.108-8.285-6.108-20.171
			c0-11.887,3.217-20.168,6.108-20.168C27.887,4.831,31.107,13.112,31.107,24.999z M24.998,3.217
			c-5.017,0-7.725,11.223-7.725,21.782c0,10.562,2.708,21.784,7.725,21.784c5.014,0,7.727-11.223,7.727-21.784
			C32.725,14.439,30.012,3.217,24.998,3.217z"/>
	</g>
	<g>
		<path d="M45.17,24.999c0,11.122-9.049,20.171-20.172,20.171c-11.12,0-20.169-9.049-20.169-20.171
			c0-11.118,9.049-20.168,20.169-20.168C36.121,4.831,45.17,13.881,45.17,24.999z M24.998,3.217c-12.011,0-21.78,9.771-21.78,21.782
			c0,12.015,9.77,21.784,21.78,21.784c12.014,0,21.783-9.771,21.783-21.784C46.781,12.988,37.012,3.217,24.998,3.217z"/>
	</g>
	<g>
		<rect x="4.236" y="24.844" width="41.523" height="1.615"/>
	</g>
	<g>
		<rect x="6.911" y="13.954" width="36.177" height="1.616"/>
	</g>
	<g>
		<rect x="6.911" y="35.738" width="36.177" height="1.611"/>
	</g>
</g>
</svg>
