<?xml version="1.0" encoding="utf-8"?>
<!-- Generator: Adobe Illustrator 16.0.0, SVG Export Plug-In . SVG Version: 6.00 Build 0)  -->
<!DOCTYPE svg PUBLIC "-//W3C//DTD SVG 1.1//EN" "http://www.w3.org/Graphics/SVG/1.1/DTD/svg11.dtd">
<svg version="1.1" id="Layer_1" xmlns="http://www.w3.org/2000/svg" xmlns:xlink="http://www.w3.org/1999/xlink" x="0px" y="0px"
	 width="50px" height="50px" viewBox="0 0 50 50" enable-background="new 0 0 50 50" xml:space="preserve">
<g>
	<path d="M7.431,37.74c0,3.147,2.97,5.004,6.988,5.004h0.05c4.12,0,7.709-2.252,7.759-5.51c0-3.654-4.021-4.439-9.627-5.453
		c-0.62-0.113-0.955-0.113-1.482,0.225C9.441,33.189,7.431,35.039,7.431,37.74z"/>
	<path d="M15.042,7.889c-3.73,0-5.554,3.824-5.554,8.489c0,4.441,2.299,7.194,5.028,7.194h0.044c2.828,0,5.32-2.416,5.32-8.092
		C19.881,11.151,18.207,7.889,15.042,7.889z"/>
	<path d="M41.018,1.796H8.983c-3.967,0-7.188,3.221-7.188,7.187V41.02c0,3.968,3.221,7.185,7.188,7.185h32.035
		c3.967,0,7.187-3.217,7.187-7.185V8.983C48.204,5.018,44.984,1.796,41.018,1.796z M26.102,8.115L21.65,8.789
		c1.485,1.348,2.298,3.767,2.298,5.959c0,5.563-3.686,8.825-8.616,9.668c-0.622,0.114-1.481,0.282-2.346,0.676
		c-1.916,0.618-3.685,1.518-3.685,2.305c0,1.015,3.542,1.576,6.797,2.08c6.223,0.845,10.054,1.91,10.054,6.017
		c0,4.664-5.121,8.264-12.831,8.264c-5.843,0-10.056-1.854-10.056-5.395c0-2.589,1.961-3.826,7.374-7.146
		c-1.485-0.391-2.97-0.949-3.734-1.402c-0.577-0.338-0.91-0.957-0.91-2.139c0-0.447,0.094-0.617,0.381-0.785
		c1.821-0.844,3.736-1.742,5.221-2.417c-3.254-0.563-6.224-3.317-6.224-7.311v-0.052c0-5.679,4.26-10.176,10.294-10.176
		c1.672,0,2.728,0.224,3.542,0.336c0.384,0.11,0.767,0.11,1.146,0.11l5.938-0.055c0.099,0,0.146,0.055,0.146,0.112
		C26.438,7.721,26.293,8.115,26.102,8.115z M46.74,16.373h-7.594v7.593h-2.533v-7.593h-7.596v-2.53h7.596V6.249h2.533v7.593h7.594
		V16.373z"/>
</g>
</svg>
