<?xml version="1.0" encoding="utf-8"?>
<!-- Generator: Adobe Illustrator 16.0.0, SVG Export Plug-In . SVG Version: 6.00 Build 0)  -->
<!DOCTYPE svg PUBLIC "-//W3C//DTD SVG 1.1//EN" "http://www.w3.org/Graphics/SVG/1.1/DTD/svg11.dtd">
<svg version="1.1" id="Layer_1" xmlns="http://www.w3.org/2000/svg" xmlns:xlink="http://www.w3.org/1999/xlink" x="0px" y="0px"
	 width="50px" height="50px" viewBox="0 0 50 50" enable-background="new 0 0 50 50" xml:space="preserve">
<g>
	<g>
		<path d="M4.169,16.627C4.169,10.6,8.696,5.83,15.097,5.83c1.78,0,2.894,0.236,3.757,0.356c0.406,0.119,0.813,0.119,1.219,0.119
			l6.298-0.059c0.105,0,0.154,0.059,0.154,0.117c0,0.303-0.154,0.717-0.356,0.717l-4.723,0.718c1.576,1.431,2.438,3.997,2.438,6.321
			c0,5.906-3.911,9.366-9.144,10.26c-0.661,0.121-1.576,0.3-2.489,0.717c-2.035,0.656-3.914,1.611-3.914,2.444
			c0,1.075,3.76,1.672,7.214,2.207c6.606,0.896,10.672,2.03,10.672,6.385c0,4.95-5.438,8.769-13.615,8.769
			c-6.198,0-10.67-1.967-10.67-5.728c0-2.739,2.085-4.057,7.821-7.578c-1.575-0.415-3.147-1.011-3.962-1.487
			c-0.607-0.359-0.964-1.017-0.964-2.267c0-0.479,0.105-0.657,0.406-0.837c1.928-0.893,3.962-1.849,5.539-2.564
			c-3.454-0.597-6.608-3.517-6.608-7.757L4.169,16.627L4.169,16.627z M13.827,43.829c4.368,0,8.176-2.39,8.229-5.851
			c0-3.875-4.269-4.709-10.213-5.783c-0.663-0.119-1.016-0.119-1.576,0.238c-1.775,1.254-3.912,3.222-3.912,6.084
			c0,3.34,3.15,5.312,7.418,5.312H13.827z M13.926,23.486c2.997,0,5.639-2.563,5.639-8.592c0-4.591-1.776-8.051-5.127-8.051
			c-3.967,0-5.895,4.057-5.895,9.008c0,4.713,2.438,7.635,5.338,7.635H13.926z"/>
	</g>
	<rect x="29.266" y="13.158" width="18.799" height="2.688"/>
	<rect x="37.32" y="5.1" width="2.688" height="18.802"/>
</g>
</svg>
