<?xml version="1.0" encoding="utf-8"?>
<!-- Generator: Adobe Illustrator 16.0.0, SVG Export Plug-In . SVG Version: 6.00 Build 0)  -->
<!DOCTYPE svg PUBLIC "-//W3C//DTD SVG 1.1//EN" "http://www.w3.org/Graphics/SVG/1.1/DTD/svg11.dtd">
<svg version="1.1" id="Layer_1" xmlns="http://www.w3.org/2000/svg" xmlns:xlink="http://www.w3.org/1999/xlink" x="0px" y="0px"
	 width="50px" height="50px" viewBox="0 0 50 50" enable-background="new 0 0 50 50" xml:space="preserve">
<g id="_x38__16_">
	<g>
		<path d="M19.601,33.375l1.436-7.14l-2.687-1.552l-2.039,14.393l11.441-8.963l-2.688-1.553L19.601,33.375z M24.999,1.361
			c-12.844,0-23.256,10.414-23.256,23.256c0,12.846,10.412,23.258,23.256,23.258c12.845,0,23.257-10.412,23.257-23.258
			C48.256,11.774,37.844,1.361,24.999,1.361z M24.991,44.771c-11.138,0-20.164-9.025-20.164-20.164
			c0-11.135,9.026-20.163,20.164-20.163c11.137,0,20.163,9.028,20.163,20.163C45.153,35.746,36.128,44.771,24.991,44.771z
			 M26.54,25.384c0-1.285-1.041-2.327-2.325-2.327s-2.327,1.042-2.327,2.327c0,1.284,1.042,2.327,2.327,2.327
			S26.54,26.668,26.54,25.384z M23.364,22.206l5.464-4.813l-1.436,7.14l2.686,1.552l2.043-14.392l-11.444,8.962L23.364,22.206z"/>
	</g>
</g>
</svg>
