<?xml version="1.0" encoding="utf-8"?>
<!-- Generator: Adobe Illustrator 16.0.0, SVG Export Plug-In . SVG Version: 6.00 Build 0)  -->
<!DOCTYPE svg PUBLIC "-//W3C//DTD SVG 1.1//EN" "http://www.w3.org/Graphics/SVG/1.1/DTD/svg11.dtd">
<svg version="1.1" id="Layer_1" xmlns="http://www.w3.org/2000/svg" xmlns:xlink="http://www.w3.org/1999/xlink" x="0px" y="0px"
	 width="50px" height="50px" viewBox="0 0 50 50" enable-background="new 0 0 50 50" xml:space="preserve">
<g>
	<g>
		<path d="M42.206,24.588c-0.14-0.058-0.291-0.09-0.451-0.09c-0.129,0-0.252,0.021-0.369,0.059
			c-0.471,0.156-0.811,0.598-0.811,1.121c0,0.648,0.528,1.178,1.18,1.178s1.179-0.529,1.179-1.178
			C42.934,25.186,42.634,24.768,42.206,24.588z"/>
		<path d="M40,28.46c0,0.006,0,0.013,0,0.017C40,28.559,40.669,29,40.753,29h2.004c0.084,0,0.15-0.471,0.158-0.553
			c0-0.004,0.002,0.054,0.002,0.048c0-0.087-0.071-0.495-0.16-0.495h-2.004C40.663,28,40,28.374,40,28.46z"/>
		<path d="M48.652,18.395L25.814,10.68c-0.556-0.125-1.021-0.137-1.676,0.027L1.357,18.758c-0.133,0.131-0.18,0.316-0.142,0.484
			c0.02,0.088,0.063,0.172,0.133,0.238l22.331,8.243c1.148,0.338,1.533,0.28,2.229,0.036l13.572-5.08
			c-1.111-0.287-5.226-2.863-12.445-2.912c0.002,0.022,0.006,0.046,0.006,0.069c0,0.658-0.938,1.192-2.095,1.192
			c-1.156,0-2.095-0.534-2.095-1.192c0-0.657,0.939-1.19,2.095-1.19c0.145,0,0.283,0.008,0.418,0.023
			c7.196-0.37,15.823,2.231,17.601,2.457l5.68-2.008c0.072-0.074,0.121-0.166,0.142-0.26C48.82,18.696,48.775,18.521,48.652,18.395z
			"/>
	</g>
	<g>
		<path d="M41.925,30.507C40.775,30.698,40.846,34,40.788,37h2.272C43.005,34,42.964,30.334,41.925,30.507z"/>
	</g>
	<path d="M36.975,25.658L26,29.954v9.461c2-0.823,4.174-4.535,9.688-4.535c1.037,0,2.313,0.197,2.313-0.242v-9.016L36.975,25.658z"
		/>
	<g>
		<path d="M24,30.114c0-0.031-0.222-0.069-0.38-0.115l-11.795-4.438L11,25.592v9.258c6,0.402,10,3.663,13,4.528V30.114z"/>
	</g>
</g>
</svg>
