<?xml version="1.0" encoding="utf-8"?>
<!-- Generator: Adobe Illustrator 16.0.0, SVG Export Plug-In . SVG Version: 6.00 Build 0)  -->
<!DOCTYPE svg PUBLIC "-//W3C//DTD SVG 1.1//EN" "http://www.w3.org/Graphics/SVG/1.1/DTD/svg11.dtd">
<svg version="1.1" id="Layer_1" xmlns="http://www.w3.org/2000/svg" xmlns:xlink="http://www.w3.org/1999/xlink" x="0px" y="0px"
	 width="50px" height="50px" viewBox="0 0 50 50" enable-background="new 0 0 50 50" xml:space="preserve">
<g>
	<path d="M27.451,24.742l-0.24-1.31c0.998-0.667,1.979-1.929,2.422-4.287c0.809-1.344,0-2.167,0-2.167v-2.022
		c-0.012-0.055-0.029-0.098-0.041-0.151c-0.045-0.607-0.145-1.238-0.338-1.814c-0.688-0.699-1.783-1.775-4.464-1.881
		c-1.862-0.065-3.725,0.56-4.509,1.13c-0.367,0.543-0.597,1.21-0.741,1.89c-0.084,0.223-0.163,0.457-0.222,0.718v2.02
		c0,0-0.81,0.824,0,2.171c0.43,2.282,1.365,3.533,2.332,4.22l-0.132,1.414c-0.602,0.297-2.437,1.21-4.268,2.197
		c-2.093-1.029-4.371-1.813-4.371-1.813l-0.211-1.163c0.757-0.512,1.503-1.473,1.842-3.271c0.247-0.409,0.29-1.051,0.256-1.513
		c0.072-0.599,0.209-2.238-0.227-3.543c-0.555-0.565-1.452-1.442-3.63-1.531c-1.518-0.053-3.034,0.454-3.673,0.92
		c-0.743,1.103-0.814,2.821-0.771,3.791c-0.104,0.469-0.15,1.244,0.18,1.793c0.33,1.742,1.043,2.693,1.78,3.215l-0.121,1.301
		c0,0-5.133,2.299-6.268,3.326c-1.056,0.951-1.955,3.761-1.168,4.951c2.596,1.269,5.889,2.142,9.362,2.303
		c-0.342-1.786,0.673-4.588,1.846-5.645c0.404-0.363,1.201-0.854,2.141-1.373c-0.423,0.272-0.776,0.521-0.998,0.72
		c-1.38,1.246-2.562,4.941-1.529,6.497c7.092,3.472,18.146,4.698,27.044-0.139c0.645-1.193-0.574-4.121-1.256-5.291
		C35.912,28.139,30.199,25.304,27.451,24.742z"/>
	<path d="M47.963,28.113c-1.135-1.026-6.268-3.326-6.268-3.326l-0.121-1.301c0.736-0.522,1.449-1.473,1.779-3.215
		c0.328-0.549,0.285-1.324,0.181-1.793c0.044-0.969-0.028-2.688-0.771-3.791c-0.64-0.467-2.156-0.974-3.675-0.921
		c-2.178,0.089-3.073,0.966-3.629,1.531c-0.438,1.305-0.299,2.944-0.229,3.543c-0.031,0.462,0.011,1.104,0.259,1.513
		c0.337,1.799,1.084,2.759,1.842,3.271l-0.211,1.163c0,0-2.425,0.833-4.565,1.909c2.022,0.98,4.53,2.271,5.367,3.026
		c1.174,1.057,2.188,3.858,1.846,5.645c3.475-0.161,6.768-1.034,9.361-2.303C49.918,31.874,49.018,29.064,47.963,28.113z"/>
</g>
</svg>
