<?xml version="1.0" encoding="utf-8"?>
<!-- Generator: Adobe Illustrator 16.0.0, SVG Export Plug-In . SVG Version: 6.00 Build 0)  -->
<!DOCTYPE svg PUBLIC "-//W3C//DTD SVG 1.1//EN" "http://www.w3.org/Graphics/SVG/1.1/DTD/svg11.dtd">
<svg version="1.1" id="Layer_1" xmlns="http://www.w3.org/2000/svg" xmlns:xlink="http://www.w3.org/1999/xlink" x="0px" y="0px"
	 width="50px" height="50px" viewBox="0 0 50 50" enable-background="new 0 0 50 50" xml:space="preserve">
<g>
	<g>
		<g>
			<path d="M14.102,0.646c-2.75,0-5,2.25-5,5v38.709c0,2.75,2.25,5,5,5h21.796c2.75,0,5-2.25,5-5V5.646c0-2.75-2.25-5-5-5H14.102z
				 M25,45.521c-4.611,0-8.344-3.735-8.344-8.346c0-4.605,3.733-8.343,8.344-8.343c4.605,0,8.344,3.735,8.344,8.343
				C33.344,41.786,29.605,45.521,25,45.521z M38.73,19.662c0,2.75-2.25,5-5,5H16.268c-2.75,0-5-2.25-5-5V8.352c0-2.75,2.25-5,5-5
				H33.73c2.75,0,5,2.25,5,5V19.662z"/>
		</g>
	</g>
	<circle cx="25" cy="37.18" r="3.214"/>
</g>
</svg>
