<?xml version="1.0" encoding="utf-8"?>
<!-- Generator: Adobe Illustrator 16.0.0, SVG Export Plug-In . SVG Version: 6.00 Build 0)  -->
<!DOCTYPE svg PUBLIC "-//W3C//DTD SVG 1.1//EN" "http://www.w3.org/Graphics/SVG/1.1/DTD/svg11.dtd">
<svg version="1.1" id="Layer_1" xmlns="http://www.w3.org/2000/svg" xmlns:xlink="http://www.w3.org/1999/xlink" x="0px" y="0px"
	 width="50px" height="50px" viewBox="0 0 50 50" enable-background="new 0 0 50 50" xml:space="preserve">
<g>
	<g>
		<path d="M18.8,25.745H6.968c-3.002,0-5.435,2.43-5.435,5.432v11.834c0,2.998,2.433,5.433,5.435,5.433H18.8
			c3.002,0,5.435-2.435,5.435-5.433V31.177C24.235,28.175,21.802,25.745,18.8,25.745z M16.452,41.497
			c-0.901,0.719-2.41,1.121-4.873,1.121c-1.381,0-2.41-0.088-3.033-0.181V30.28c0.734-0.146,2.204-0.277,3.621-0.277
			c1.711,0,2.76,0.166,3.662,0.699c0.862,0.461,1.469,1.307,1.469,2.442c0,1.088-0.644,2.101-2.023,2.633v0.039
			c1.417,0.363,2.464,1.451,2.464,3.052C17.738,40.009,17.225,40.893,16.452,41.497z"/>
		<path d="M14.504,33.479c0-0.938-0.718-1.435-1.986-1.435c-0.626,0-0.978,0.037-1.198,0.092v2.869h0.921
			C13.731,35.005,14.504,34.398,14.504,33.479z"/>
		<path d="M12.28,37.011h-0.96v3.492c0.274,0.058,0.61,0.058,1.087,0.058c1.269,0,2.393-0.496,2.393-1.806
			C14.799,37.509,13.675,37.011,12.28,37.011z"/>
	</g>
	<path d="M43.035,25.745H31.199c-3,0-5.432,2.43-5.432,5.432v11.834c0,2.998,2.432,5.433,5.432,5.433h11.836
		c3,0,5.432-2.435,5.432-5.433V31.177C48.467,28.175,46.035,25.745,43.035,25.745z M39.186,40.357c0.865,0,1.783-0.166,2.354-0.405
		l0.405,2.209c-0.497,0.237-1.674,0.53-3.163,0.53c-4.285,0-6.492-2.684-6.492-6.233c0-4.229,3.017-6.563,6.769-6.563
		c1.452,0,2.557,0.295,3.053,0.551l-0.588,2.209c-0.553-0.24-1.342-0.461-2.354-0.461c-2.207,0-3.938,1.344-3.938,4.119
		C35.23,38.792,36.703,40.357,39.186,40.357z"/>
	<g>
		<path d="M26.299,10.399c-0.201-0.736-0.422-1.676-0.607-2.393h-0.056c-0.163,0.734-0.367,1.676-0.552,2.393l-0.753,2.631h2.739
			L26.299,10.399z"/>
		<path d="M19.958,24.255h11.837c3,0,5.432-2.43,5.432-5.43V6.991c0-3-2.432-5.434-5.432-5.434H19.958
			c-2.997,0-5.432,2.434-5.432,5.434v11.834C14.526,21.825,16.96,24.255,19.958,24.255z M23.945,5.909h3.661l3.861,12.396h-3.016
			l-0.957-3.182h-3.567l-0.864,3.182h-2.906L23.945,5.909z"/>
	</g>
</g>
</svg>
