<?xml version="1.0" encoding="utf-8"?>
<!-- Generator: Adobe Illustrator 16.0.0, SVG Export Plug-In . SVG Version: 6.00 Build 0)  -->
<!DOCTYPE svg PUBLIC "-//W3C//DTD SVG 1.1//EN" "http://www.w3.org/Graphics/SVG/1.1/DTD/svg11.dtd">
<svg version="1.1" id="Layer_1" xmlns="http://www.w3.org/2000/svg" xmlns:xlink="http://www.w3.org/1999/xlink" x="0px" y="0px"
	 width="50px" height="50px" viewBox="0 0 50 50" enable-background="new 0 0 50 50" xml:space="preserve">
<g>
	<g>
		<path d="M42.465,29.527L30.398,17.439c-1.144,1.582-1.898,2.136-2.898,2.796v0.005c0,1.354-1.123,2.454-2.479,2.454
			s-2.465-1.099-2.465-2.454c0-1.356,1.092-2.455,2.45-2.455c0.794,0,1.496,0.379,1.945,0.965c0.348-0.375,1.759-1.898,2.251-2.487
			l-2.782-2.782c-0.783-0.785-2.057-0.784-2.84,0L7.535,29.527c-0.785,0.783-0.785,2.056,0,2.84L23.58,48.412
			c0.783,0.784,2.055,0.784,2.84,0l16.045-16.045C43.248,31.583,43.248,30.313,42.465,29.527z"/>
	</g>
	<g>
		<path d="M25.173,21.433c-0.389,0-0.744-0.103-1.056-0.306c-3.095-2.01,2.235-10.41,2.853-11.361
			c2.003-3.086,6.521-8.922,9.284-8.922c0.335,0,0.638,0.086,0.899,0.256c1.128,0.733,1.081,2.682-0.138,5.792
			c-0.984,2.511-2.546,5.268-3.679,7.01C31.08,17.377,27.587,21.433,25.173,21.433z M36.254,1.155c-2.438,0-6.732,5.251-9.023,8.78
			c-2.03,3.124-5.257,9.429-2.945,10.931c0.261,0.169,0.56,0.256,0.887,0.256c2.448,0,6.12-4.645,7.904-7.388
			c1.124-1.73,2.673-4.466,3.648-6.955c0.797-2.031,1.487-4.62,0.258-5.418C36.773,1.225,36.527,1.155,36.254,1.155z M25.173,19.718
			l-0.129-0.017l-0.037-0.053c-0.156-0.227-0.257-1.103,0.359-2.943c0.595-1.771,1.673-3.905,3.037-6.007
			c1.262-1.944,3.776-5.339,5.216-6.659c1.591-1.456,2.343-1.53,2.478-1.53l0.13,0.017l0.037,0.054
			c0.155,0.229,0.254,1.107-0.361,2.941c-0.616,1.84-2.709,5.464-3.998,7.45c-1.365,2.101-2.877,3.953-4.257,5.216
			C26.061,19.645,25.308,19.718,25.173,19.718z M36.032,2.826c-0.295,0.046-1.048,0.385-2.202,1.443
			c-1.303,1.194-3.723,4.376-5.165,6.599c-1.351,2.081-2.418,4.189-3.004,5.937c-0.525,1.567-0.488,2.353-0.425,2.596
			c0.308-0.049,1.058-0.392,2.202-1.441c1.361-1.246,2.854-3.077,4.206-5.156c1.28-1.973,3.356-5.566,3.964-7.38
			C36.133,3.858,36.096,3.07,36.032,2.826z"/>
	</g>
</g>
</svg>
