<?xml version="1.0" encoding="utf-8"?>
<!-- Generator: Adobe Illustrator 16.0.0, SVG Export Plug-In . SVG Version: 6.00 Build 0)  -->
<!DOCTYPE svg PUBLIC "-//W3C//DTD SVG 1.1//EN" "http://www.w3.org/Graphics/SVG/1.1/DTD/svg11.dtd">
<svg version="1.1" id="Layer_1" xmlns="http://www.w3.org/2000/svg" xmlns:xlink="http://www.w3.org/1999/xlink" x="0px" y="0px"
	 width="50px" height="50px" viewBox="0 0 50 50" enable-background="new 0 0 50 50" xml:space="preserve">
<g>
	<g>
		<g>
			<path d="M24.947,20.115c-0.364,0-0.697-0.096-0.99-0.287c-1.066-0.692-1.176-2.289-0.325-4.746c0.86-2.484,2.382-4.954,2.998-5.9
				c1.879-2.892,6.116-8.36,8.701-8.36c0.313,0,0.597,0.081,0.842,0.24c2.344,1.522-1.313,8.513-3.573,11.997
				C30.481,16.314,27.206,20.115,24.947,20.115z M35.33,1.113c-2.281,0-6.308,4.921-8.457,8.229
				c-1.269,1.952-2.377,4.133-2.966,5.836c-0.551,1.591-0.961,3.647,0.208,4.407c0.245,0.159,0.524,0.24,0.832,0.24
				c2.292,0,5.735-4.352,7.408-6.923c2.466-3.8,5.64-10.308,3.659-11.594C35.813,1.176,35.59,1.113,35.33,1.113z M24.946,18.508
				L24.946,18.508c-0.025,0-0.047-0.002-0.063-0.005l-0.06-0.011l-0.034-0.051c-0.146-0.215-0.239-1.039,0.337-2.756
				c0.561-1.667,1.571-3.666,2.848-5.63c1.186-1.825,3.545-5.008,4.888-6.24c1.488-1.365,2.193-1.434,2.319-1.434
				c0.026,0,0.048,0.002,0.064,0.005l0.058,0.011l0.034,0.048c0.147,0.21,0.243,1.029-0.338,2.758
				c-0.575,1.722-2.537,5.12-3.747,6.981c-1.277,1.967-2.693,3.703-3.986,4.888C25.778,18.439,25.073,18.508,24.946,18.508z
				 M35.123,2.678c-0.275,0.042-0.981,0.359-2.064,1.353c-1.216,1.114-3.484,4.097-4.841,6.184c-1.263,1.944-2.263,3.92-2.815,5.564
				c-0.492,1.463-0.457,2.202-0.397,2.432c0.289-0.046,0.991-0.367,2.063-1.351c1.276-1.169,2.675-2.885,3.939-4.832
				c1.201-1.85,3.147-5.217,3.716-6.916C35.219,3.637,35.183,2.903,35.123,2.678z"/>
		</g>
	</g>
	<g>
		<path d="M26.234,19.629c-0.25,0.576-0.804,0.976-1.484,0.976c-0.93,0-1.656-0.755-1.656-1.686c0-0.932,0.771-1.687,1.701-1.687
			c0.547,0,1.038,0.261,1.346,0.664c0.199-0.214,0.922-0.743,1.308-1.114l-1.224-2.508c-0.727-0.986-2.271-0.946-2.833,0
			L8.258,45.066C7.17,47.195,9.063,49.5,10.487,49.5h28.666c1.422,0,3.733-1.941,2.619-4.434l-13.59-26.588
			C27.682,18.872,26.65,19.379,26.234,19.629z"/>
	</g>
</g>
</svg>
