<?xml version="1.0" encoding="utf-8"?>
<!-- Generator: Adobe Illustrator 16.0.0, SVG Export Plug-In . SVG Version: 6.00 Build 0)  -->
<!DOCTYPE svg PUBLIC "-//W3C//DTD SVG 1.1//EN" "http://www.w3.org/Graphics/SVG/1.1/DTD/svg11.dtd">
<svg version="1.1" id="Layer_1" xmlns="http://www.w3.org/2000/svg" xmlns:xlink="http://www.w3.org/1999/xlink" x="0px" y="0px"
	 width="50px" height="50px" viewBox="0 0 50 50" enable-background="new 0 0 50 50" xml:space="preserve">
<g>
	<g>
		<g>
			<path d="M25.127,19.655c-0.355,0-0.679-0.094-0.964-0.279c-1.039-0.675-1.145-2.23-0.316-4.625
				c0.837-2.42,2.321-4.825,2.92-5.747c1.831-2.817,5.958-8.146,8.477-8.146c0.306,0,0.581,0.079,0.82,0.234
				c1.03,0.669,0.988,2.449-0.125,5.289c-0.898,2.292-2.324,4.81-3.358,6.401C30.521,15.953,27.333,19.655,25.127,19.655z
				 M35.243,1.143c-2.223,0-6.145,4.794-8.238,8.016c-1.235,1.901-2.316,4.026-2.89,5.685c-0.537,1.55-0.937,3.553,0.203,4.293
				c0.239,0.155,0.511,0.234,0.81,0.234c2.237,0,5.587-4.239,7.214-6.744c1.027-1.58,2.441-4.078,3.332-6.35
				c0.728-1.854,1.358-4.217,0.235-4.947C35.717,1.206,35.493,1.143,35.243,1.143z M25.128,18.089c-0.025,0-0.046-0.002-0.063-0.005
				l-0.057-0.011l-0.033-0.048c-0.143-0.207-0.235-1.006,0.328-2.687c0.544-1.621,1.529-3.568,2.773-5.484
				c1.152-1.775,3.448-4.875,4.764-6.08c1.449-1.33,2.137-1.397,2.26-1.397c0.024,0,0.045,0.002,0.061,0.005l0.059,0.011l0.034,0.05
				c0.142,0.211,0.231,1.014-0.331,2.686c-0.564,1.687-2.475,4.993-3.65,6.802c-1.246,1.917-2.626,3.608-3.885,4.762
				C25.938,18.022,25.251,18.089,25.128,18.089z M35.041,2.667c-0.27,0.042-0.956,0.351-2.01,1.317
				c-1.189,1.089-3.399,3.995-4.717,6.025c-1.231,1.896-2.205,3.821-2.742,5.419c-0.479,1.433-0.446,2.149-0.388,2.371
				c0.281-0.044,0.965-0.356,2.011-1.315c1.241-1.139,2.604-2.811,3.838-4.708c1.134-1.745,3.068-5.092,3.619-6.738
				C35.134,3.61,35.1,2.89,35.041,2.667z"/>
		</g>
	</g>
	<g>
		<path d="M31.703,13.883c-0.49,0.737-2.416,3.518-3.955,4.216c0.014,0.109,0.021,0.219,0.021,0.332c0,1.53-1.24,2.771-2.771,2.771
			s-2.771-1.241-2.771-2.771c0-1.53,1.242-2.771,2.771-2.771c0.955,0,1.729,0.37,2.229,1.105c0.457-0.485,2.094-2.093,2.719-3.476
			c-1.574-0.444-3.232-0.687-4.947-0.687c-10.051,0-18.199,8.148-18.199,18.198C6.801,40.854,14.949,49,25,49
			s18.199-8.146,18.199-18.199C43.199,23.119,38.436,16.553,31.703,13.883z"/>
	</g>
</g>
</svg>
