<?xml version="1.0" encoding="utf-8"?>
<!-- Generator: Adobe Illustrator 16.0.0, SVG Export Plug-In . SVG Version: 6.00 Build 0)  -->
<!DOCTYPE svg PUBLIC "-//W3C//DTD SVG 1.1//EN" "http://www.w3.org/Graphics/SVG/1.1/DTD/svg11.dtd">
<svg version="1.1" id="Layer_1" xmlns="http://www.w3.org/2000/svg" xmlns:xlink="http://www.w3.org/1999/xlink" x="0px" y="0px"
	 width="50px" height="50px" viewBox="0 0 50 50" enable-background="new 0 0 50 50" xml:space="preserve">
<g>
	<g>
		<g>
			<path d="M25.146,17.154c-0.308,0-0.59-0.082-0.838-0.243c-0.902-0.586-0.994-1.937-0.274-4.016
				c0.727-2.101,2.016-4.189,2.535-4.99c1.589-2.446,5.172-7.072,7.359-7.072c0.265,0,0.504,0.068,0.712,0.203
				c0.895,0.581,0.857,2.125-0.108,4.591c-0.779,1.989-2.018,4.175-2.915,5.558C29.829,13.939,27.062,17.154,25.146,17.154z
				 M33.929,1.08c-1.931,0-5.335,4.163-7.152,6.96c-1.073,1.652-2.011,3.497-2.51,4.937c-0.466,1.346-0.813,3.085,0.176,3.728
				c0.208,0.135,0.444,0.203,0.704,0.203c1.942,0,4.852-3.681,6.264-5.855c0.892-1.373,2.12-3.543,2.893-5.514
				c0.631-1.61,1.178-3.662,0.203-4.294C34.34,1.135,34.146,1.08,33.929,1.08z M25.145,15.794L25.145,15.794l-0.104-0.014
				l-0.029-0.042c-0.124-0.181-0.203-0.876,0.286-2.333c0.469-1.402,1.325-3.093,2.409-4.762c1.001-1.542,2.994-4.233,4.135-5.278
				c1.258-1.154,1.855-1.212,1.962-1.212c0.021,0,0.039,0.001,0.054,0.004l0.05,0.009l0.029,0.042
				c0.124,0.18,0.204,0.874-0.285,2.333c-0.488,1.458-2.147,4.331-3.17,5.905c-1.08,1.663-2.279,3.131-3.375,4.135
				C25.848,15.736,25.252,15.794,25.145,15.794z M33.754,2.404c-0.233,0.036-0.83,0.304-1.746,1.144
				c-1.031,0.945-2.949,3.467-4.094,5.23c-1.073,1.652-1.919,3.324-2.382,4.706c-0.417,1.242-0.388,1.865-0.337,2.059
				c0.245-0.04,0.838-0.311,1.746-1.142c1.081-0.991,2.265-2.442,3.334-4.088c1.016-1.563,2.662-4.411,3.143-5.849
				C33.835,3.219,33.805,2.596,33.754,2.404z"/>
		</g>
	</g>
	<path d="M35.469,22.369c0.002-0.299-0.083-0.599-0.312-0.828l-6.617-6.583c0,0-1.804,1.478-2.313,1.784
		c-0.211,0.488-0.678,0.827-1.251,0.827c-0.787,0-1.399-0.639-1.399-1.427c0-0.789,0.652-1.427,1.441-1.427
		c0.463,0,0.877,0.221,1.14,0.562c0.2-0.218,1.089-1.038,1.376-1.381l-1.68-1.683c-0.455-0.456-1.194-0.456-1.649,0l-9.326,9.328
		c-0.24,0.239-0.333,0.554-0.321,0.867c-0.049,0.179-0.057,0.366-0.057,0.56v23.546c0,1.203,0.94,2.986,2.144,2.986h16.788
		c1.204,0,2.068-1.783,2.068-2.986V22.968C35.5,22.76,35.523,22.56,35.469,22.369z"/>
</g>
</svg>
