<?xml version="1.0" encoding="utf-8"?>
<!-- Generator: Adobe Illustrator 16.0.0, SVG Export Plug-In . SVG Version: 6.00 Build 0)  -->
<!DOCTYPE svg PUBLIC "-//W3C//DTD SVG 1.1//EN" "http://www.w3.org/Graphics/SVG/1.1/DTD/svg11.dtd">
<svg version="1.1" id="Layer_1" xmlns="http://www.w3.org/2000/svg" xmlns:xlink="http://www.w3.org/1999/xlink" x="0px" y="0px"
	 width="50px" height="50px" viewBox="0 0 50 50" enable-background="new 0 0 50 50" xml:space="preserve">
<g>
	<path d="M44.791,44.049c-0.021-0.058-0.057-0.107-0.098-0.15l-18.18-18.14c-0.172-0.198-0.228-0.482-0.144-0.72v-0.011
		c1.36-4.017,0.342-8.371-2.662-11.367c-0.327-0.328-0.676-0.621-1.032-0.898c0.265-0.818,0.421-1.684,0.421-2.589
		c0-0.274-0.02-0.544-0.046-0.812c0.001,0.001,0.003,0.002,0.005,0.004c-0.002-0.016-0.006-0.029-0.007-0.044
		c-0.001-0.003-0.001-0.007-0.001-0.011c0.016,0.018,0.033,0.033,0.049,0.05c-0.055-0.575-0.168-1.134-0.333-1.671
		c-0.481-1.629-1.438-3.057-2.714-4.123c-0.049-0.035-0.096-0.074-0.141-0.109c-0.002-0.008-0.01-0.008-0.012-0.018
		c-0.048-0.031-0.09-0.066-0.135-0.1c-0.008-0.006-0.016-0.014-0.023-0.018c-0.045-0.03-0.086-0.063-0.126-0.095
		C19.6,3.219,19.59,3.208,19.582,3.201c-0.042-0.029-0.087-0.058-0.126-0.086c-0.014-0.011-0.029-0.02-0.039-0.029
		c-0.039-0.023-0.079-0.055-0.123-0.081C19.28,3,19.263,2.987,19.251,2.977c-0.039-0.027-0.08-0.05-0.117-0.079
		c-0.016-0.005-0.032-0.016-0.051-0.028c-0.036-0.021-0.08-0.047-0.12-0.074c-0.013-0.008-0.032-0.018-0.044-0.025
		c-0.043-0.023-0.082-0.047-0.124-0.068c-0.017-0.01-0.034-0.021-0.05-0.031c-0.042-0.021-0.084-0.041-0.123-0.065
		c-0.019-0.013-0.034-0.019-0.05-0.026c-0.042-0.025-0.085-0.044-0.126-0.065c-0.016-0.011-0.031-0.019-0.047-0.021
		c-0.045-0.023-0.088-0.044-0.131-0.068c-0.012-0.004-0.02-0.008-0.032-0.015c-0.159-0.073-0.323-0.147-0.491-0.212
		c-0.004-0.003-0.01-0.006-0.018-0.009c-0.037-0.015-0.078-0.028-0.118-0.047c-0.026-0.011-0.048-0.015-0.071-0.023
		c-0.036-0.016-0.07-0.028-0.109-0.041c-0.027-0.009-0.056-0.02-0.082-0.026C17.314,2.04,17.279,2.03,17.245,2.02
		c-0.031-0.013-0.061-0.023-0.092-0.031c-0.031-0.013-0.066-0.021-0.1-0.034c-0.032-0.005-0.063-0.016-0.095-0.023
		c-0.034-0.013-0.065-0.019-0.097-0.029c-0.037-0.008-0.068-0.021-0.104-0.028c-0.031-0.005-0.064-0.014-0.097-0.026
		c-0.032-0.006-0.067-0.013-0.103-0.023c-0.031-0.006-0.063-0.014-0.096-0.018c-0.035-0.009-0.068-0.017-0.104-0.024
		c-0.031-0.011-0.063-0.015-0.1-0.021c-0.031-0.008-0.065-0.016-0.102-0.021c-0.035-0.005-0.066-0.008-0.1-0.018
		c-0.037-0.004-0.068-0.008-0.108-0.016c-0.032-0.006-0.063-0.011-0.097-0.017c-0.034-0.005-0.07-0.011-0.11-0.015
		c-0.032-0.006-0.063-0.011-0.092-0.014c-0.042-0.006-0.079-0.008-0.115-0.014C15.499,1.646,15.47,1.64,15.438,1.64
		c-0.039-0.004-0.078-0.01-0.121-0.01c-0.028-0.003-0.057-0.008-0.092-0.008c-0.039-0.006-0.078-0.006-0.123-0.011
		c-0.025-0.003-0.058-0.003-0.084-0.003c-0.047-0.002-0.092-0.002-0.142-0.004C14.855,1.6,14.832,1.6,14.805,1.6
		c-0.07-0.002-0.144-0.002-0.212-0.002c-0.075,0-0.144,0-0.22,0.002c-0.023,0-0.051,0-0.074,0.004
		c-0.049,0.002-0.094,0.002-0.144,0.004c-0.029,0-0.058,0-0.093,0.006c-0.039,0.002-0.078,0.008-0.123,0.008
		c-0.031,0.003-0.061,0.005-0.092,0.008c-0.045,0.006-0.084,0.008-0.12,0.01c-0.034,0.006-0.071,0.008-0.103,0.014
		c-0.037,0.002-0.076,0.008-0.109,0.011c-0.037,0.005-0.074,0.011-0.111,0.015c-0.033,0.006-0.07,0.011-0.104,0.017
		c-0.034,0.005-0.073,0.011-0.11,0.019c-0.034,0.004-0.063,0.008-0.1,0.018c-0.037,0.003-0.078,0.014-0.115,0.021
		c-0.029,0.004-0.061,0.01-0.09,0.016c-0.041,0.01-0.086,0.019-0.125,0.028c-0.026,0.005-0.053,0.011-0.079,0.017
		c-0.044,0.01-0.089,0.021-0.132,0.027C12.526,1.855,12.5,1.86,12.477,1.864C12.43,1.875,12.384,1.889,12.34,1.9
		c-0.021,0.009-0.042,0.014-0.066,0.017c-0.047,0.016-0.092,0.028-0.136,0.039c-0.023,0.01-0.042,0.016-0.063,0.021
		c-0.047,0.015-0.094,0.031-0.141,0.046c-0.02,0.008-0.043,0.014-0.059,0.019c-0.05,0.016-0.097,0.034-0.141,0.051
		c-0.021,0.008-0.037,0.012-0.056,0.021c-0.048,0.02-0.101,0.034-0.149,0.056C11.515,2.176,11.5,2.18,11.49,2.184
		C11.442,2.2,11.384,2.222,11.337,2.24c-0.01,0.011-0.023,0.011-0.034,0.019c-0.056,0.022-0.106,0.043-0.163,0.067
		c-0.008,0.005-0.018,0.011-0.025,0.015c-0.053,0.021-0.109,0.048-0.162,0.071c-0.012,0.005-0.016,0.009-0.027,0.013
		c-0.057,0.027-0.109,0.059-0.168,0.084c-0.002,0.003-0.005,0.005-0.016,0.008c-0.058,0.031-0.113,0.058-0.17,0.089
		c-0.003,0-0.006,0.003-0.008,0.003c-0.058,0.034-0.118,0.066-0.176,0.1h-0.006c-1.944,1.113-3.404,2.969-4,5.176
		C6.358,7.973,6.346,8.067,6.323,8.157C6.27,8.389,6.208,8.618,6.173,8.856C6.167,8.9,6.157,8.942,6.151,8.987
		c-0.02,0.141-0.02,0.286-0.032,0.429c-0.021,0.225-0.05,0.447-0.052,0.677c0.002-0.002,0.004-0.005,0.006-0.008
		c0,0.03-0.006,0.059-0.006,0.089c0,1.582,0.436,3.063,1.192,4.331C3.718,18.845,3.973,25.261,8.024,29.3
		c2.065,2.06,4.857,3.185,7.713,3.222l0.727,0.351l-0.906,2.323l0.239,0.781l1.556,1.356l-0.499,1.959
		c-0.003,0.042-0.005,0.084,0.009,0.125l0.086,0.28c0.021,0.064,0.065,0.119,0.117,0.156l0.029,0.08l1.664,1.101l-0.617,2.18
		l0.053,0.166c0,0.067,0.016,0.133,0.061,0.188l0.406,0.521l0.708,0.621l0.911,0.656c0,0,0,0,0.002,0l0.74,0.368
		c0.064,0.033,0.117,0.026,0.189,0.006l0.326-0.104l1.078-0.328l0.174-0.056c0.078-0.021,0.142-0.078,0.178-0.149
		c0.158-0.303,0.359-0.791,0.428-1.418c0.006-0.041,0-0.082-0.01-0.123l-3.621-11.719c0.229-0.029,0.467,0.047,0.654,0.239
		l3.782,2.709l3.979-0.138l0.432,3.671l0.854,0.856l2.982,0.709l0.715,2.911c0.021,0.058,0.043,0.11,0.094,0.157l0.306,0.309
		c0.071,0.073,0.17,0.112,0.27,0.125l0.09,0.09l2.939,0.285l0.711,3.286l0.185,0.185c0.046,0.087,0.112,0.162,0.21,0.207
		l0.895,0.396l1.361,0.33l1.65,0.229c0.002,0,0.002,0,0.002,0l1.229-0.028c0.111,0,0.172-0.042,0.254-0.126l0.354-0.354l1.188-1.18
		l0.188-0.193c0.083-0.084,0.134-0.197,0.132-0.317C45.214,45.701,45.132,44.914,44.791,44.049z M14.579,3.04
		c3.977,0,7.211,3.222,7.211,7.187c0,0.614-0.078,1.211-0.225,1.78c-4.199-2.51-9.713-2.008-13.385,1.514
		c-0.514-0.988-0.81-2.107-0.81-3.294C7.371,6.262,10.604,3.04,14.579,3.04z M10.987,17.867c0.732,0.343,1.518,0.588,2.346,0.71
		l-0.254-1.183l-0.031-0.146c-0.424-0.092-0.832-0.222-1.224-0.384c0.038-0.016,0.073-0.036,0.114-0.048
		c0.739-0.229,1.529,0.185,1.754,0.922c0.227,0.736-0.188,1.524-0.926,1.748c-0.736,0.227-1.526-0.186-1.752-0.924
		C10.94,18.329,10.94,18.093,10.987,17.867z M21.642,44.253L17.95,32.325c0.368-0.07,0.735-0.162,1.099-0.271l3.676,11.865
		L21.642,44.253z M42.886,46.008l-18.463-18.41c0.33-0.488,0.607-1.003,0.836-1.533l18.816,18.76L42.886,46.008z"/>
</g>
</svg>
