<?xml version="1.0" encoding="utf-8"?>
<!-- Generator: Adobe Illustrator 16.0.0, SVG Export Plug-In . SVG Version: 6.00 Build 0)  -->
<!DOCTYPE svg PUBLIC "-//W3C//DTD SVG 1.1//EN" "http://www.w3.org/Graphics/SVG/1.1/DTD/svg11.dtd">
<svg version="1.1" id="Layer_1" xmlns="http://www.w3.org/2000/svg" xmlns:xlink="http://www.w3.org/1999/xlink" x="0px" y="0px"
	 width="50px" height="50px" viewBox="0 0 50 50" enable-background="new 0 0 50 50" xml:space="preserve">
<g>
	<path d="M48.389,24.83c0-0.193-0.018-0.383-0.022-0.576c-0.009-0.23-0.017-0.463-0.029-0.693c-0.06-1.047-0.188-2.072-0.389-3.076
		c-0.041-0.213-0.087-0.423-0.134-0.633c-0.053-0.231-0.1-0.465-0.16-0.693C45.068,8.986,35.889,1.444,24.991,1.444
		c-12.891,0-23.38,10.566-23.38,23.555c0,12.99,10.489,23.558,23.38,23.558c12.888,0,23.373-10.549,23.392-23.522
		C48.385,24.965,48.389,24.898,48.389,24.83z M43.113,12.123l-5.416,6.483c-1.586-3.06-4.264-5.471-7.529-6.731l5.432-6.51
		C38.588,7.011,41.158,9.333,43.113,12.123z M24.994,38.381c-7.462,0-13.532-6.004-13.532-13.382c0-7.376,6.07-13.377,13.532-13.377
		c7.467,0,13.543,6.001,13.543,13.377C38.537,32.377,32.461,38.381,24.994,38.381z M11.817,7.025l6.648,5.453
		c-3.088,1.582-5.514,4.243-6.773,7.479l-6.387-5.233C6.872,11.685,9.106,9.05,11.817,7.025z M7.612,38.863l5.322-6.371
		c1.85,2.898,4.728,5.086,8.132,6.053l-5.467,6.705C12.469,43.768,9.739,41.568,7.612,38.863z M38.977,42.344l-6.518-5.35
		c2.945-1.795,5.186-4.609,6.201-7.951l6.475,5.311C43.705,37.471,41.588,40.199,38.977,42.344z"/>
</g>
</svg>
