<?xml version="1.0" encoding="utf-8"?>
<!-- Generator: Adobe Illustrator 16.0.0, SVG Export Plug-In . SVG Version: 6.00 Build 0)  -->
<!DOCTYPE svg PUBLIC "-//W3C//DTD SVG 1.1//EN" "http://www.w3.org/Graphics/SVG/1.1/DTD/svg11.dtd">
<svg version="1.1" id="Layer_1" xmlns="http://www.w3.org/2000/svg" xmlns:xlink="http://www.w3.org/1999/xlink" x="0px" y="0px"
	 width="50px" height="50px" viewBox="0 0 50 50" enable-background="new 0 0 50 50" xml:space="preserve">
<g>
	<path d="M41.018,1.798H8.979c-3.965,0-7.183,3.217-7.183,7.184v32.036c0,3.967,3.218,7.186,7.183,7.186h32.039
		c3.965,0,7.187-3.219,7.187-7.186V8.981C48.203,5.015,44.982,1.798,41.018,1.798z M15.195,22.453H4.945v3.281h10.25v17.591H4.346
		V21.852h10.849V22.453z M45.65,39.949l-4.092,3.701H27.883l-3.773-2.815l-7.077-0.079l-0.08-15.998c0,0,6.031-0.967,8.119-5.872
		l5.631-12.539l5.385,0.158l0.16,4.268l-0.881,1.766l0.082,7.56h7.473l2.729,1.919V39.949L45.65,39.949z"/>
</g>
</svg>
