<?xml version="1.0" encoding="utf-8"?>
<!-- Generator: Adobe Illustrator 16.0.0, SVG Export Plug-In . SVG Version: 6.00 Build 0)  -->
<!DOCTYPE svg PUBLIC "-//W3C//DTD SVG 1.1//EN" "http://www.w3.org/Graphics/SVG/1.1/DTD/svg11.dtd">
<svg version="1.1" id="Layer_1" xmlns="http://www.w3.org/2000/svg" xmlns:xlink="http://www.w3.org/1999/xlink" x="0px" y="0px"
	 width="50px" height="50px" viewBox="0 0 50 50" enable-background="new 0 0 50 50" xml:space="preserve">
<g>
	<path d="M41.018,1.797H8.981c-3.964,0-7.184,3.218-7.184,7.185V41.02c0,3.965,3.22,7.185,7.184,7.185h32.037
		c3.967,0,7.185-3.22,7.185-7.185V8.981C48.202,5.015,44.984,1.797,41.018,1.797z M13.438,44.398L5.395,44.5V18.183l8.043-0.1
		V44.398z M9.5,14.286c-2.432,0-4.403-1.971-4.403-4.403c0-2.428,1.972-4.401,4.403-4.401c2.43,0,4.4,1.974,4.4,4.401
		C13.9,12.315,11.93,14.286,9.5,14.286z M44.898,44.402L37.1,44.52V30.729c0-3.043-0.758-5.002-4.392-5.002
		c-3.198,0-4.536,0.572-4.536,4.78v13.896L20.16,44.5V18.183l7.68-0.094v3.345l0.004,0.946c2.271-2.231,4.616-3.916,8.37-3.916
		c4.409,0,8.687,1.853,8.687,7.886v18.053H44.898z"/>
</g>
</svg>
