<?xml version="1.0" encoding="utf-8"?>
<!-- Generator: Adobe Illustrator 16.0.0, SVG Export Plug-In . SVG Version: 6.00 Build 0)  -->
<!DOCTYPE svg PUBLIC "-//W3C//DTD SVG 1.1//EN" "http://www.w3.org/Graphics/SVG/1.1/DTD/svg11.dtd">
<svg version="1.1" id="Layer_1" xmlns="http://www.w3.org/2000/svg" xmlns:xlink="http://www.w3.org/1999/xlink" x="0px" y="0px"
	 width="50px" height="50px" viewBox="0 0 50 50" enable-background="new 0 0 50 50" xml:space="preserve">
<g>
	<polygon points="32.021,13.746 3.108,44.375 6.118,47.484 33.893,15.287 	"/>
	<g>
		<path d="M34.677,13.781l-1.155-0.932l0.03,0.557l2.421-2.422l-0.475,0.047l0.988,0.662l-0.078-0.553l-2.254,2.691L34.677,13.781z
			 M36.904,11.07l-0.989-0.662l-0.256-0.172l-0.218,0.219l-2.42,2.422l-0.295,0.295l0.323,0.262l1.155,0.932l0.287,0.229
			l0.236-0.281l2.254-2.691l0.268-0.32L36.904,11.07z"/>
	</g>
	<polygon points="32.297,24.445 33.008,25.879 34.589,26.109 33.443,27.225 33.715,28.803 32.297,28.057 30.884,28.803 
		31.152,27.225 30.009,26.109 31.589,25.879 	"/>
	<polygon points="22.767,13.488 23.609,15.025 25.148,15.869 23.609,16.709 22.767,18.25 21.926,16.709 20.385,15.869 
		21.926,15.025 	"/>
	<polygon points="42.686,6.982 43.426,9.799 46.227,10.521 43.518,11.1 42.686,14.066 42.125,11.057 39.143,10.521 42.033,9.799 	
		"/>
	<g>
		<path d="M39.711,13.705l1.354,5.145l0.056,0.211l0.213,0.057l5.11,1.32l0.017-0.73l-4.946,1.057l-0.222,0.049l-0.062,0.217
			l-1.518,5.408l0.729,0.033l-1.022-5.491l-0.047-0.256l-0.256-0.045l-5.445-0.975l0.024,0.732l5.281-1.32l0.224-0.057l0.052-0.223
			l1.188-5.145L39.711,13.705z M38.796,18.389l-5.28,1.32l0.024,0.734l5.444,0.975l-0.303-0.301l1.022,5.49l0.729,0.033l1.517-5.409
			l-0.282,0.266l4.947-1.059l0.015-0.729l-5.11-1.32l0.27,0.268l-1.354-5.146l-0.729,0.012L38.52,18.67L38.796,18.389z"/>
	</g>
	<g>
		<path d="M15.071,14.076l1.082,4.107l0.056,0.213l0.212,0.055l4.083,1.061l0.017-0.729l-3.953,0.842l-0.222,0.047l-0.062,0.219
			l-1.212,4.324l0.73,0.033l-0.816-4.389l-0.047-0.256l-0.256-0.045l-4.35-0.777l0.025,0.731l4.218-1.061l0.223-0.055l0.051-0.225
			l0.948-4.107L15.071,14.076z M14.395,17.725l-4.218,1.061l0.025,0.732l4.35,0.777l-0.303-0.301l0.816,4.389l0.729,0.033
			l1.212-4.324l-0.283,0.266l3.953-0.842l0.016-0.73l-4.082-1.061l0.269,0.268l-1.083-4.107l-0.728,0.012l-0.948,4.107
			L14.395,17.725z"/>
	</g>
	<polygon points="45.539,24.191 46.018,25.066 46.893,25.545 46.018,26.023 45.539,26.896 45.061,26.023 44.188,25.545 
		45.061,25.066 	"/>
	<polygon points="37.252,2.516 38.018,3.914 39.417,4.678 38.018,5.443 37.252,6.842 36.486,5.443 35.088,4.678 36.486,3.914 	"/>
	<polygon points="23.723,4.621 24.199,5.494 25.073,5.975 24.199,6.453 23.723,7.33 23.243,6.453 22.368,5.975 23.243,5.494 	"/>
	<polygon points="28.809,7.721 29.636,9.393 31.479,9.664 30.143,10.965 30.459,12.799 28.809,11.934 27.161,12.799 27.475,10.965 
		26.141,9.664 27.982,9.393 	"/>
</g>
</svg>
