<?xml version="1.0" encoding="utf-8"?>
<!-- Generator: Adobe Illustrator 16.0.0, SVG Export Plug-In . SVG Version: 6.00 Build 0)  -->
<!DOCTYPE svg PUBLIC "-//W3C//DTD SVG 1.1//EN" "http://www.w3.org/Graphics/SVG/1.1/DTD/svg11.dtd">
<svg version="1.1" id="Layer_1" xmlns="http://www.w3.org/2000/svg" xmlns:xlink="http://www.w3.org/1999/xlink" x="0px" y="0px"
	 width="50px" height="50px" viewBox="0 0 50 50" enable-background="new 0 0 50 50" xml:space="preserve">
<g>
	<path d="M10.402,27.741l-3.681,3.569l2.232,2.164L5.71,36.617l8.119,7.875l3.141-3.242l2.12,2.055l3.596-3.49
		c-0.048-0.039-0.099-0.075-0.146-0.119C20.737,37.941,10.402,27.741,10.402,27.741z"/>
	<path d="M6.685,38.508l-6.051,6.069c0,0-0.633,2.063,1.594,2.063c2.228,0,6.482,0,6.482,0s0.587-0.869,3.174-3.09
		C10.505,42.209,6.685,38.508,6.685,38.508z"/>
	<path d="M48.538,12.83c0,0-7.429-7.311-9.233-8.856c-1.806-1.543-4.351,0.312-4.351,0.312L11.292,23.74
		c0.023,0.021,0.065,0.063,0.097,0.094l-0.361,0.358c-1.167,1.233-0.153,3.287-0.153,3.287L23.24,39.473l-0.08,0.08
		c1.779,1.543,3.89,0.187,3.89,0.187l0.204-0.517c0.038,0.037,0.063,0.063,0.063,0.063S46.202,20.036,48.43,17.567
		C50.657,15.096,48.538,12.83,48.538,12.83z"/>
</g>
</svg>
