<?xml version="1.0" encoding="utf-8"?>
<!-- Generator: Adobe Illustrator 16.0.0, SVG Export Plug-In . SVG Version: 6.00 Build 0)  -->
<!DOCTYPE svg PUBLIC "-//W3C//DTD SVG 1.1//EN" "http://www.w3.org/Graphics/SVG/1.1/DTD/svg11.dtd">
<svg version="1.1" id="Layer_1" xmlns="http://www.w3.org/2000/svg" xmlns:xlink="http://www.w3.org/1999/xlink" x="0px" y="0px"
	 width="50px" height="50px" viewBox="0 0 50 50" enable-background="new 0 0 50 50" xml:space="preserve">
<g>
	<g>
		<path d="M44.91,10.903c-0.469-0.187-0.973-0.294-1.502-0.294H6.591c-0.6,0-1.16,0.139-1.672,0.373l19.68,17.098L44.91,10.903z"/>
		<path d="M3.345,12.276c-0.479,0.661-0.77,1.469-0.77,2.347v20.752c0,0.602,0.142,1.168,0.378,1.679l14.505-12.518L3.345,12.276z"
			/>
		<path d="M47.061,37.025c0.229-0.504,0.363-1.061,0.363-1.65V14.623c0-0.938-0.336-1.792-0.877-2.474L32.105,24.361L47.061,37.025z
			"/>
		<path d="M25.237,30.17l-0.654,0.557l-0.652-0.564l-4.943-4.295l-14.76,12.74c0.664,0.486,1.477,0.783,2.363,0.783h36.817
			c0.898,0,1.721-0.306,2.389-0.805l-15.246-12.91L25.237,30.17z"/>
	</g>
</g>
</svg>
