<?xml version="1.0" encoding="utf-8"?>
<!-- Generator: Adobe Illustrator 16.0.0, SVG Export Plug-In . SVG Version: 6.00 Build 0)  -->
<!DOCTYPE svg PUBLIC "-//W3C//DTD SVG 1.1//EN" "http://www.w3.org/Graphics/SVG/1.1/DTD/svg11.dtd">
<svg version="1.1" id="Layer_1" xmlns="http://www.w3.org/2000/svg" xmlns:xlink="http://www.w3.org/1999/xlink" x="0px" y="0px"
	 width="50px" height="50px" viewBox="0 0 50 50" enable-background="new 0 0 50 50" xml:space="preserve">
<g>
	<path d="M40.662,4.477c-0.824,0.368-1.627,0.769-2.412,1.195c0.795,1.434,1.791,2.866,2.998,4.227
		c1.211,1.361,2.514,2.516,3.842,3.47c0.51-0.733,0.998-1.494,1.451-2.271c1.57-2.692,2.727-5.619,2.893-8.532
		C46.529,2.397,43.5,3.221,40.662,4.477z"/>
	<polygon points="13.016,29.98 10.28,26.896 6.028,27.628 0.567,30.677 13.64,18.961 20.224,19.824 	"/>
	<polygon points="18.888,35.112 21.629,38.193 20.422,42.352 16.788,47.457 29.859,35.732 29.754,29.066 	"/>
	<path d="M8.156,33.855c-3.019,2.252-7.511,12.373-7.511,12.373s12.876-3.903,13.566-7.102C15.269,33.568,9.292,33.007,8.156,33.855
		z M11.493,38.388c-0.26,1.22-5.166,2.704-5.166,2.704s1.713-3.854,2.859-4.714C9.618,36.053,11.897,36.268,11.493,38.388z"/>
	<polyline points="22.817,19.249 12.587,32.963 13.5,33.99 14.11,34.675 15.025,35.698 30.172,26.804 	"/>
	<path d="M22.75,19.211l3.609-4.839c0,0,4.656-4.595,10.643-7.836c0.791,1.437,1.791,2.869,2.996,4.228
		c1.21,1.359,2.512,2.515,3.842,3.469c-3.883,5.605-8.959,9.725-8.959,9.725l-4.771,2.806"/>
</g>
</svg>
