<?xml version="1.0" encoding="utf-8"?>
<!-- Generator: Adobe Illustrator 16.0.0, SVG Export Plug-In . SVG Version: 6.00 Build 0)  -->
<!DOCTYPE svg PUBLIC "-//W3C//DTD SVG 1.1//EN" "http://www.w3.org/Graphics/SVG/1.1/DTD/svg11.dtd">
<svg version="1.1" id="Layer_1" xmlns="http://www.w3.org/2000/svg" xmlns:xlink="http://www.w3.org/1999/xlink" x="0px" y="0px"
	 width="50px" height="50px" viewBox="0 0 50 50" enable-background="new 0 0 50 50" xml:space="preserve">
<g>
	<g>
		<path d="M34.607,21.423V10.911c-1.215-0.128-2.506-0.179-3.851-0.179c-1.342,0-2.633,0.051-3.848,0.179v10.512H34.607z"/>
		<path d="M18.068,35.551c0,7.318,5.682,13.248,12.69,13.248c7.012,0,12.693-5.93,12.693-13.248V22.969H18.068V35.551z"/>
		<path d="M43.451,21.423v-2.062c0-5.303-2.988-7.445-7.299-8.225v10.287H43.451z"/>
		<path d="M25.364,11.136c-4.306,0.781-7.296,2.922-7.296,8.225v2.062h7.296V11.136z"/>
		<rect x="29.014" y="9.478" width="3.092" height="1.44"/>
	</g>
	<g>
		<path d="M31.771,9.482c0.008-0.21,0.121-5.171-2.908-7.323c-1.68-1.194-3.905-1.271-6.614-0.234
			c-3.992,1.531-5.599,6.235-6.89,10.014c-0.849,2.481-1.725,5.048-2.892,5.286c-0.525,0.106-1.799-0.151-4.431-3.082l-1.488,1.336
			c2.621,2.919,4.57,4.063,6.318,3.705c2.29-0.467,3.261-3.309,4.385-6.599c1.216-3.562,2.595-7.598,5.713-8.793
			c2.045-0.784,3.64-0.785,4.74-0.003c1.797,1.276,2.103,4.498,2.067,5.632L31.771,9.482z"/>
	</g>
</g>
</svg>
