<?xml version="1.0" encoding="utf-8"?>
<!-- Generator: Adobe Illustrator 16.0.0, SVG Export Plug-In . SVG Version: 6.00 Build 0)  -->
<!DOCTYPE svg PUBLIC "-//W3C//DTD SVG 1.1//EN" "http://www.w3.org/Graphics/SVG/1.1/DTD/svg11.dtd">
<svg version="1.1" id="Layer_1" xmlns="http://www.w3.org/2000/svg" xmlns:xlink="http://www.w3.org/1999/xlink" x="0px" y="0px"
	 width="50px" height="50px" viewBox="0 0 50 50" enable-background="new 0 0 50 50" xml:space="preserve">
<g>
	<path d="M49.511,22.374c-0.403-2.258-1.729-2.188-1.239-0.695c0.494,1.509-0.271,3.445-2.717,3.626
		c-1.488,0.106-3.429-0.519-5.375-1.62c-3.301-1.862-5.324-5.222-9.837-4.816c-3.565,0.315-4.801,2.29-5.076,4.07
		c-0.273-1.78-1.507-3.755-5.074-4.07c-4.511-0.402-7.075,2.883-10.374,4.746c-1.949,1.1-3.888,1.725-5.376,1.616
		c-2.446-0.177-3.21-2.112-2.715-3.624c0.486-1.492-0.838-1.561-1.241,0.698c-0.318,8.395,10.965,8.429,9.979,8.583
		c4.996,0.271,13.617-0.584,14.756-6.01c0.02-0.079,0.033-0.167,0.046-0.253c0.015,0.086,0.029,0.174,0.046,0.253
		c0.739,3.517,7.211,6.76,13.545,6.233C38.116,30.966,49.904,30.326,49.511,22.374z"/>
</g>
</svg>
