<?xml version="1.0" encoding="utf-8"?>
<!-- Generator: Adobe Illustrator 16.0.0, SVG Export Plug-In . SVG Version: 6.00 Build 0)  -->
<!DOCTYPE svg PUBLIC "-//W3C//DTD SVG 1.1//EN" "http://www.w3.org/Graphics/SVG/1.1/DTD/svg11.dtd">
<svg version="1.1" id="Layer_1" xmlns="http://www.w3.org/2000/svg" xmlns:xlink="http://www.w3.org/1999/xlink" x="0px" y="0px"
	 width="50px" height="50px" viewBox="0 0 50 50" enable-background="new 0 0 50 50" xml:space="preserve">
<g>
	<path d="M49.316,43.411v-9.367c0-0.36-0.146-0.685-0.383-0.918s-0.563-0.379-0.929-0.379h-3.948
		c-4.107-4.308-10.646-7.155-18.082-7.385v-8.107h3.762c0.146,0,0.281-0.032,0.41-0.081c0.117-0.039,0.222-0.098,0.32-0.167
		c0.295-0.201,0.494-0.507,0.545-0.873c0.004-0.014,0.006-0.027,0.01-0.041c0.004-0.047,0.025-0.087,0.025-0.135V6.589
		c0-0.442-0.236-0.814-0.58-1.049c-0.211-0.145-0.451-0.248-0.73-0.248h-9.452c-0.18,0-0.351,0.036-0.508,0.102
		c-0.001,0.001-0.002,0.002-0.004,0.002c-0.469,0.197-0.8,0.657-0.8,1.193v9.369c0,0.536,0.331,0.996,0.8,1.193
		c0.002,0.001,0.003,0.001,0.004,0.002c0.157,0.065,0.328,0.102,0.508,0.102h3.764v8.107c-7.435,0.229-13.974,3.077-18.081,7.385
		h-3.97H1.992c-0.002,0-0.004,0.002-0.006,0.002C1.814,32.751,1.65,32.784,1.5,32.845c-0.014,0.007-0.027,0.015-0.041,0.021
		c-0.139,0.063-0.264,0.145-0.371,0.248c-0.013,0.012-0.024,0.022-0.037,0.035c-0.106,0.11-0.195,0.237-0.258,0.379
		c-0.002,0.008-0.006,0.014-0.008,0.021c-0.064,0.152-0.102,0.32-0.102,0.496v6.828v2.539c0,0.09,0.01,0.178,0.027,0.262
		c0.018,0.08,0.043,0.158,0.074,0.233c0.002,0.007,0.004,0.012,0.008,0.019c0.063,0.145,0.152,0.273,0.262,0.385
		c0.01,0.011,0.018,0.021,0.028,0.029c0.112,0.107,0.243,0.195,0.387,0.258c0.008,0.004,0.015,0.008,0.022,0.012
		c0.154,0.063,0.324,0.101,0.5,0.101h0.007h9.446h0.004h0.004c0.002,0,0.004-0.001,0.006-0.001c0.005,0,0.01-0.002,0.016-0.002
		c0.166-0.003,0.324-0.036,0.471-0.095c0.016-0.007,0.029-0.017,0.045-0.021c0.137-0.063,0.26-0.145,0.367-0.246
		c0.014-0.012,0.026-0.024,0.039-0.04c0.106-0.108,0.194-0.236,0.256-0.377c0.004-0.007,0.006-0.014,0.01-0.021
		c0.064-0.152,0.1-0.318,0.1-0.494v-2.539v-6.828c0-0.176-0.035-0.344-0.1-0.496c-0.004-0.008-0.006-0.014-0.01-0.021
		c-0.063-0.143-0.15-0.271-0.258-0.381c-0.012-0.012-0.023-0.022-0.035-0.034c-0.109-0.104-0.236-0.188-0.377-0.25
		c-0.012-0.007-0.022-0.013-0.034-0.017c-0.153-0.063-0.319-0.098-0.495-0.098c-0.001,0-0.002-0.002-0.004-0.002h-0.004H8.542
		c3.759-3.409,9.286-5.629,15.508-5.838v5.838h-3.764c-0.723,0-1.308,0.575-1.308,1.297v6.219v0.363v2.578v0.086v0.121
		c0,0.038,0.019,0.07,0.021,0.107c0.006,0.034,0.013,0.065,0.02,0.1c0.08,0.477,0.407,0.859,0.861,1.008
		c0.129,0.049,0.263,0.082,0.405,0.082h9.453c0.145,0,0.279-0.033,0.408-0.082c0.455-0.148,0.778-0.531,0.858-1.008
		c0.009-0.033,0.015-0.065,0.021-0.1c0.002-0.037,0.021-0.069,0.021-0.107V43.29v-0.086v-2.578v-0.362v-6.22
		c0-0.722-0.578-1.297-1.31-1.297h-3.762v-5.838c6.221,0.21,11.75,2.43,15.508,5.838h-2.93c-0.34,0-0.643,0.135-0.875,0.344
		c-0.266,0.236-0.438,0.57-0.438,0.953v9.367c0,0.045,0.022,0.084,0.026,0.129c0.004,0.021,0.008,0.037,0.012,0.055
		c0.046,0.304,0.181,0.572,0.4,0.769c0.133,0.121,0.291,0.207,0.467,0.264c0.129,0.049,0.267,0.082,0.408,0.082h9.451
		c0.145,0,0.279-0.033,0.408-0.082c0.197-0.063,0.379-0.156,0.52-0.297c0.195-0.193,0.308-0.455,0.348-0.738
		c0.003-0.016,0.007-0.031,0.009-0.047C49.295,43.499,49.316,43.458,49.316,43.411z"/>
</g>
</svg>
