<?xml version="1.0" encoding="utf-8"?>
<!-- Generator: Adobe Illustrator 16.0.0, SVG Export Plug-In . SVG Version: 6.00 Build 0)  -->
<!DOCTYPE svg PUBLIC "-//W3C//DTD SVG 1.1//EN" "http://www.w3.org/Graphics/SVG/1.1/DTD/svg11.dtd">
<svg version="1.1" id="Layer_1" xmlns="http://www.w3.org/2000/svg" xmlns:xlink="http://www.w3.org/1999/xlink" x="0px" y="0px"
	 width="50px" height="50px" viewBox="0 0 50 50" enable-background="new 0 0 50 50" xml:space="preserve">
<g>
	<g>
		<path d="M1373.594,1684h-14.897c-1.513,0-2.695,1.045-2.695,2.563v8.625c0,1.513,1.185,2.813,2.695,2.813h2.067l-2.846,6.896
			l8.635-6.896h7.041c1.515,0,2.406-1.301,2.406-2.813v-8.625C1376,1685.045,1375.107,1684,1373.594,1684z"/>
	</g>
	<path d="M1328.664,1724.442c0,0,4.963,7.524,15.066,7.352c6.516-0.194,15.754-3.069,18.225-12.571c0,0,2.654,0.449,4.541-1.619
		c-2.574,0.357-4.281-0.447-4.281-0.447s3.361-0.098,4.107-2.087c-1.992,0.864-4.453,0.129-4.453,0.129s-1.162-7.113-8.23-7.373
		c0,0,3.779-0.769,3.188-1.641c-0.478-0.632-3.103,0.546-3.103,0.546s1.465-0.646,1.435-1.332c-1.482,0.168-2.845,1.267-2.845,1.267
		s0.414-0.663,0.423-0.943c-3.531,1.959-5.935,9.277-5.935,9.277s-0.895-0.993-2.383-2.074c-3.6-2.115-10.236-4.626-10.236-4.626
		s-0.442,2.737,3.099,4.743c-1.451,0.115-2.179,0.304-2.179,0.304s0,2.908,4.22,3.856c-1.959,0.067-2.601,1.041-2.601,1.041
		s1.103,2.597,4.574,2.387c-2.824,1.453-0.996,3.445,1.314,3.232C1335.186,1730.507,1328.664,1724.442,1328.664,1724.442"/>
</g>
<g>
	<path d="M49,18.098C49,15.283,46.717,13,43.9,13H6.099C3.283,13,1,15.283,1,18.098v13.804C1,34.717,3.283,37,6.099,37h37.803
		C46.717,37,49,34.717,49,31.902V18.098z M18,29h-2.625l-3.402-5.242L12,25.686V29H9V19h3.112l3.159,5.239L15,22.294V19h3V29z
		 M28,29h-8V19h8v3h-5v1h4v2h-4v1h5V29z M38.928,29h-2.992l-1.069-6H34.84l-1.058,6H30.79l-2.31-10h2.939l1.045,6h0.025l1.109-6
		h2.515l1.108,6h0.026l1.044-6h2.941L38.928,29z"/>
</g>
</svg>
