<?xml version="1.0" encoding="utf-8"?>
<!-- Generator: Adobe Illustrator 16.0.0, SVG Export Plug-In . SVG Version: 6.00 Build 0)  -->
<!DOCTYPE svg PUBLIC "-//W3C//DTD SVG 1.1//EN" "http://www.w3.org/Graphics/SVG/1.1/DTD/svg11.dtd">
<svg version="1.1" id="Layer_1" xmlns="http://www.w3.org/2000/svg" xmlns:xlink="http://www.w3.org/1999/xlink" x="0px" y="0px"
	 width="50px" height="50px" viewBox="0 0 50 50" enable-background="new 0 0 50 50" xml:space="preserve">
<g>
	<path d="M22.452,24.196c-0.926,0.393-1.227,1.133-0.874,1.969l2.82-1.193C24.097,24.255,23.184,23.886,22.452,24.196z"/>
	<path d="M45.249,27.128l3.503-2.125l-3.503-2.131l2.985-2.811l-3.87-1.354l2.336-3.369l-4.068-0.518l1.584-3.783l-4.085,0.34
		l0.766-4.031l-3.929,1.18l-0.092-4.098l-3.597,1.973L32.34,2.409l-3.107,2.678l-1.75-3.711L25,4.638l-2.484-3.262L20.77,5.087
		l-3.108-2.678l-0.94,3.992l-3.597-1.973l-0.092,4.098l-3.928-1.18l0.766,4.031l-4.088-0.34l1.586,3.783l-4.067,0.518l2.337,3.369
		l-3.873,1.354l2.987,2.811L1.25,25.003l3.503,2.125l-2.988,2.812l3.873,1.351l-2.337,3.371l4.067,0.521l-1.586,3.782l4.088-0.34
		l-0.766,4.031l3.928-1.183l0.092,4.099l3.597-1.972l0.94,3.992l3.108-2.678l1.746,3.709L25,45.359l2.48,3.265l1.752-3.709
		l3.106,2.678l0.94-3.991l3.596,1.971l0.092-4.098l3.928,1.182l-0.765-4.031l4.085,0.34l-1.584-3.783l4.068-0.52l-2.336-3.371
		l3.871-1.35L45.249,27.128z M16.947,33.771l-1.75-4.133c-0.327-0.776-0.824-1.375-1.707-1.004c-0.956,0.406-0.95,1.125-0.527,2.123
		l1.688,3.986l-3.108,1.313l-3.308-7.819l2.836-1.197l0.519,1.221c0.303-1.235,0.849-2.063,2.03-2.563
		c2.058-0.871,3.541-0.072,4.451,2.076l1.979,4.688L16.947,33.771z M25.042,30.614c-2.507,1.059-5.054,0.446-6.165-2.181
		c-1.085-2.565,0.146-5.022,2.653-6.083c2.896-1.225,5.49,0.039,6.644,2.895l-5.928,2.502c0.395,0.928,1.367,1.235,2.188,0.889
		c0.494-0.207,0.847-0.62,0.877-1.178l2.968-1.256C28.563,28.37,26.863,29.845,25.042,30.614z M37.503,25.081l-3.149-4.072
		l-0.028,0.016l0.849,5.043l-3.031,1.279l-5.889-6.729l3.029-1.281l3.24,4.33l0.029-0.012l-0.837-5.348l2.63-1.111l3.237,4.33
		l0.028-0.012l-0.834-5.346l2.94-1.246l0.813,8.877L37.503,25.081z"/>
</g>
</svg>
