<?xml version="1.0" encoding="utf-8"?>
<!-- Generator: Adobe Illustrator 16.0.0, SVG Export Plug-In . SVG Version: 6.00 Build 0)  -->
<!DOCTYPE svg PUBLIC "-//W3C//DTD SVG 1.1//EN" "http://www.w3.org/Graphics/SVG/1.1/DTD/svg11.dtd">
<svg version="1.1" id="Layer_1" xmlns="http://www.w3.org/2000/svg" xmlns:xlink="http://www.w3.org/1999/xlink" x="0px" y="0px"
	 width="50px" height="50px" viewBox="0 0 50 50" enable-background="new 0 0 50 50" xml:space="preserve">
<g>
	<path d="M4.98,28.538c0,0,5.851,10.494,3.342,17.182c-1.157,3.082,10.299,7.027,8.537-9.905"/>
	<path d="M24.767,6.039c0,1.819,0.872,3.417,2.182,4.325c-2.151,0.559-3.751,2.569-3.751,4.966c0,1.827,0.934,3.428,2.329,4.334
		c-1.846,0.773-3.146,2.601-3.146,4.728c0,1.953,1.09,3.652,2.695,4.517c-1.605,0.864-2.695,2.563-2.695,4.516
		c0,1.013,0.298,1.952,0.803,2.749H16.23c-6.499,0-11.77-4.699-11.77-10.498v-13.63C4.46,6.25,9.731,1.55,16.23,1.55h10.961
		C25.748,2.421,24.767,4.107,24.767,6.039z"/>
	<path d="M42.287,30.15c1.793,0,3.252,1.469,3.252,3.272s-1.459,3.274-3.252,3.274H27.484c-1.795,0-3.256-1.471-3.256-3.274
		s1.461-3.272,3.256-3.272H42.287z"/>
	<path d="M26.617,6.039c0-1.806,1.264-3.274,2.822-3.274h13.276c1.556,0,2.822,1.468,2.822,3.274c0,1.806-1.269,3.273-2.822,3.273
		H29.439C27.881,9.312,26.617,7.844,26.617,6.039z"/>
	<path d="M27.484,27.668c-1.795,0-3.256-1.47-3.256-3.276c0-1.804,1.461-3.272,3.256-3.272h14.803c1.793,0,3.252,1.468,3.252,3.272
		c0,1.807-1.459,3.276-3.252,3.276H27.484z"/>
	<path d="M25.047,15.33c0-1.809,1.393-3.277,3.107-3.277h14.279c1.713,0,3.104,1.469,3.104,3.277c0,1.803-1.394,3.271-3.104,3.271
		H28.154C26.439,18.601,25.047,17.132,25.047,15.33z"/>
</g>
</svg>
