<?xml version="1.0" encoding="utf-8"?>
<!-- Generator: Adobe Illustrator 16.0.0, SVG Export Plug-In . SVG Version: 6.00 Build 0)  -->
<!DOCTYPE svg PUBLIC "-//W3C//DTD SVG 1.1//EN" "http://www.w3.org/Graphics/SVG/1.1/DTD/svg11.dtd">
<svg version="1.1" id="Layer_1" xmlns="http://www.w3.org/2000/svg" xmlns:xlink="http://www.w3.org/1999/xlink" x="0px" y="0px"
	 width="50px" height="50px" viewBox="0 0 50 50" enable-background="new 0 0 50 50" xml:space="preserve">
<g>
	<path d="M11.509,44.656c3.511,2.205,8.529,4.031,12.991,4.031c4.591,0,8.046-0.863,11.626-3.187L24.5,25.946L11.509,44.656z"/>
	<path d="M26.111,22.511"/>
	<g>
		<path d="M23.945,22.301l22.479,6.758c0.398-1.392,0.652-2.941,0.652-5.391c0-12.345-9.971-22.355-22.265-22.355
			c-12.303,0-22.274,10.011-22.274,22.355c0,7.975,2.194,13.162,8.452,17.117l12.971-18.46L23.945,22.301z"/>
		<path d="M24.223,22.721"/>
	</g>
	<path d="M47.463,32.357l-21.055-7.14l12.133,18.729C42.689,41.232,45.854,37.152,47.463,32.357z"/>
</g>
</svg>
