<?xml version="1.0" encoding="utf-8"?>
<!-- Generator: Adobe Illustrator 16.0.0, SVG Export Plug-In . SVG Version: 6.00 Build 0)  -->
<!DOCTYPE svg PUBLIC "-//W3C//DTD SVG 1.1//EN" "http://www.w3.org/Graphics/SVG/1.1/DTD/svg11.dtd">
<svg version="1.1" id="Layer_1" xmlns="http://www.w3.org/2000/svg" xmlns:xlink="http://www.w3.org/1999/xlink" x="0px" y="0px"
	 width="50px" height="50px" viewBox="0 0 50 50" enable-background="new 0 0 50 50" xml:space="preserve">
<g>
	<path d="M10.722,34.215c-3.42,5.281-9.547,14.756-9.547,14.756l14.755-9.547C15.93,39.424,13.245,38.068,10.722,34.215z"/>
	<g>
		<g>
			<path d="M40.593,20.053c-2.478-0.679-5.14-2.254-7.442-4.612c-1.941-1.988-3.318-4.221-4.078-6.367l-8.014,8.781
				c-4.603-2.1-9.064-2.102-11.541,0.457c-3.746,3.863-1.544,12.079,4.92,18.342c6.459,6.268,14.736,8.216,18.482,4.35
				c2.606-2.688,2.326-7.48-0.256-12.257L40.593,20.053z"/>
		</g>
		<ellipse transform="matrix(-0.722 -0.6919 0.6919 -0.722 58.4048 45.9274)" cx="38.429" cy="11.23" rx="12.385" ry="7.662"/>
	</g>
</g>
</svg>
