<?xml version="1.0" encoding="utf-8"?>
<!-- Generator: Adobe Illustrator 16.0.0, SVG Export Plug-In . SVG Version: 6.00 Build 0)  -->
<!DOCTYPE svg PUBLIC "-//W3C//DTD SVG 1.1//EN" "http://www.w3.org/Graphics/SVG/1.1/DTD/svg11.dtd">
<svg version="1.1" id="Layer_1" xmlns="http://www.w3.org/2000/svg" xmlns:xlink="http://www.w3.org/1999/xlink" x="0px" y="0px"
	 width="50px" height="50px" viewBox="0 0 50 50" enable-background="new 0 0 50 50" xml:space="preserve">
<g>
	<path d="M35.708,4.211c0-1.68-1.41-3.046-3.147-3.046H17.44c-1.738,0-3.148,1.366-3.148,3.046v4.633h21.416V4.211z"/>
	<path d="M24.999,48.835c0.145-0.185,2.517-3.188,4.974-6.312h-9.944C22.485,45.646,24.856,48.65,24.999,48.835z"/>
	<path d="M20.47,32.273V10.736h-6.012c0,0.364,0,20.727,0,21.54C16.19,30.718,18.739,30.714,20.47,32.273z"/>
	<path d="M27.882,32.273V10.736h-6.01c0,2.086,0,20.763,0,21.54c0.838-0.76,1.891-1.176,3.004-1.176
		C25.984,31.1,27.04,31.516,27.882,32.273z"/>
	<path d="M28.779,34.189l-0.17,0.207l-0.17-0.151c-0.924-0.877-2.145-1.359-3.44-1.359c-1.295,0-2.518,0.482-3.439,1.359
		l-0.133,0.146l-0.207-0.201c-1.859-1.713-4.813-1.731-6.695-0.057c0.516,0.654,2.865,3.631,5.205,6.604h10.542
		c2.344-2.974,4.688-5.949,5.203-6.604c-0.902-0.807-2.072-1.248-3.313-1.248C30.891,32.886,29.691,33.35,28.779,34.189z"/>
	<path d="M29.529,32.273c0.845-0.762,1.896-1.176,3.005-1.176c1.11,0,2.168,0.416,3.008,1.176V10.736h-6.013V32.273z"/>
</g>
</svg>
