<?xml version="1.0" encoding="utf-8"?>
<!-- Generator: Adobe Illustrator 16.0.0, SVG Export Plug-In . SVG Version: 6.00 Build 0)  -->
<!DOCTYPE svg PUBLIC "-//W3C//DTD SVG 1.1//EN" "http://www.w3.org/Graphics/SVG/1.1/DTD/svg11.dtd">
<svg version="1.1" id="Layer_1" xmlns="http://www.w3.org/2000/svg" xmlns:xlink="http://www.w3.org/1999/xlink" x="0px" y="0px"
	 width="50px" height="50px" viewBox="0 0 50 50" enable-background="new 0 0 50 50" xml:space="preserve">
<g>
	<path d="M12.612,17.233v31.921h26.435V17.233H12.612z M20.309,46.23h-4.953V20.417h4.953V46.23z M28.047,46.23h-4.953V20.417h4.953
		V46.23z M35.787,46.23h-4.953V20.417h4.953V46.23z"/>
	<path d="M32.914,2.047l-3.711,1.859l-0.387-0.771c-1.025-2.048-3.521-2.876-5.566-1.85l-5.453,2.732
		c-2.047,1.027-2.875,3.52-1.85,5.568l0.387,0.77l-3.71,1.861l-1.671,0.837l1.674,3.341l1.671-0.838l20.29-10.17l1.672-0.838
		l-1.676-3.34L32.914,2.047z M17.604,9.48c-0.81-1.614-0.157-3.577,1.457-4.386l4.295-2.154c1.613-0.809,3.578-0.156,4.387,1.457
		L27.84,4.59L17.699,9.672L17.604,9.48z"/>
</g>
</svg>
