<?xml version="1.0" encoding="utf-8"?>
<!-- Generator: Adobe Illustrator 16.0.0, SVG Export Plug-In . SVG Version: 6.00 Build 0)  -->
<!DOCTYPE svg PUBLIC "-//W3C//DTD SVG 1.1//EN" "http://www.w3.org/Graphics/SVG/1.1/DTD/svg11.dtd">
<svg version="1.1" id="Layer_1" xmlns="http://www.w3.org/2000/svg" xmlns:xlink="http://www.w3.org/1999/xlink" x="0px" y="0px"
	 width="50px" height="50px" viewBox="0 0 50 50" enable-background="new 0 0 50 50" xml:space="preserve">
<g>
	<path d="M36.533,25.198c-0.699,5.959-2.605,10.905-4.094,14.021c0.94,0.594,2.264,1.828,2.588,3.063
		c0.719,2.738-1.209,5.242,0.604,6.05c1.328,0.591,4.234-1.21,6.451-11.492C43.854,28.631,38.691,25.948,36.533,25.198z"/>
	<path d="M17.654,39.162c-1.488-3.126-3.383-8.061-4.072-14.003c-2.082,0.692-7.469,3.323-5.666,11.679
		c2.217,10.282,5.123,12.083,6.451,11.492c1.816-0.809-0.113-3.313,0.605-6.05C15.309,41.006,16.711,39.729,17.654,39.162z"/>
	<path d="M23.305,43c0.15,3,0.961,5.217,1.942,5.217c0.979,0,1.791-2.217,1.94-5.217H23.305z"/>
	<path d="M25.143,1h-0.166c-13.44,7-10.483,23.928-10.483,23.928C15.637,35.009,20.408,42,20.408,42h9.305
		c0,0,4.771-6.991,5.914-17.072C35.627,24.928,38.584,8,25.143,1z M25.067,22.688c-1.172,0-2.122-0.95-2.122-2.122
		c0-1.172,0.95-2.121,2.122-2.121c1.171,0,2.121,0.949,2.121,2.121C27.188,21.738,26.238,22.688,25.067,22.688z M25,14.608
		c-1.981,0-3.586-1.605-3.586-3.585S23.02,7.438,25,7.438c1.98,0,3.585,1.605,3.585,3.585S26.98,14.608,25,14.608z"/>
</g>
</svg>
