<?xml version="1.0" encoding="utf-8"?>
<!-- Generator: Adobe Illustrator 16.0.0, SVG Export Plug-In . SVG Version: 6.00 Build 0)  -->
<!DOCTYPE svg PUBLIC "-//W3C//DTD SVG 1.1//EN" "http://www.w3.org/Graphics/SVG/1.1/DTD/svg11.dtd">
<svg version="1.1" id="Layer_1" xmlns="http://www.w3.org/2000/svg" xmlns:xlink="http://www.w3.org/1999/xlink" x="0px" y="0px"
	 width="50px" height="50px" viewBox="0 0 50 50" enable-background="new 0 0 50 50" xml:space="preserve">
<g>
	<path d="M39.747,3.633h-29.5c-3.652,0-6.612,2.963-6.612,6.619v29.5c0,3.652,2.96,6.615,6.612,6.615h29.5
		c3.653,0,6.618-2.963,6.618-6.615v-29.5C46.365,6.597,43.4,3.633,39.747,3.633z M11.308,43.488c-2.365,0-4.285-1.918-4.285-4.285
		s1.92-4.285,4.285-4.285c2.365,0,4.285,1.918,4.285,4.285S13.672,43.488,11.308,43.488z M25.582,44.123h-5.507
		c1.079-1.639,1.715-3.602,1.715-5.711c0-5.742-4.653-10.395-10.396-10.395c-0.752,0-1.489,0.086-2.198,0.237V23.28
		c0.719-0.106,1.453-0.162,2.198-0.162c8.445,0,15.293,6.851,15.293,15.294C26.688,40.434,26.293,42.359,25.582,44.123z
		 M41.709,44.123h-6.632c0.444-1.801,0.687-3.684,0.687-5.625c0-12.922-10.478-23.399-23.401-23.399
		c-1.074,0-2.129,0.078-3.166,0.219V8.783c1.041-0.109,2.098-0.169,3.166-0.169c16.506,0,29.881,13.383,29.881,29.884
		C42.243,40.422,42.057,42.301,41.709,44.123z"/>
</g>
</svg>
