<?xml version="1.0" encoding="utf-8"?>
<!-- Generator: Adobe Illustrator 16.0.0, SVG Export Plug-In . SVG Version: 6.00 Build 0)  -->
<!DOCTYPE svg PUBLIC "-//W3C//DTD SVG 1.1//EN" "http://www.w3.org/Graphics/SVG/1.1/DTD/svg11.dtd">
<svg version="1.1" id="Layer_1" xmlns="http://www.w3.org/2000/svg" xmlns:xlink="http://www.w3.org/1999/xlink" x="0px" y="0px"
	 width="50px" height="50px" viewBox="0 0 50 50" enable-background="new 0 0 50 50" xml:space="preserve">
<g>
	<g>
		<circle cx="683.798" cy="3613.543" r="2.722"/>
	</g>
	<g>
		<g>
			<polygon points="667.215,3621.643 667.096,3621.664 666.98,3621.719 			"/>
			<path d="M670.965,3620.113l-0.005-0.049c-0.011-0.093-0.007-0.183-0.004-0.271l-3.86,1.87l0.119-0.021l-0.232,0.075l0.113-0.055
				l-2.039,0.356l3.023,0.543l3.369-1.188l-0.468-1.217L670.965,3620.113z"/>
			<polygon points="668.366,3623.15 668.148,3623.111 667.943,3623.18 			"/>
			<path d="M671.625,3621.965l-3.477,1.146l0.218,0.039l-0.423,0.029l0.205-0.068l-6.766-1.205l-0.287-0.051l-0.26,0.135
				l-2.566,2.277l2.906-0.638l-0.095-0.018l0.548-0.082l-0.453,0.1l6.885,1.228l0.216,0.037l0.21-0.068l4.65-1.535
				c-0.305-0.07-0.593-0.199-0.846-0.396C671.98,3622.648,671.759,3622.326,671.625,3621.965z"/>
			<polygon points="661.082,3623.613 661.177,3623.631 661.63,3623.531 			"/>
			<path d="M671.732,3619.86c0,0.028-0.012,0.056-0.01,0.089l0.449,1.17l0.177-0.063L671.732,3619.86z"/>
			<path d="M672.371,3621.719c0.085,0.221,0.207,0.422,0.396,0.572c0.283,0.225,0.636,0.324,0.993,0.283
				c0,0,0.244-0.029,0.623-0.072l-0.43-1.305L672.371,3621.719z"/>
			<polygon points="683.339,3617.053 683.33,3617.053 683.332,3617.061 			"/>
			<path d="M671.5,3621.475c0.004,0.025,0.013,0.052,0.018,0.076l0.007,0.019L671.5,3621.475z"/>
			<polygon points="681.532,3616.273 681.544,3616.275 681.584,3616.265 			"/>
			<path d="M671.722,3619.979c-0.002-0.012,0.002-0.021,0.002-0.028l-0.023-0.066L671.722,3619.979z"/>
		</g>
		<g>
			<path d="M689.646,3616.198l-6.231,1.229l-2.36,0.515c0.53,0.594,1.805,1.619,3.045,2.844l5.945-3.133l18.038,0.684l0.203-1.105
				L689.646,3616.198z"/>
		</g>
	</g>
	<g>
		<polygon points="691.564,3621.357 690.936,3620.948 690.396,3621.482 		"/>
		<polygon points="693.587,3618.316 690.936,3620.948 691.564,3621.357 690.396,3621.482 690.936,3620.948 688.235,3619.206 
			686.314,3620.191 690.555,3622.928 691.186,3623.338 691.723,3622.803 695.934,3618.412 		"/>
		<g>
			<polygon points="686.488,3621.979 685.934,3621.525 685.3,3622.035 			"/>
			<polygon points="690.111,3618.184 685.934,3621.525 686.488,3621.979 685.3,3622.035 685.934,3621.525 685.078,3620.828 
				684.02,3621.371 683.688,3621.107 680.273,3617.859 679.446,3619.011 685.367,3623.475 685.985,3623.939 686.559,3623.42 
				692.289,3618.254 			"/>
			<polygon points="680.706,3617.256 680.336,3617.771 681.089,3617.568 			"/>
			<polygon points="680.216,3617.803 680.273,3617.859 680.336,3617.771 			"/>
			<g>
				<path d="M680.336,3617.771l0.753-0.203c0,0,1.638-0.379,1.838-0.432c-0.217-0.556-0.764-0.929-1.383-0.861l-8.585,2.188
					l-0.025,0.009l-0.023,0.002c-0.701,0.082-1.198,0.692-1.178,1.386l0.617,1.196l-0.177,0.063l0.067,0.175l0.018,0.044
					l0.005,0.049c0.014,0.117,0.065,0.226,0.108,0.332l1.584-0.521l0.43,1.305c1.93-0.225,7.769-0.905,7.771-0.905
					c0.2-0.021,0.386-0.109,0.557-0.224l-1.261-2.396l-1.178-1.118L680.336,3617.771z"/>
			</g>
		</g>
	</g>
</g>
<g>
	<path d="M14.338,13.041c-0.192-0.608-0.377-1.076-0.495-1.354c-6.621,1.904-11.018,5.388-11.018,5.388
		c1.052,4.496,2.803,8.075,4.822,10.923c0.36-0.141,0.715-0.281,1.053-0.438L14.338,13.041z"/>
	<path d="M44,23.296c-0.129-0.258-0.268-0.507-0.404-0.753c-0.598,0.335-1.154,0.686-1.666,1.047l-5.436,12.915
		c0.139,0.789,0.305,1.388,0.412,1.718c6.469-2.228,10.268-6.529,10.268-6.529C46.219,26.554,44,23.296,44,23.296z"/>
	<path d="M14.424,22.09c1.36-3.312,0.575-6.984-0.086-9.049L8.701,27.563C11.537,26.268,13.463,24.433,14.424,22.09z"/>
	<path d="M36.494,36.505L41.93,23.59C35.975,27.809,35.977,33.52,36.494,36.505z"/>
	<path d="M32.189,28.695l-0.869-0.338l0.367-0.957l-1.006-0.379l-0.375,0.966l-0.869-0.335l0.371-0.961l-0.941-0.356l-0.393,1.019
		l-0.869-0.336l0.389-1.012L27.172,25.7l-0.346,0.894l-0.869-0.336l0.345-0.889l-0.898-0.337l-0.352,0.905L24.186,25.6l0.348-0.899
		l-0.754-0.283l-0.348,0.896l-0.869-0.334l0.343-0.891l-1.093-0.413l-0.339,0.872l-0.871-0.333l0.336-0.87l-1.061-0.4l-0.35,0.91
		l-0.87-0.336l0.35-0.902l-0.985-0.37c-0.113,0.376-0.24,0.753-0.391,1.128c-1.336,3.264-3.931,5.755-7.715,7.428
		c5.394,5.841,11.479,7.438,11.479,7.438c4.558,1.491,8.657,1.538,12.18,0.868c-0.473-1.631-1.453-6.149,0.354-10.86l-1.369-0.517
		L32.189,28.695z"/>
	<path d="M41.658,19.677c-6.113-7.487-16.321-9.009-16.321-9.009c-2.857-0.344-5.582-0.196-8.086,0.235
		c0.724,1.888,2.018,6.138,0.999,10.506l1.068,0.401l0.376-0.97l0.869,0.338L20.19,22.14l1.061,0.399l0.388-1.005l0.87,0.337
		l-0.383,0.999l1.092,0.411l0.38-0.983l0.871,0.338l-0.377,0.974l0.753,0.286l0.373-0.973l0.871,0.337l-0.373,0.965l0.898,0.337
		l0.381-0.983l0.866,0.337l-0.377,0.976l0.822,0.309l0.332-0.86l0.869,0.335l-0.33,0.855l0.943,0.354l0.35-0.908l0.871,0.333
		l-0.35,0.905l1.01,0.379l0.354-0.915l0.867,0.336l-0.35,0.908l1.389,0.523C35.5,24.696,37.746,21.93,41.658,19.677z"/>
</g>
</svg>
