<?xml version="1.0" encoding="utf-8"?>
<!-- Generator: Adobe Illustrator 16.0.0, SVG Export Plug-In . SVG Version: 6.00 Build 0)  -->
<!DOCTYPE svg PUBLIC "-//W3C//DTD SVG 1.1//EN" "http://www.w3.org/Graphics/SVG/1.1/DTD/svg11.dtd">
<svg version="1.1" id="Layer_1" xmlns="http://www.w3.org/2000/svg" xmlns:xlink="http://www.w3.org/1999/xlink" x="0px" y="0px"
	 width="50px" height="50px" viewBox="0 0 50 50" enable-background="new 0 0 50 50" xml:space="preserve">
<g>
	<path d="M23.461,28.979c0.222,0.393,0.746,0.448,1.359,0.104c1.091-0.617,0.968-1.67,0.287-2.701
		C24.37,27.441,22.889,27.964,23.461,28.979z"/>
	<path d="M36.115,16.624c-0.926,0.521-1.156,1.342-0.684,2.178l2.825-1.592C37.852,16.489,36.848,16.212,36.115,16.624z"/>
	<path d="M45.311,27.134l3.519-2.133l-3.519-2.139l2.996-2.818l-3.883-1.354l2.342-3.383l-4.078-0.52l1.592-3.795l-4.104,0.344
		l0.768-4.045l-3.938,1.184l-0.09-4.109l-3.604,1.975l-0.947-4.002l-3.115,2.682L27.49,1.302L25,4.575l-2.488-3.273l-1.76,3.719
		l-3.115-2.682l-0.943,4.002l-3.607-1.975l-0.094,4.109L9.056,7.292l0.767,4.045l-4.101-0.344l1.591,3.795l-4.08,0.52l2.343,3.383
		l-3.883,1.354l2.994,2.818l-3.515,2.139l3.515,2.133l-2.994,2.818l3.883,1.357l-2.343,3.383l4.08,0.52l-1.591,3.793l4.101-0.338
		l-0.767,4.041l3.936-1.184l0.094,4.11l3.607-1.979l0.943,4.004l3.115-2.685l1.76,3.722L25,45.425l2.489,3.273l1.758-3.722
		l3.114,2.685l0.947-4.004l3.605,1.979l0.09-4.11l3.939,1.184l-0.769-4.041l4.104,0.338l-1.592-3.793l4.078-0.52l-2.343-3.383
		l3.884-1.357L45.311,27.134z M16.493,36.182c-2.841,1.602-5.631,0.987-6.8-0.914l3.378-1.9c0.295,0.342,0.663,0.508,1.063,0.52
		c0.386,0.021,0.811-0.1,1.155-0.295c0.88-0.5,1.304-1.111,1.018-1.617c-0.919-1.631-6.474,2.982-8.794-1.127
		c-1.289-2.289,0.035-4.555,2.724-6.07c2.991-1.688,5.21-0.928,6.527,0.811l-3.349,1.892c-0.271-0.345-0.591-0.457-0.921-0.449
		c-0.328,0.012-0.678,0.127-1.023,0.32c-0.774,0.438-0.992,0.856-0.773,1.246c0.91,1.614,6.535-2.878,8.742,1.038
		C20.845,32.132,19.454,34.516,16.493,36.182z M27.379,29.667l-0.623-0.752c-0.418,1.322-1.181,2.063-2.347,2.721
		c-1.478,0.834-3.207,0.849-4.128-0.78c-2.005-3.56,4.481-5.093,3.655-6.558c-0.32-0.566-1.052-0.252-1.38-0.068
		c-0.432,0.244-0.965,0.664-0.662,1.381l-2.987,1.686c-0.938-1.66-0.304-3.297,2.792-5.041c3.704-2.094,4.705-0.846,5.76,1.023
		l2.066,3.662c0.252,0.449,0.393,0.664,0.981,0.766l0.086,0.148L27.379,29.667z M31.264,27.479l-6.07-10.765l3.111-1.752
		l6.068,10.763L31.264,27.479z M39.609,23.065c-2.512,1.414-5.262,1.074-6.746-1.555c-1.449-2.572-0.451-5.303,2.063-6.721
		c2.898-1.633,5.777-0.617,7.332,2.25l-5.932,3.344c0.523,0.928,1.584,1.135,2.408,0.672c0.49-0.277,0.813-0.752,0.777-1.346
		l2.975-1.676C43.043,20.28,41.434,22.036,39.609,23.065z"/>
</g>
</svg>
