<?xml version="1.0" encoding="utf-8"?>
<!-- Generator: Adobe Illustrator 16.0.0, SVG Export Plug-In . SVG Version: 6.00 Build 0)  -->
<!DOCTYPE svg PUBLIC "-//W3C//DTD SVG 1.1//EN" "http://www.w3.org/Graphics/SVG/1.1/DTD/svg11.dtd">
<svg version="1.1" id="Layer_1" xmlns="http://www.w3.org/2000/svg" xmlns:xlink="http://www.w3.org/1999/xlink" x="0px" y="0px"
	 width="50px" height="50px" viewBox="0 0 50 50" enable-background="new 0 0 50 50" xml:space="preserve">
<g>
	<g>
		<path d="M47.48,21.583h-1.985c-0.604,0-1.234-0.465-1.402-1.038l-2.7-6.316c-0.291-0.517-0.197-1.286,0.229-1.709l1.346-1.343
			c0.42-0.425,0.42-1.113,0-1.535l-3.238-3.239c-0.424-0.423-1.11-0.423-1.541,0l-1.455,1.465c-0.428,0.421-1.207,0.538-1.731,0.262
			l-5.494-2.195c-0.575-0.162-1.047-0.787-1.047-1.382V2.515c0-0.593-0.487-1.08-1.082-1.08h-4.582c-0.598,0-1.086,0.487-1.086,1.08
			v2.038c0,0.595-0.469,1.227-1.035,1.402L14.3,8.683c-0.51,0.3-1.27,0.197-1.697-0.219l-1.428-1.432
			c-0.42-0.421-1.111-0.421-1.535,0l-3.236,3.242c-0.426,0.423-0.426,1.114,0,1.532l1.555,1.563
			c0.426,0.422,0.543,1.195,0.266,1.725l-2.166,5.445c-0.16,0.58-0.781,1.045-1.381,1.045h-2.16c-0.594,0-1.078,0.487-1.078,1.082
			v4.583c0,0.603,0.484,1.09,1.078,1.09h2.16c0.6,0,1.229,0.461,1.402,1.035l2.66,6.269c0.303,0.514,0.197,1.28-0.213,1.705
			L7.032,38.83c-0.422,0.418-0.422,1.107,0,1.527l3.242,3.24c0.424,0.424,1.111,0.424,1.529,0l1.592-1.58
			c0.422-0.425,1.188-0.537,1.719-0.257l5.559,2.218c0.566,0.166,1.035,0.791,1.035,1.381v2.125c0,0.594,0.488,1.08,1.086,1.08
			h4.582c0.595,0,1.082-0.486,1.082-1.08v-2.125c0-0.59,0.467-1.215,1.047-1.392l6.211-2.635c0.519-0.293,1.277-0.188,1.703,0.226
			l1.401,1.411c0.423,0.418,1.113,0.418,1.535,0l3.244-3.243c0.422-0.42,0.422-1.111,0-1.533l-1.496-1.488
			c-0.416-0.424-0.535-1.195-0.252-1.725l2.252-5.604c0.156-0.578,0.785-1.039,1.392-1.045h1.985c0.593,0,1.082-0.488,1.082-1.084
			v-4.583C48.563,22.07,48.073,21.583,47.48,21.583z M25.001,35.662c-5.889,0-10.662-4.775-10.662-10.662
			c0-5.889,4.773-10.661,10.662-10.661c5.888,0,10.66,4.772,10.66,10.661C35.661,30.887,30.889,35.662,25.001,35.662z"/>
		<path d="M27.376,48.939h-4.582c-0.806,0-1.461-0.652-1.461-1.455v-2.125c0-0.425-0.358-0.901-0.766-1.021l-5.592-2.229
			c-0.468-0.241-1.023-0.121-1.314,0.173l-1.594,1.582c-0.54,0.547-1.505,0.551-2.059-0.001l-3.242-3.24
			c-0.275-0.274-0.427-0.641-0.427-1.031s0.152-0.756,0.428-1.028l1.494-1.482c0.292-0.302,0.367-0.888,0.154-1.248l-2.682-6.313
			c-0.139-0.455-0.617-0.807-1.057-0.807h-2.16c-0.801,0-1.453-0.657-1.453-1.465v-4.583c0-0.803,0.652-1.457,1.453-1.457h2.16
			c0.438,0,0.904-0.353,1.02-0.77l2.179-5.484c0.219-0.424,0.129-1.012-0.182-1.319l-1.557-1.565
			c-0.274-0.27-0.428-0.634-0.429-1.025c-0.001-0.393,0.151-0.761,0.43-1.038l3.235-3.241c0.553-0.551,1.518-0.549,2.065,0
			l1.428,1.432c0.291,0.284,0.892,0.365,1.241,0.161l6.417-2.75c0.447-0.141,0.808-0.629,0.808-1.058V2.515
			c0-0.802,0.655-1.455,1.461-1.455h4.582c0.804,0,1.457,0.653,1.457,1.455v2.038c0,0.428,0.361,0.905,0.773,1.021l5.531,2.208
			c0.464,0.237,1.031,0.113,1.33-0.181l1.452-1.462c0.564-0.555,1.521-0.551,2.071-0.001l3.239,3.24
			c0.564,0.567,0.565,1.493,0.001,2.063l-1.348,1.345c-0.299,0.297-0.377,0.886-0.166,1.259l2.718,6.353
			c0.135,0.452,0.622,0.811,1.058,0.811h1.985c0.804,0,1.457,0.653,1.457,1.456v4.583c0,0.805-0.653,1.459-1.457,1.459h-1.985
			c-0.445,0.004-0.918,0.355-1.029,0.768l-2.267,5.646c-0.222,0.421-0.136,1.009,0.172,1.322l1.493,1.485
			c0.275,0.275,0.427,0.643,0.427,1.034s-0.152,0.757-0.427,1.03l-3.244,3.243c-0.551,0.547-1.513,0.546-2.063,0.001l-1.403-1.413
			c-0.291-0.283-0.895-0.367-1.253-0.164l-6.249,2.654c-0.461,0.142-0.818,0.615-0.818,1.046v2.125
			C28.833,48.287,28.18,48.939,27.376,48.939z M14.456,41.231c0.301,0,0.589,0.068,0.833,0.197l5.523,2.201
			c0.698,0.203,1.271,0.968,1.271,1.729v2.125c0,0.389,0.319,0.705,0.711,0.705h4.582c0.39,0,0.707-0.316,0.707-0.705v-2.125
			c0-0.757,0.576-1.526,1.313-1.75l6.174-2.622c0.211-0.121,0.508-0.196,0.819-0.196c0.495,0,0.966,0.182,1.292,0.499l1.405,1.415
			c0.264,0.26,0.738,0.264,1.006-0.002l3.243-3.242c0.133-0.132,0.206-0.31,0.206-0.499c0-0.191-0.073-0.37-0.207-0.503
			l-1.495-1.488c-0.537-0.548-0.676-1.498-0.318-2.167l2.235-5.567c0.184-0.692,0.953-1.272,1.735-1.28h1.989
			c0.39,0,0.707-0.318,0.707-0.709v-4.583c0-0.389-0.317-0.706-0.707-0.706h-1.985c-0.773,0-1.547-0.574-1.763-1.308l-2.685-6.274
			c-0.36-0.636-0.232-1.584,0.309-2.123l1.346-1.343c0.273-0.277,0.273-0.728-0.001-1.004l-3.238-3.239
			c-0.27-0.27-0.738-0.267-1.013,0.002l-1.452,1.462c-0.527,0.52-1.524,0.672-2.172,0.329l-5.458-2.178
			c-0.703-0.196-1.283-0.961-1.283-1.73V2.515c0-0.389-0.317-0.705-0.707-0.705h-4.582c-0.392,0-0.711,0.316-0.711,0.705v2.038
			c0,0.761-0.571,1.535-1.299,1.76l-6.339,2.715c-0.207,0.125-0.505,0.203-0.822,0.203c-0.491,0-0.959-0.182-1.284-0.498
			l-1.432-1.436c-0.267-0.267-0.738-0.266-1.005,0.001l-3.235,3.241c-0.136,0.135-0.21,0.314-0.209,0.505
			c0,0.188,0.074,0.364,0.207,0.495l1.558,1.566c0.54,0.535,0.687,1.486,0.333,2.163l-2.15,5.41
			c-0.191,0.701-0.957,1.281-1.729,1.281h-2.16c-0.388,0-0.703,0.317-0.703,0.707v4.583c0,0.395,0.315,0.715,0.703,0.715h2.16
			c0.768,0,1.541,0.572,1.761,1.302l2.646,6.23c0.364,0.61,0.247,1.558-0.289,2.112l-1.5,1.488
			c-0.133,0.131-0.206,0.307-0.206,0.495c0,0.19,0.073,0.367,0.206,0.5l3.243,3.24c0.268,0.269,0.733,0.269,0.997,0.002l1.595-1.583
			C13.453,41.427,13.949,41.231,14.456,41.231z M25.001,36.037c-6.086,0-11.037-4.951-11.037-11.037
			c0-6.085,4.951-11.036,11.037-11.036c6.085,0,11.035,4.951,11.035,11.036C36.036,31.086,31.086,36.037,25.001,36.037z
			 M25.001,14.714c-5.672,0-10.287,4.614-10.287,10.286s4.615,10.287,10.287,10.287c5.671,0,10.285-4.615,10.285-10.287
			S30.672,14.714,25.001,14.714z"/>
	</g>
</g>
</svg>
