<?xml version="1.0" encoding="utf-8"?>
<!-- Generator: Adobe Illustrator 16.0.0, SVG Export Plug-In . SVG Version: 6.00 Build 0)  -->
<!DOCTYPE svg PUBLIC "-//W3C//DTD SVG 1.1//EN" "http://www.w3.org/Graphics/SVG/1.1/DTD/svg11.dtd">
<svg version="1.1" id="Layer_1" xmlns="http://www.w3.org/2000/svg" xmlns:xlink="http://www.w3.org/1999/xlink" x="0px" y="0px"
	 width="50px" height="50px" viewBox="0 0 50 50" enable-background="new 0 0 50 50" xml:space="preserve">
<g>
	<g>
		<path d="M46.965,21.663h-1.943c-0.588,0-1.203-0.455-1.362-1.016l-2.646-6.17c-0.281-0.503-0.188-1.254,0.225-1.669l1.316-1.313
			c0.409-0.413,0.409-1.089,0-1.499l-3.164-3.164c-0.41-0.414-1.086-0.414-1.505,0l-1.424,1.429c-0.418,0.414-1.18,0.528-1.69,0.256
			L29.4,6.373c-0.56-0.157-1.021-0.77-1.021-1.351V3.035c0-0.58-0.479-1.058-1.057-1.058h-4.479c-0.583,0-1.06,0.478-1.06,1.058
			v1.989c0,0.581-0.459,1.196-1.012,1.369l-6.228,2.668c-0.496,0.29-1.243,0.192-1.656-0.216l-1.398-1.4
			c-0.408-0.409-1.084-0.409-1.497,0L6.827,10.61c-0.417,0.414-0.417,1.089,0,1.5l1.519,1.526c0.421,0.414,0.533,1.165,0.264,1.686
			l-2.116,5.32c-0.158,0.565-0.764,1.021-1.35,1.021H3.03c-0.579,0-1.051,0.477-1.051,1.06v4.475c0,0.586,0.472,1.063,1.051,1.063
			h2.113c0.586,0,1.197,0.451,1.368,1.011l2.598,6.125c0.296,0.502,0.196,1.252-0.21,1.666l-1.457,1.444
			c-0.41,0.416-0.41,1.084,0,1.5l3.171,3.164c0.413,0.414,1.087,0.414,1.492,0l1.555-1.547c0.415-0.414,1.162-0.524,1.683-0.246
			l5.429,2.164c0.553,0.16,1.012,0.772,1.012,1.351v2.073c0,0.58,0.477,1.058,1.06,1.058h4.479c0.575,0,1.057-0.478,1.057-1.058
			v-2.073c0-0.576,0.453-1.189,1.021-1.355l6.072-2.582c0.504-0.283,1.245-0.184,1.663,0.225l1.369,1.375
			c0.414,0.41,1.086,0.41,1.498,0l3.17-3.168c0.412-0.41,0.412-1.086,0-1.496l-1.463-1.455c-0.405-0.416-0.521-1.168-0.242-1.684
			l2.197-5.477c0.153-0.563,0.771-1.015,1.356-1.021h1.943c0.578,0,1.057-0.479,1.057-1.059v-4.476
			C48.021,22.139,47.543,21.663,46.965,21.663z M25.002,38.113c-7.242,0-13.112-5.871-13.112-13.112
			c0-7.243,5.87-13.111,13.112-13.111c7.24,0,13.111,5.868,13.111,13.111C38.113,32.242,32.242,38.113,25.002,38.113z"/>
		<path d="M27.323,48.398h-4.479c-0.791,0-1.435-0.643-1.435-1.433v-2.073c0-0.413-0.347-0.876-0.742-0.99l-5.463-2.176
			c-0.465-0.243-0.991-0.124-1.279,0.163l-1.555,1.547c-0.524,0.538-1.479,0.543-2.022-0.001l-3.17-3.163
			c-0.553-0.562-0.553-1.47-0.002-2.028l1.46-1.448c0.286-0.291,0.358-0.857,0.151-1.209l-2.62-6.169
			c-0.137-0.441-0.599-0.782-1.022-0.782H3.03c-0.786,0-1.426-0.646-1.426-1.438v-4.475c0-0.792,0.64-1.435,1.426-1.435h2.114
			c0.423,0,0.875-0.342,0.989-0.747l2.128-5.357c0.211-0.413,0.123-0.983-0.178-1.28l-1.521-1.528
			c-0.271-0.266-0.421-0.626-0.422-1.01c-0.001-0.386,0.149-0.749,0.423-1.021L9.728,7.18c0.544-0.539,1.492-0.537,2.027,0
			l1.398,1.4c0.28,0.277,0.866,0.355,1.201,0.158l6.27-2.689c0.435-0.138,0.785-0.611,0.785-1.024V3.035
			c0-0.79,0.644-1.433,1.435-1.433h4.479c0.789,0,1.432,0.643,1.432,1.433v1.987c0,0.416,0.349,0.878,0.747,0.99l5.408,2.157
			c0.456,0.234,0.998,0.111,1.288-0.175l1.422-1.427c0.552-0.545,1.5-0.542,2.037,0.001l3.163,3.163
			c0.556,0.558,0.557,1.467,0.001,2.028l-1.318,1.315c-0.287,0.289-0.363,0.859-0.162,1.22l2.663,6.205
			c0.128,0.441,0.597,0.789,1.018,0.789h1.943c0.789,0,1.432,0.643,1.432,1.433v4.476c0,0.79-0.643,1.434-1.432,1.434h-1.943
			c-0.422,0.004-0.888,0.352-0.994,0.744l-2.212,5.518c-0.217,0.407-0.134,0.978,0.163,1.282l1.459,1.451
			c0.271,0.27,0.419,0.629,0.419,1.014s-0.148,0.744-0.419,1.014l-3.17,3.168c-0.541,0.537-1.485,0.538-2.026,0.001l-1.371-1.377
			c-0.281-0.275-0.866-0.357-1.214-0.162l-6.109,2.6c-0.441,0.132-0.792,0.598-0.792,1.011v2.073
			C28.755,47.756,28.112,48.398,27.323,48.398z M14.694,40.85c0.298,0,0.583,0.068,0.826,0.197l5.391,2.146
			c0.685,0.196,1.249,0.948,1.249,1.699v2.073c0,0.376,0.307,0.683,0.685,0.683h4.479c0.369,0,0.682-0.313,0.682-0.683v-2.073
			c0-0.75,0.566-1.504,1.29-1.716l6.031-2.566c0.206-0.119,0.496-0.191,0.801-0.191c0.487,0,0.95,0.18,1.271,0.492l1.373,1.379
			c0.256,0.254,0.71,0.255,0.968-0.001l3.17-3.168c0.128-0.128,0.198-0.299,0.198-0.482s-0.07-0.354-0.198-0.482l-1.463-1.455
			c-0.527-0.541-0.66-1.474-0.308-2.127l2.18-5.438c0.182-0.679,0.935-1.248,1.7-1.256h1.947c0.369,0,0.682-0.313,0.682-0.684
			v-4.476c0-0.37-0.313-0.683-0.682-0.683h-1.943c-0.761,0-1.518-0.566-1.723-1.289l-2.63-6.125
			c-0.35-0.622-0.225-1.551,0.304-2.082l1.317-1.314c0.265-0.267,0.265-0.702-0.001-0.969l-3.164-3.164
			c-0.258-0.261-0.713-0.258-0.976,0.001l-1.422,1.427c-0.518,0.512-1.496,0.663-2.132,0.323l-5.334-2.127
			c-0.688-0.191-1.257-0.943-1.257-1.699V3.035c0-0.37-0.313-0.683-0.682-0.683h-4.479c-0.377,0-0.685,0.307-0.685,0.683v1.989
			c0,0.744-0.56,1.503-1.275,1.727l-6.193,2.655c-0.514,0.309-1.554,0.212-2.067-0.294L11.225,7.71
			c-0.255-0.255-0.71-0.254-0.968,0.001l-3.165,3.164c-0.131,0.131-0.203,0.304-0.203,0.488c0,0.182,0.071,0.353,0.201,0.48
			l1.521,1.528c0.53,0.521,0.676,1.455,0.331,2.123l-2.1,5.286c-0.191,0.688-0.942,1.257-1.699,1.257H3.03
			c-0.373,0-0.676,0.307-0.676,0.685v4.475c0,0.38,0.303,0.688,0.676,0.688h2.113c0.75,0,1.508,0.561,1.727,1.276l2.584,6.088
			c0.359,0.604,0.243,1.534-0.288,2.075l-1.46,1.448c-0.261,0.265-0.261,0.702,0.003,0.971l3.168,3.161
			c0.26,0.26,0.711,0.259,0.959,0.004l1.559-1.551C13.715,41.04,14.201,40.85,14.694,40.85z M25.002,38.488
			c-7.437,0-13.487-6.051-13.487-13.487c0-7.436,6.05-13.486,13.487-13.486s13.486,6.05,13.486,13.486
			C38.488,32.438,32.438,38.488,25.002,38.488z M25.002,12.265c-7.023,0-12.737,5.713-12.737,12.736
			c0,7.023,5.714,12.737,12.737,12.737c7.022,0,12.736-5.714,12.736-12.737C37.738,17.979,32.024,12.265,25.002,12.265z"/>
	</g>
	<g>
		<path d="M25.002,15.113c-5.461,0-9.891,4.429-9.891,9.889c0,5.461,4.43,9.885,9.891,9.885c5.459,0,9.887-4.424,9.887-9.885
			C34.889,19.542,30.461,15.113,25.002,15.113z"/>
		<path d="M25.002,35.262c-5.661,0-10.266-4.603-10.266-10.26c0-5.659,4.605-10.264,10.266-10.264
			c5.658,0,10.262,4.604,10.262,10.264C35.264,30.659,30.66,35.262,25.002,35.262z M25.002,15.488c-5.247,0-9.516,4.268-9.516,9.514
			c0,5.244,4.269,9.51,9.516,9.51c5.245,0,9.512-4.266,9.512-9.51C34.514,19.756,30.247,15.488,25.002,15.488z"/>
	</g>
</g>
</svg>
