<?xml version="1.0" encoding="utf-8"?>
<!-- Generator: Adobe Illustrator 16.0.0, SVG Export Plug-In . SVG Version: 6.00 Build 0)  -->
<!DOCTYPE svg PUBLIC "-//W3C//DTD SVG 1.1//EN" "http://www.w3.org/Graphics/SVG/1.1/DTD/svg11.dtd">
<svg version="1.1" id="Layer_1" xmlns="http://www.w3.org/2000/svg" xmlns:xlink="http://www.w3.org/1999/xlink" x="0px" y="0px"
	 width="50px" height="50px" viewBox="0 0 50 50" enable-background="new 0 0 50 50" xml:space="preserve">
<g>
	<path d="M25.543,5.233l4.912,8.512h11.77c-0.17-0.287-0.229-0.572-0.229-0.918c0-1.199,0.973-2.168,2.174-2.168
		c1.199,0,2.17,0.969,2.17,2.168c0,1.205-0.971,2.176-2.17,2.176c-0.397,0-0.801-0.119-1.086-0.344l-6.056,10.512L42.911,35.4
		c0.397-0.519,1.028-0.857,1.713-0.857c1.199,0,2.17,0.969,2.17,2.17c0,1.199-0.971,2.17-2.17,2.17s-2.17-0.971-2.17-2.17
		c0-0.055,0-0.113,0-0.17H30.455l-4.799,8.281c0.857,0.283,1.486,1.086,1.486,2.057c0,1.199-0.971,2.17-2.168,2.17
		c-1.143,0-2.114-0.971-2.114-2.17c0-0.914,0.569-1.715,1.37-2l-4.799-8.338H7.717c0,0.115,0.059,0.281,0.059,0.396
		c0,1.199-0.971,2.174-2.171,2.174c-1.199,0-2.17-0.975-2.17-2.174s0.971-2.172,2.17-2.172c0.514,0,0.972,0.229,1.37,0.516
		l5.828-10.111l-5.77-10.056c-0.4,0.514-0.972,0.801-1.657,0.801c-1.199,0-2.169-0.975-2.169-2.172c0-1.143,0.97-2.117,2.169-2.117
		c1.142,0,2.115,0.918,2.115,2.117H19.43l4.913-8.57c-0.857-0.283-1.484-1.086-1.484-2.057c0-1.199,0.972-2.168,2.114-2.168
		c1.199,0,2.169,0.969,2.169,2.168C27.143,4.146,26.455,5.005,25.543,5.233L25.543,5.233z M24.914,19.003l-1.485,4.682h-4.967
		l3.997,2.917l-1.544,4.684l3.999-2.914l3.999,2.914l-1.541-4.684l3.998-2.917h-4.914L24.914,19.003L24.914,19.003z M24.914,15.003
		c-5.597,0-10.169,4.514-10.169,10.168c0,5.601,4.572,10.17,10.169,10.17c5.598,0,10.168-4.569,10.168-10.17
		C35.082,19.517,30.512,15.003,24.914,15.003z"/>
</g>
</svg>
