<?xml version="1.0" encoding="utf-8"?>
<!-- Generator: Adobe Illustrator 16.0.0, SVG Export Plug-In . SVG Version: 6.00 Build 0)  -->
<!DOCTYPE svg PUBLIC "-//W3C//DTD SVG 1.1//EN" "http://www.w3.org/Graphics/SVG/1.1/DTD/svg11.dtd">
<svg version="1.1" id="Layer_1" xmlns="http://www.w3.org/2000/svg" xmlns:xlink="http://www.w3.org/1999/xlink" x="0px" y="0px"
	 width="50px" height="50px" viewBox="0 0 50 50" enable-background="new 0 0 50 50" xml:space="preserve">
<g>
	<path d="M26.199,13.418l-1.014-0.973l-0.98,1.009C24.747,12.896,25.636,12.88,26.199,13.418z"/>
	<path d="M25.218,14.002c0.147,0,0.291,0,0.437,0c0.566,0.057,1.082,0.225,1.508,0.463L36.268,5.1
		c0.543-0.561,0.531-1.454-0.028-2.002c-0.562-0.541-1.457-0.531-2.003,0.031l-9.05,9.316l1.014,0.973
		c-0.563-0.538-1.453-0.522-1.995,0.036l0.98-1.009L15.146,2.802c-0.563-0.541-1.458-0.524-2,0.04
		c-0.539,0.564-0.521,1.46,0.041,2.002l10.069,9.668c0.408-0.264,0.925-0.451,1.526-0.51C24.926,14.002,25.073,14.002,25.218,14.002
		z"/>
	<path d="M38.744,16.328H28.271c0-0.146,0-0.291,0-0.291c0-0.623-0.438-1.191-1.109-1.572l-0.928,0.958
		c-0.545,0.559-1.437,0.574-1.995,0.034l-0.983-0.945c-0.587,0.379-0.946,0.927-0.946,1.525c0,0,0,0.146,0,0.291H11.259
		c-3.202,0-5.818,2.618-5.818,5.816v18.472c0,3.344,2.616,5.963,5.818,5.963h0.725v1.014h26.321v-1.014h0.439
		c3.199,0,5.814-2.619,5.814-5.963V22.145C44.559,18.946,41.943,16.328,38.744,16.328z M36.207,46.495
		c-0.762,0-1.379-0.619-1.379-1.383c0-0.765,0.617-1.38,1.379-1.38c0.764,0,1.381,0.615,1.381,1.38
		C37.588,45.876,36.971,46.495,36.207,46.495z M39.762,38.436c0,2.471-2.035,4.362-4.363,4.362H14.604
		c-2.472,0-4.364-1.893-4.364-4.362V24.473c0-2.472,1.893-4.509,4.364-4.509h20.794c2.328,0,4.362,2.037,4.362,4.509L39.762,38.436
		L39.762,38.436z"/>
	<path d="M26.234,15.423l0.928-0.958c-0.426-0.239-0.941-0.407-1.508-0.463c-0.146,0-0.288,0-0.437,0c-0.146,0-0.292,0-0.436,0
		c-0.602,0.06-1.118,0.246-1.526,0.51l0.983,0.945C24.798,15.997,25.689,15.982,26.234,15.423z"/>
</g>
</svg>
