<?xml version="1.0" encoding="utf-8"?>
<!-- Generator: Adobe Illustrator 16.0.0, SVG Export Plug-In . SVG Version: 6.00 Build 0)  -->
<!DOCTYPE svg PUBLIC "-//W3C//DTD SVG 1.1//EN" "http://www.w3.org/Graphics/SVG/1.1/DTD/svg11.dtd">
<svg version="1.1" id="Layer_1" xmlns="http://www.w3.org/2000/svg" xmlns:xlink="http://www.w3.org/1999/xlink" x="0px" y="0px"
	 width="50px" height="50px" viewBox="0 0 50 50" enable-background="new 0 0 50 50" xml:space="preserve">
<g>
	<polygon points="24.999,4.892 27.451,1.673 29.18,5.331 32.248,2.688 33.178,6.632 36.729,4.683 36.816,8.731 40.695,7.567 
		39.941,11.546 43.977,11.21 42.412,14.944 46.428,15.458 44.121,18.786 47.943,20.122 44.994,22.896 48.455,24.999 44.994,27.102 
		47.943,29.878 44.121,31.21 46.428,34.536 42.412,35.054 43.977,38.786 39.941,38.45 40.695,42.429 36.816,41.263 36.729,45.313 
		33.178,43.364 32.248,47.309 29.18,44.665 27.451,48.327 24.999,45.104 22.55,48.327 20.82,44.665 17.75,47.309 16.823,43.364 
		13.274,45.313 13.182,41.263 9.304,42.429 10.057,38.45 6.025,38.786 7.588,35.054 3.572,34.536 5.877,31.21 2.055,29.878 
		5.004,27.102 1.544,24.999 5.004,22.896 2.055,20.122 5.877,18.786 3.572,15.458 7.588,14.944 6.025,11.21 10.057,11.546 
		9.304,7.567 13.182,8.731 13.274,4.683 16.823,6.632 17.75,2.688 20.82,5.331 22.55,1.673 	"/>
</g>
</svg>
