<?xml version="1.0" encoding="utf-8"?>
<!-- Generator: Adobe Illustrator 16.0.0, SVG Export Plug-In . SVG Version: 6.00 Build 0)  -->
<!DOCTYPE svg PUBLIC "-//W3C//DTD SVG 1.1//EN" "http://www.w3.org/Graphics/SVG/1.1/DTD/svg11.dtd">
<svg version="1.1" id="Layer_1" xmlns="http://www.w3.org/2000/svg" xmlns:xlink="http://www.w3.org/1999/xlink" x="0px" y="0px"
	 width="50px" height="50px" viewBox="0 0 50 50" enable-background="new 0 0 50 50" xml:space="preserve">
<g>
	<path d="M10.998,33.02c0.024,0.035-4.429-2.514-6.348-3.67c0.002-0.01,0.002-0.021,0.004-0.028
		C4.652,29.33,4.652,29.342,4.65,29.35c-0.623-0.375-1.197-0.725-1.671-1.01c-0.871-0.533-1.019-1.635-0.401-2.768
		c1.771-3.27,5.314-9.649,6.04-9.867l32.184-9.753c0.978-0.294,2.011,0.258,2.306,1.234l4.611,15.231
		c0.295,0.976-0.256,2.009-1.232,2.306l-32.18,9.75c-0.246,0.072-2.42-0.98-2.42-0.98s0.232-2.607-0.754-5.332
		c1.197-0.643,1.822-2.051,1.41-3.397c-0.465-1.543-2.094-2.412-3.633-1.944c-1.541,0.465-2.41,2.092-1.943,3.634
		c0.438,1.441,1.891,2.299,3.346,2.016C10.816,30.326,10.819,30.188,10.998,33.02z"/>
	<g>
		<path d="M6.087,35.107c-0.189,3.922,0.412,7.355,1.495,8.549c0.271,0.297,0.568,0.455,0.885,0.469
			c1.822,0.09,3.027-4.439,3.236-8.746c0.208-4.305-0.556-8.93-2.379-9.02C7.495,26.273,6.291,30.803,6.087,35.107z M9.3,26.859
			c1.092,0.053,2.142,3.557,1.904,8.494c-0.24,4.939-1.623,8.325-2.714,8.271c-0.18-0.008-0.36-0.109-0.538-0.309
			c-0.984-1.082-1.546-4.447-1.366-8.188C6.82,30.191,8.205,26.809,9.3,26.859z"/>
	</g>
</g>
</svg>
