<?xml version="1.0" encoding="utf-8"?>
<!-- Generator: Adobe Illustrator 16.0.0, SVG Export Plug-In . SVG Version: 6.00 Build 0)  -->
<!DOCTYPE svg PUBLIC "-//W3C//DTD SVG 1.1//EN" "http://www.w3.org/Graphics/SVG/1.1/DTD/svg11.dtd">
<svg version="1.1" id="Layer_1" xmlns="http://www.w3.org/2000/svg" xmlns:xlink="http://www.w3.org/1999/xlink" x="0px" y="0px"
	 width="50px" height="50px" viewBox="0 0 50 50" enable-background="new 0 0 50 50" xml:space="preserve">
<g>
	<g>
		<path d="M10.958,33.02c0.025,0.033-4.427-2.516-6.349-3.672c0.002-0.01,0.005-0.021,0.005-0.026c0,0.008-0.003,0.019-0.005,0.026
			c-0.623-0.373-1.195-0.724-1.668-1.009c-0.872-0.534-1.021-1.635-0.407-2.767c1.775-3.27,5.317-9.65,6.044-9.872l32.181-9.749
			c0.979-0.295,2.011,0.257,2.306,1.234l4.617,15.23c0.293,0.977-0.259,2.009-1.233,2.305l-32.182,9.75
			c-0.245,0.073-2.422-0.979-2.422-0.979s0.236-2.608-0.752-5.332c1.196-0.641,1.822-2.051,1.411-3.399
			c-0.464-1.539-2.095-2.411-3.634-1.942c-1.543,0.465-2.411,2.092-1.942,3.633c0.438,1.444,1.895,2.298,3.344,2.017
			C10.777,30.324,10.781,30.188,10.958,33.02z"/>
		<g>
			<path d="M6.046,35.105c-0.205,4.308,0.559,8.934,2.381,9.021c1.821,0.089,3.028-4.44,3.238-8.748
				c0.205-4.306-0.561-8.931-2.383-9.021C7.458,26.271,6.253,30.801,6.046,35.105z M9.258,26.857
				c1.091,0.054,2.144,3.556,1.908,8.496c-0.242,4.939-1.625,8.325-2.716,8.271c-1.09-0.052-2.141-3.556-1.905-8.497
				C6.783,30.189,8.166,26.807,9.258,26.857z"/>
		</g>
	</g>
	<path d="M4.971,30.504l8.397,8.038l33.17-8.413c0,0,1.101-0.661,1.301-2.119l-0.657-1.253L13.68,35.852L4.971,30.504z"/>
</g>
</svg>
