<?xml version="1.0" encoding="utf-8"?>
<!-- Generator: Adobe Illustrator 16.0.0, SVG Export Plug-In . SVG Version: 6.00 Build 0)  -->
<!DOCTYPE svg PUBLIC "-//W3C//DTD SVG 1.1//EN" "http://www.w3.org/Graphics/SVG/1.1/DTD/svg11.dtd">
<svg version="1.1" id="Layer_1" xmlns="http://www.w3.org/2000/svg" xmlns:xlink="http://www.w3.org/1999/xlink" x="0px" y="0px"
	 width="50px" height="50px" viewBox="0 0 50 50" enable-background="new 0 0 50 50" xml:space="preserve">
<g>
	<path d="M31.197,27.484l-3.895,2.757l-0.179,0.127L12.068,40.763c-1.024,0.728-2.395,0.395-3.053-0.737L2.232,28.331l-0.686,0.473
		c-1.022,0.726-1.324,2.242-0.667,3.373l7.145,12.319c0.658,1.132,2.029,1.465,3.053,0.738L26.136,34.84l0.179-0.127l3.893-2.758
		c0.514-0.357,1.035-1.193,1.158-1.85l0.721-3.748C31.857,26.813,31.531,27.251,31.197,27.484z"/>
	<path d="M49.24,4.607c-1.012-0.964-5.137,1.237-7.986,4.814c-2.135,2.677-4.471,3.854-6.938,4.466
		c-0.019-0.033-0.029-0.076-0.047-0.105L32.4,10.556c-0.332-0.565-1.078-1.15-1.678-1.296l-6.06-1.508
		c-0.592-0.146-1.498,0.027-2.009,0.39l-3.891,2.757l-0.176,0.122L3.526,21.419c-1.023,0.725-1.324,2.241-0.667,3.373l7.145,12.317
		c0.658,1.134,2.029,1.467,3.053,0.74l15.059-10.396l0.178-0.126l3.894-2.758c0.514-0.358,1.035-1.193,1.158-1.85l1.29-6.715
		c0.068-0.354,0.048-0.805-0.032-1.236c4.479-0.666,10.033-2.272,13.201-6.351C49.709,5.966,49.637,4.992,49.24,4.607z
		 M30.047,17.136c-0.936,0.66-2.176,0.361-2.775-0.668c-0.602-1.035-0.328-2.41,0.606-3.07c0.933-0.663,2.179-0.365,2.778,0.671
		c0.072,0.127,0.133,0.261,0.181,0.396c-0.411,0.047-0.823,0.09-1.237,0.133l-1.813,0.197l0.033,0.311l0.039-0.004l0.025,0.217
		c0.156-0.019,0.482-0.033,0.92-0.048c0.551-0.021,1.297-0.053,2.156-0.11C30.993,15.927,30.674,16.692,30.047,17.136z
		 M30.913,14.769c0.005,0.027,0.015,0.053,0.021,0.08c-0.584,0.039-1.109,0.066-1.559,0.086l0.25-0.026
		C30.059,14.863,30.486,14.817,30.913,14.769z M47.588,8.216c-3.113,4.016-8.621,5.594-13.059,6.25
		c-0.027-0.102-0.055-0.196-0.088-0.29c2.49-0.627,4.853-1.829,7.025-4.55c2.809-3.521,6.776-5.551,7.585-4.781
		C49.207,4.992,49.557,5.676,47.588,8.216z"/>
</g>
</svg>
