<svg width="20.536" xmlns="http://www.w3.org/2000/svg" height="11.866" viewBox="0 0 20.536 11.866" xmlns:xlink="http://www.w3.org/1999/xlink" enable-background="new 0 0 20.536 11.866">
<path d="m14.739,8.33c-.978,0-1.77,.793-1.77,1.768 0,.977 .792,1.768 1.77,1.768 .977,0 1.767-.791 1.767-1.768 0-.975-.79-1.768-1.767-1.768zm0,2.586c-.451,0-.816-.365-.816-.818 0-.451 .365-.816 .816-.816s.815,.365 .815,.816c.002,.453-.364,.818-.815,.818z"/>
<path d="m2.95,8.33c-.978,0-1.769,.793-1.769,1.768 0,.977 .791,1.768 1.769,1.768 .975,0 1.768-.791 1.768-1.768 0-.975-.793-1.768-1.768-1.768zm0,2.586c-.452,0-.818-.365-.818-.818 0-.451 .366-.816 .818-.816 .45,0 .815,.365 .815,.816 .003,.453-.365,.818-.815,.818z"/>
<path d="m20.2,0h-8.369-.374-6.038c-.186,0-.336,.15-.336,.336v1.932c0,.18 .141,.287 .229,.287h3.096c.119,0 .22,.066 .278,.162l-.488,.48c-.061-.092-.158-.156-.276-.156h-2.839v.037h-.292c-.188,0-.336,.15-.336,.338l-1.179,1.242-2.266,.279c-.188,0-.337,.148-.337,.336l-.225,1.205v1.227c0,.148-.1,.275-.235,.318l-.213,1.414c0,.186 .15,.338 .336,.338h.194v.029h.224c.027-.217 .082-.426 .161-.619 .349-.775 1.126-1.318 2.034-1.318 .299,0 .584,.061 .844,.168l.021-.021c.663,.326 1.146,.992 1.242,1.791h.025 .383 6.996c.146-1.129 1.109-2.004 2.277-2.004s2.131,.875 2.274,2.004h3.187c.188,0 .338-.15 .338-.338v-9.131c.002-.186-.148-.336-.336-.336zm-12.67,4.652c-0,.188-.144,.34-.317,.34h-.842-.814-.989c-.188,0-.338-.15-.338-.336l.674-.732c0-.188 .149-.336 .336-.336h.316 1.581 .075c.175,0 .317,.15 .317,.338v.726z"/>
</svg>
