<?xml version="1.0" encoding="utf-8"?>
<!-- Generator: Adobe Illustrator 16.0.0, SVG Export Plug-In . SVG Version: 6.00 Build 0)  -->
<!DOCTYPE svg PUBLIC "-//W3C//DTD SVG 1.1//EN" "http://www.w3.org/Graphics/SVG/1.1/DTD/svg11.dtd">
<svg version="1.1" id="Layer_1" xmlns="http://www.w3.org/2000/svg" xmlns:xlink="http://www.w3.org/1999/xlink" x="0px" y="0px"
	 width="50px" height="50px" viewBox="0 0 50 50" enable-background="new 0 0 50 50" xml:space="preserve">
<g>
	<g>
		<path d="M7.993,4.415c0,0.922-0.197,33.245-0.197,33.245l0.034,1.234l0.163,1.034c0.126,3.427,2.249,7.433,10.151,7.992
			c4.639,0.334,17.629,0.328,20.813,0.129c0,0,7.35-4.499-0.064-9.34c-1.215-0.093-0.512,0-0.512,0
			c-0.082,0.004-8.165-0.028-14.938-0.511c-4.108-0.293-5.845-2.962-6.029-3.268c0,0,0.019,0.031,0.053,0.094l0.631,2.324
			L17.954,4.415C17.954,4.415,13.229-1.441,7.993,4.415z"/>
	</g>
	<path d="M40.449,23.313c0,2.553-2.068,4.625-4.622,4.625H18.059c-2.554,0-4.622-2.071-4.622-4.625l0,0
		c0-2.553,2.068-4.622,4.622-4.622h17.769C38.381,18.691,40.449,20.759,40.449,23.313L40.449,23.313z"/>
</g>
</svg>
