<?xml version="1.0" encoding="utf-8"?>
<!-- Generator: Adobe Illustrator 16.0.0, SVG Export Plug-In . SVG Version: 6.00 Build 0)  -->
<!DOCTYPE svg PUBLIC "-//W3C//DTD SVG 1.1//EN" "http://www.w3.org/Graphics/SVG/1.1/DTD/svg11.dtd">
<svg version="1.1" id="Layer_1" xmlns="http://www.w3.org/2000/svg" xmlns:xlink="http://www.w3.org/1999/xlink" x="0px" y="0px"
	 width="50px" height="50px" viewBox="0 0 50 50" enable-background="new 0 0 50 50" xml:space="preserve">
<g>
	<path d="M31.439,13.767c-0.098,0.036-0.16,0.061-0.16,0.061C31.325,13.828,31.38,13.803,31.439,13.767z"/>
	<path d="M40.336,1.43H9.666c-5.052,0-9.146,3.938-9.146,8.803v29.535c0,4.859,4.094,8.804,9.146,8.804h30.67
		c5.05,0,9.145-3.943,9.145-8.804V10.233C49.479,5.368,45.386,1.43,40.336,1.43z M42.863,24.065c0,0-1.463,2.015-4.114,1.432
		c-0.222,6.274-17.213,19.925-31.611,5.039c0,0,6.225,5.729,13.207-0.636c0,0-3.193-0.37-1.299-2.918c0,0-3.355,0.158-4.275-2.333
		c0,0,1.299-1.221,2.381-0.955c0,0-3.519-0.425-3.789-3.66c0,0,1.029-0.531,1.895-0.266c0,0-3.248-1.592-2.76-4.35
		c0,0,11.475,4.403,11.691,6.365c0,0,3.411-8.063,5.846-8.646l-0.217,0.637c0,0,2.059-1.113,2.545-1.008c0,0-0.559,0.78-0.922,1.001
		c0.555-0.205,2.399-0.837,2.49-0.205c0,0,0,0.849-3.031,1.433c0,0,6.768,0.266,7.742,6.842c0,0,3.354,0.85,4.222-0.105
		c0,0-0.976,2.068-3.79,1.856C39.073,23.587,41.239,24.489,42.863,24.065z"/>
</g>
</svg>
