<?xml version="1.0" encoding="utf-8"?>
<!-- Generator: Adobe Illustrator 16.0.0, SVG Export Plug-In . SVG Version: 6.00 Build 0)  -->
<!DOCTYPE svg PUBLIC "-//W3C//DTD SVG 1.1//EN" "http://www.w3.org/Graphics/SVG/1.1/DTD/svg11.dtd">
<svg version="1.1" id="Layer_1" xmlns="http://www.w3.org/2000/svg" xmlns:xlink="http://www.w3.org/1999/xlink" x="0px" y="0px"
	 width="50px" height="50px" viewBox="0 0 50 50" enable-background="new 0 0 50 50" xml:space="preserve">
<g>
	<path d="M40.335,1.429H9.665c-5.053,0-9.143,3.94-9.143,8.802v29.537c0,4.861,4.09,8.804,9.143,8.804h30.67
		c5.047,0,9.144-3.941,9.144-8.804V10.231C49.479,5.37,45.382,1.429,40.335,1.429z M24.649,33.395l9.253,0.049
		c4.921-0.147,4.406,4.06,4.406,4.06c0.101,5.176-3.574,4.568-3.574,4.568H22.118c-10.352-0.31-10.454-10.959-10.454-10.959V10.324
		c0,0-0.06-2.739,4.345-2.837c0,0,4.083-0.105,4.297,3.393l0.152,5.426l13.146-0.052c0,0,4.789-0.507,4.723,3.954
		c0,0,0.389,3.553-3.381,4.062l-14.486,0.147l-0.152,4.416C20.776,33.295,24.649,33.395,24.649,33.395z"/>
</g>
</svg>
