<?xml version="1.0" encoding="utf-8"?>
<!-- Generator: Adobe Illustrator 16.0.0, SVG Export Plug-In . SVG Version: 6.00 Build 0)  -->
<!DOCTYPE svg PUBLIC "-//W3C//DTD SVG 1.1//EN" "http://www.w3.org/Graphics/SVG/1.1/DTD/svg11.dtd">
<svg version="1.1" id="Layer_1" xmlns="http://www.w3.org/2000/svg" xmlns:xlink="http://www.w3.org/1999/xlink" x="0px" y="0px"
	 width="50px" height="50px" viewBox="0 0 50 50" enable-background="new 0 0 50 50" xml:space="preserve">
<g>
	<path d="M2.272,32.023c0,0,5.963,9.041,18.104,8.832c7.828-0.234,18.931-3.688,21.897-15.104c0,0,3.188,0.538,5.453-1.945
		c-3.09,0.429-5.143-0.541-5.143-0.541s4.039-0.115,4.936-2.506c-2.393,1.039-5.352,0.155-5.352,0.155s-1.395-8.547-9.889-8.86
		c0,0,4.541-0.921,3.83-1.969c-0.572-0.759-3.728,0.656-3.728,0.656s1.761-0.775,1.724-1.601c-1.781,0.202-3.418,1.52-3.418,1.52
		s0.498-0.796,0.51-1.133c-4.244,2.354-7.131,11.146-7.131,11.146s-1.074-1.193-2.863-2.491c-4.324-2.541-12.299-5.559-12.299-5.559
		s-0.533,3.29,3.723,5.7c-1.744,0.139-2.617,0.364-2.617,0.364s0,3.494,5.068,4.634c-2.355,0.082-3.123,1.25-3.123,1.25
		s1.324,3.12,5.496,2.868c-3.395,1.746-1.197,4.141,1.578,3.886C10.108,39.311,2.272,32.023,2.272,32.023"/>
</g>
</svg>
