<?xml version="1.0" encoding="utf-8"?>
<!-- Generator: Adobe Illustrator 16.0.0, SVG Export Plug-In . SVG Version: 6.00 Build 0)  -->
<!DOCTYPE svg PUBLIC "-//W3C//DTD SVG 1.1//EN" "http://www.w3.org/Graphics/SVG/1.1/DTD/svg11.dtd">
<svg version="1.1" id="Layer_1" xmlns="http://www.w3.org/2000/svg" xmlns:xlink="http://www.w3.org/1999/xlink" x="0px" y="0px"
	 width="50px" height="50px" viewBox="0 0 50 50" enable-background="new 0 0 50 50" xml:space="preserve">
<g>
	<path d="M25,0.942c-13.286,0-24.056,10.769-24.056,24.056c0,13.29,10.771,24.061,24.056,24.061
		c13.284,0,24.057-10.771,24.057-24.061C49.057,11.711,38.283,0.942,25,0.942z M29.207,12.839c0,2.157-1.055,3.222-3.174,3.222
		c-2.263,0-3.409-1.064-3.409-3.222c0-2.276,1.146-3.407,3.409-3.407C28.152,9.432,29.207,10.563,29.207,12.839z M36.611,36.803
		c-0.277,2.696-1.394,5.112-3.361,7.278c-1.969,2.169-4.49,3.24-7.574,3.24c-6.181,0-11.43-2.205-15.763-6.599
		c-4.355-4.404-6.524-9.638-6.524-15.726c0-6.086,2.169-11.321,6.524-15.722c4.333-4.399,9.582-6.599,15.763-6.599
		c-3.362,0.08-6.012,1.209-7.964,3.375c-1.948,2.172-3.029,4.569-3.218,7.221c-0.199,2.646,0.574,5.126,2.306,7.467
		c1.738,2.318,4.651,3.682,8.74,4.069c4.255,0.495,7.246,1.939,8.937,4.344C36.176,31.549,36.877,34.105,36.611,36.803z"/>
	<path d="M26.033,40.023c-2.263,0-3.409-1.131-3.409-3.364c0-2.147,1.146-3.226,3.409-3.226c2.119,0,3.174,1.077,3.174,3.226
		C29.207,38.893,28.152,40.023,26.033,40.023L26.033,40.023z"/>
</g>
</svg>
